<svg width="65" height="65" viewBox="0 0 65 65" fill="none" xmlns="http://www.w3.org/2000/svg">
<circle cx="32.5" cy="32.5" r="30" stroke="white" stroke-width="5"/>
<path d="M20.4107 23.6654C20.0003 21.8186 21.2817 19.8469 22.5904 18.6691C23.2095 18.1119 23.7688 17.5014 24.4682 17.038C25.2422 16.5251 26.1167 16.1651 27.005 15.9113C27.9286 15.6474 28.9787 15.7825 29.9321 15.7272C31.1715 15.6554 32.4784 15.6343 33.6913 15.9076C36.1509 16.4619 38.6367 17.1747 40.5581 18.8973C41.3272 19.5869 41.9859 20.2972 42.3475 21.2832C42.7506 22.3826 42.7451 23.4902 42.7451 24.6448C42.7451 27.3389 41.6546 29.8432 39.483 31.5005C37.8744 32.7281 35.9595 33.0909 34.0595 33.6691C32.6888 34.0863 30.8264 34.5961 30.0647 35.9593C29.8451 36.3521 29.8257 36.879 29.8216 37.3179C29.8183 37.6794 29.7894 38.07 29.9174 38.4151C30.0238 38.7021 30.21 38.9571 30.315 39.2435C30.418 39.5243 30.5507 39.7982 30.5507 40.1014" stroke="#FCFCFC" stroke-width="3" stroke-linecap="round"/>
<path d="M31.0146 46.5301C31.0265 46.4347 31.2835 46.8741 31.1397 47.0897C30.8808 47.4781 30.6829 47.0807 30.6316 46.7952C30.5837 46.5283 30.9016 46.6046 30.8783 46.3607C30.8646 46.2163 30.7097 45.9336 30.9483 45.9336" stroke="#FCFCFC" stroke-width="3" stroke-linecap="round"/>
</svg>
