<svg width="832" height="570" viewBox="0 0 832 570" fill="none" xmlns="http://www.w3.org/2000/svg">
<rect y="24" width="798" height="546" rx="56" fill="#0E0E0E"/>
<rect x="37" y="3" width="792" height="540" rx="53" fill="white" stroke="#0E0E0E" stroke-width="6"/>
<rect x="59" y="27" width="387" height="314" rx="53" fill="#2B63F0" stroke="#0E0E0E" stroke-width="6"/>
<line x1="495" y1="120" x2="783" y2="120" stroke="#2B63F0" stroke-width="16" stroke-linecap="round"/>
<line x1="495" y1="205" x2="783" y2="205" stroke="#2B63F0" stroke-width="16" stroke-linecap="round"/>
<line x1="495" y1="290" x2="783" y2="290" stroke="#2B63F0" stroke-width="16" stroke-linecap="round"/>
<line x1="111" y1="375" x2="783" y2="375" stroke="#2B63F0" stroke-width="16" stroke-linecap="round"/>
<line x1="111" y1="460" x2="783" y2="460" stroke="#2B63F0" stroke-width="16" stroke-linecap="round"/>
<circle cx="252.5" cy="128.5" r="78.5" fill="white"/>
<path d="M380 338.5C380 304.685 366.567 272.255 342.656 248.344C318.745 224.433 286.315 211 252.5 211C218.685 211 186.255 224.433 162.344 248.344C138.433 272.255 125 304.685 125 338.5L252.5 338.5H380Z" fill="white"/>
</svg>
