<?xml version="1.0" encoding="UTF-8"?>
<svg xmlns="http://www.w3.org/2000/svg" xmlns:xlink="http://www.w3.org/1999/xlink" width="60px" height="55px" viewBox="0 0 60 55" version="1.1">
<g id="surface1">
<path style=" stroke:none;fill-rule:nonzero;fill:rgb(16.862746%,38.82353%,94.117647%);fill-opacity:1;" d="M 30 55 L 25.652344 51.105469 C 20.613281 46.5625 16.441406 42.640625 13.144531 39.34375 C 10.3125 36.578125 7.679688 33.609375 5.273438 30.460938 C 3.5625 28.265625 2.1875 25.828125 1.1875 23.230469 C 0.421875 21.0625 0.0273438 18.78125 0.0273438 16.484375 C -0.0703125 12.085938 1.636719 7.835938 4.75 4.722656 C 7.863281 1.609375 12.109375 -0.0976562 16.511719 0 C 19.074219 -0.0078125 21.609375 0.554688 23.925781 1.648438 C 26.261719 2.738281 28.335938 4.324219 30 6.292969 C 31.660156 4.320312 33.734375 2.734375 36.074219 1.648438 C 38.390625 0.554688 40.925781 -0.0078125 43.488281 0 C 47.890625 -0.0976562 52.136719 1.609375 55.25 4.722656 C 58.363281 7.835938 60.070312 12.085938 59.972656 16.484375 C 59.972656 18.78125 59.578125 21.0625 58.8125 23.230469 C 57.8125 25.828125 56.4375 28.265625 54.726562 30.460938 C 52.316406 33.605469 49.691406 36.570312 46.863281 39.34375 C 43.535156 42.640625 39.363281 46.5625 34.347656 51.105469 Z M 30 46.957031 C 34.796875 42.660156 38.742188 38.976562 41.839844 35.90625 C 44.441406 33.386719 46.890625 30.71875 49.183594 27.914062 C 50.738281 26.0625 52.015625 23.992188 52.980469 21.769531 C 53.640625 20.085938 53.980469 18.292969 53.976562 16.484375 C 54.046875 13.683594 52.964844 10.972656 50.980469 8.992188 C 49 7.007812 46.289062 5.925781 43.488281 5.996094 C 41.171875 5.996094 38.910156 6.691406 36.992188 7.992188 C 35.105469 9.179688 33.660156 10.957031 32.878906 13.046875 L 27.183594 13.046875 C 26.386719 10.949219 24.917969 9.171875 23.007812 7.992188 C 21.089844 6.6875 18.828125 5.992188 16.511719 5.996094 C 13.710938 5.925781 11 7.007812 9.019531 8.992188 C 7.035156 10.972656 5.953125 13.683594 6.023438 16.484375 C 6.019531 18.292969 6.359375 20.085938 7.019531 21.769531 C 7.972656 23.960938 9.234375 26.003906 10.765625 27.835938 C 13.058594 30.640625 15.511719 33.308594 18.109375 35.828125 C 21.242188 38.917969 25.203125 42.628906 30 46.957031 Z M 33.058594 18.214844 C 33.058594 25.796875 26.492188 31.972656 18.402344 31.972656 C 10.308594 31.972656 3.742188 25.796875 3.742188 18.164062 C 3.742188 10.53125 10.308594 4.335938 18.402344 4.335938 C 26.492188 4.335938 33.058594 10.53125 33.058594 18.164062 Z M 56.355469 18.214844 C 56.355469 25.796875 49.800781 31.972656 41.710938 31.972656 C 33.617188 31.972656 27.050781 25.777344 27.050781 18.144531 C 27.050781 10.511719 33.617188 4.335938 41.710938 4.335938 C 49.800781 4.335938 56.355469 10.53125 56.355469 18.164062 Z M 47.703125 32.699219 C 47.703125 40.542969 39.839844 46.957031 30.140625 46.957031 C 20.4375 46.957031 12.585938 40.542969 12.585938 32.699219 C 12.585938 24.855469 20.449219 18.484375 30.140625 18.484375 C 39.832031 18.484375 47.703125 24.847656 47.703125 32.699219 Z M 47.703125 32.699219 "/>
</g>
</svg>
