<?xml version="1.0" encoding="UTF-8"?><svg id="Camada_1" xmlns="http://www.w3.org/2000/svg" width="60" height="55.04999" viewBox="0 0 60 55.04999"><defs><style>.cls-1{fill:#2b63f0;stroke-width:0px;}</style></defs><path class="cls-1" d="M30,55.04999l-4.35-3.9c-5.05-4.55-9.225-8.475-12.525-11.775-3.3-3.3-5.925-6.2625-7.875-8.8875s-3.3125-5.0375-4.0875-7.2375c-.775-2.2-1.1625-4.45-1.1625-6.75C0,11.79999,1.575,7.87499,4.725,4.72499,7.875,1.575,11.8,0,16.5,0c2.6,0,5.075.55,7.425,1.65,2.35,1.09999,4.375,2.64999,6.075,4.64999,1.7-2,3.725-3.55,6.075-4.64999,2.35-1.1,4.825-1.65,7.425-1.65,4.7,0,8.625,1.575,11.775,4.72499,3.15,3.15,4.725,7.075,4.725,11.775,0,2.3-.3875,4.55-1.1625,6.75-.775,2.2-2.1375,4.6125-4.0875,7.2375s-4.575,5.5875-7.875,8.8875-7.475,7.225-12.525,11.775l-4.35,3.9ZM30,46.94999c4.8-4.3,8.75-7.9875,11.85-11.0625,3.1-3.075,5.55-5.75,7.35-8.025,1.8-2.275,3.05-4.3,3.75-6.075s1.05-3.5375,1.05-5.2875c0-3-1-5.5-3-7.5-2-2-4.5-3-7.5-3-2.35,0-4.525.6625-6.525,1.9875s-3.375,3.0125-4.125,5.0625h-5.7c-.75-2.05-2.125-3.7375-4.125-5.0625s-4.175-1.9875-6.525-1.9875c-3,0-5.5,1-7.5,3-2,2-3,4.5-3,7.5,0,1.75.35,3.5125,1.05,5.2875s1.95,3.8,3.75,6.075c1.8,2.275,4.25,4.95,7.35,8.025s7.05,6.7625,11.85,11.0625Z"/></svg>