<svg width="650" height="513" viewBox="0 0 650 513" fill="none" xmlns="http://www.w3.org/2000/svg">
<path d="M610.796 469.9C601.985 482.758 585.694 491.518 565.46 492.338L125.931 510.216C91.5066 511.599 58.8238 489.469 52.9326 460.782L3.90832 221.91C-0.958257 198.09 14.1537 177.24 39.1013 170.068" fill="#0E0E0E"/>
<path d="M610.796 469.9C601.985 482.758 585.694 491.518 565.46 492.338L125.931 510.216C91.5066 511.599 58.8238 489.469 52.9326 460.782L3.90832 221.91C-0.958257 198.09 14.1537 177.24 39.1013 170.068" stroke="#0E0E0E" stroke-width="5.12271" stroke-miterlimit="10"/>
<path d="M555.829 135.079C576.678 143.224 593.02 159.668 597.016 179.134L646.04 418.006C651.931 446.693 628.776 471.077 594.352 472.512L154.823 490.39C120.399 491.773 87.7158 469.643 81.8247 440.956L32.8004 202.084C26.9092 173.397 50.0639 149.012 84.4885 147.629L477.759 131.646" fill="white"/>
<path d="M555.829 135.079C576.678 143.224 593.02 159.668 597.016 179.134L646.04 418.006C651.931 446.693 628.776 471.077 594.352 472.512L154.823 490.39C120.399 491.773 87.7158 469.643 81.8247 440.956L32.8004 202.084C26.9092 173.397 50.0639 149.012 84.4885 147.629L477.759 131.646" stroke="#1D1D1B" stroke-width="5.12271" stroke-miterlimit="10"/>
<path d="M514.132 176.777C532.215 181.234 547.225 194.348 550.503 210.331L587.592 391.111C591.792 411.5 575.349 428.815 550.862 429.788L180.183 444.849C155.748 445.873 132.542 430.147 128.341 409.758L91.2526 229.029C87.052 208.641 103.496 191.326 127.982 190.301L431.4 177.956" fill="#2B63F0"/>
<path d="M514.132 176.777C532.215 181.234 547.225 194.348 550.503 210.331L587.592 391.111C591.792 411.5 575.349 428.815 550.862 429.788L180.183 444.849C155.748 445.873 132.542 430.147 128.341 409.758L91.2526 229.029C87.052 208.641 103.496 191.326 127.982 190.301L431.4 177.956" stroke="#1D1D1B" stroke-width="5.12271" stroke-miterlimit="10"/>
<path d="M42.6389 357.508L64.5129 356.586L50.1181 286.456L28.2441 287.327L42.6389 357.508Z" fill="#2B63F0" stroke="#1D1D1B" stroke-width="5.12271" stroke-miterlimit="10"/>
<path d="M345.238 304.282L399.385 287.735C403.022 286.608 406.301 284.662 409.016 281.947L640.203 50.7588C646.863 44.0993 649.066 33.9051 645.172 25.3502C641.279 16.7953 633.851 9.11122 624.835 5.01305C615.819 0.914885 606.086 3.32256 599.427 9.98208L368.085 241.324C365.473 243.936 363.526 247.112 362.399 250.647L346.928 298.954C345.801 302.489 343.855 305.665 341.242 308.277L339.449 310.07L351.027 298.493" fill="#0E0E0E"/>
<path d="M345.238 304.282L399.385 287.735C403.022 286.608 406.301 284.662 409.016 281.947L640.203 50.7588C646.863 44.0993 649.066 33.9051 645.172 25.3502C641.279 16.7953 633.851 9.11122 624.835 5.01305C615.819 0.914885 606.086 3.32256 599.427 9.98208L368.085 241.324C365.473 243.936 363.526 247.112 362.399 250.647L346.928 298.954C345.801 302.489 343.855 305.665 341.242 308.277L339.449 310.07L351.027 298.493" stroke="#0E0E0E" stroke-width="5.12271" stroke-miterlimit="10"/>
<path d="M596.454 21.4062L390.061 227.8" stroke="white" stroke-width="5.12271" stroke-linecap="round" stroke-linejoin="round"/>
</svg>
