<?xml version="1.0" encoding="UTF-8"?>
<svg id="Camada_1" xmlns="http://www.w3.org/2000/svg" version="1.1" viewBox="0 0 124 124">
  <!-- Generator: Adobe Illustrator 29.0.0, SVG Export Plug-In . SVG Version: 2.1.0 Build 186)  -->
  <defs>
    <style>
      .st0, .st1 {
        fill: #fff;
      }

      .st1 {
        fill-rule: evenodd;
      }
    </style>
  </defs>
  <path class="st1" d="M88.8,30.3c5.6,0,10.1,5.2,10.1,11.6v38.7c0,6.4-4.5,11.6-10.1,11.6h-53.8c-5.6,0-10.1-5.2-10.1-11.6v-38.7c0-6.4,4.5-11.6,10.1-11.6h53.8ZM86.3,38h-48.8l22.3,20.3c1.2,1.1,2.9,1.1,4.2,0l22.3-20.3ZM31.6,42.6v38.1c0,2.1,1.5,3.9,3.4,3.9h53.8c1.9,0,3.4-1.7,3.4-3.9v-38.1l-24,21.8c-3.7,3.3-8.8,3.3-12.5,0l-24-21.8Z"/>
  <path class="st0" d="M62,10.3c28.5,0,51.7,23.2,51.7,51.7s-23.2,51.7-51.7,51.7S10.3,90.5,10.3,62,33.5,10.3,62,10.3ZM62,0C27.8,0,0,27.8,0,62s27.8,62,62,62,62-27.8,62-62S96.2,0,62,0Z"/>
</svg>