<svg width="20" height="19" viewBox="0 0 20 19" fill="none" xmlns="http://www.w3.org/2000/svg">
<path d="M10.9224 2.47519C10.6978 1.82909 10.5855 1.50605 10.4194 1.41652C10.2758 1.33903 10.1028 1.33903 9.95897 1.41652C9.79296 1.50605 9.68071 1.82909 9.4561 2.47519L7.97135 6.74654C7.90741 6.93043 7.87549 7.02237 7.81786 7.09084C7.76702 7.15133 7.70211 7.19847 7.62886 7.22816C7.546 7.26178 7.44868 7.26376 7.25405 7.26772L2.73295 7.35986C2.04903 7.37379 1.70712 7.38077 1.57061 7.51102C1.45253 7.62375 1.39907 7.78833 1.42837 7.94896C1.46214 8.13457 1.73468 8.34113 2.27976 8.75445L5.88331 11.4863C6.03845 11.604 6.11597 11.6628 6.16331 11.7387C6.20513 11.8058 6.22987 11.8821 6.2355 11.9609C6.24181 12.0501 6.21367 12.1433 6.1573 12.3297L4.84777 16.658C4.64975 17.3127 4.55069 17.6401 4.63238 17.81C4.70311 17.9572 4.84312 18.0589 5.00495 18.0807C5.19192 18.1059 5.4726 17.9106 6.03408 17.5199L9.74591 14.937C9.90571 14.8258 9.98556 14.7702 10.0724 14.7486C10.1491 14.7296 10.2294 14.7296 10.306 14.7486C10.3929 14.7702 10.4728 14.8258 10.6326 14.937L14.3444 17.5199C14.9058 17.9106 15.1866 18.1059 15.3735 18.0807C15.5353 18.0589 15.6753 17.9572 15.7461 17.81C15.8278 17.6401 15.7287 17.3127 15.5307 16.658L14.2212 12.3297C14.1648 12.1433 14.1366 12.0501 14.143 11.9609C14.1486 11.8821 14.1734 11.8058 14.2152 11.7387C14.2625 11.6628 14.3401 11.604 14.4952 11.4863L18.0987 8.75445C18.6438 8.34113 18.9163 8.13457 18.9501 7.94896C18.9794 7.78833 18.9259 7.62375 18.8078 7.51102C18.6714 7.38077 18.3294 7.3738 17.6456 7.35986L13.1245 7.26772C12.9298 7.26376 12.8325 7.26178 12.7496 7.22816C12.6763 7.19847 12.6115 7.15133 12.5606 7.09084C12.503 7.02237 12.471 6.93043 12.4071 6.74654L10.9224 2.47519Z" stroke="#0E0E0E" stroke-width="1.46146" stroke-linecap="round" stroke-linejoin="round"/>
</svg>
