<?xml version="1.0" encoding="UTF-8"?><svg id="Camada_1" xmlns="http://www.w3.org/2000/svg" width="60" height="55.04999" viewBox="0 0 60 55.04999"><defs><style>.cls-1{fill:#2b63f0;stroke-width:0px;}</style></defs><path class="cls-1" d="M17.80077,25.65135l-1.19013-1.20301s-1.82927-1.57101-3.91477-.85875c-3.63091,1.23963-7.82583-.10247-10.73533-3.0157-.82769-.82761-1.83291-2.48833-1.83291-2.48833-.11531-.15746-.15562-.35703-.10805-.54741l.22523-.9265c.04207-.17392.15386-.32231.30761-.41381.15387-.0897.33879-.11356.50906-.06406l7.14649,1.98852c.26555.07324.54936-.02565.7105-.24716l3.28295-4.52265c.10068-.13742.14291-.30955.11905-.47619l-.66097-4.8046c-.03483-.2618-.22164-.47425-.47619-.54562l-7.54748-2.10022c-.34054-.09527-.54749-.44683-.46324-.79288l.29848-1.21394c.04031-.17214.15011-.31863.30034-.41015,0,0,.59144-.39188,1.02175-.61336C9.07961.18176,14.47743.86847,18.07179,4.46457c2.65497,2.65497,3.69504,6.29149,3.20799,9.74475-.3754,2.65497-.19957,4.06674.94666,5.27893.10438.10795.43385.43755.94296.93748l-5.36864,5.22561Z"/><path class="cls-1" d="M35.2285,32.14403c8.01073,7.76178,16.74851,16.20648,16.74851,16.20648.29845.28581.46868.67934.47428,1.09147.00549.41011-.15758.80746-.44685,1.09852l-3.74275,3.74275c-.29297.29106-.6884.45222-1.10042.44685-.41202-.0037-.80387-.17583-1.08766-.47238l-16.32731-16.51781,5.4822-5.59588Z"/><path class="cls-1" d="M1.23903,50.41989c-.2911-.29106-.45223-.68662-.44684-1.09863.00364-.41202.17578-.80376.47238-1.08945l32.08528-31.22461,5.1507,5.15249L7.17159,54.13688c-.2857.29857-.67746.4688-1.08949.47428s-.80753-.15746-1.1005-.44852l-3.74257-3.74275Z"/><path class="cls-1" d="M30.2114,1.34796c3.86347-1.5069,10.1109-1.72486,13.729,1.89151,2.84917,2.84915,7.01659,7.0184,7.01659,7.0184,1.48501,1.48311.10616,2.95528,1.20301,4.05034,1.09673,1.09673,2.84917,0,3.83603.98686l3.6181,3.61977c.51449.5127.51449,1.34771,0,1.86231l-5.04095,5.04084c-.51449.51461-1.34949.51461-1.86398,0l-3.6181-3.6181c-.98877-.98698.10998-2.73931-.98877-3.83425-1.47761-1.47952-3.09085-1.22854-4.02284-.29846l-1.86219,1.86219-2.01774.53095-5.1507-5.1507.59322-1.95559c1.64258-1.64422,1.87686-3.54674.84777-4.57575-1.59308-1.59303-4.2242-3.89457-6.68879-4.88152-1.57089-.628-1.09661-2.19173.41035-2.5488ZM37.19865,9.65167c.00728.00551-.68662-.85324-.6995-.86425l.6995.86425Z"/></svg>