<svg width="68" height="64" viewBox="0 0 68 64" fill="none" xmlns="http://www.w3.org/2000/svg">
<path d="M11.3219 13.2295H45.2871" stroke="#2B63F0" stroke-width="3.57528" stroke-linecap="round"/>
<path d="M11.3219 31.7505H28.3045" stroke="#2B63F0" stroke-width="3.57528" stroke-linecap="round"/>
<path d="M39.6262 31.7505H56.6088" stroke="#2B63F0" stroke-width="3.57528" stroke-linecap="round"/>
<path d="M22.6437 50.2715H56.6089" stroke="#2B63F0" stroke-width="3.57528" stroke-linecap="round"/>
<path d="M50.948 18.5216C54.0744 18.5216 56.6088 16.1523 56.6088 13.2298C56.6088 10.3072 54.0744 7.93799 50.948 7.93799C47.8216 7.93799 45.2871 10.3072 45.2871 13.2298C45.2871 16.1523 47.8216 18.5216 50.948 18.5216Z" stroke="#2B63F0" stroke-width="3.57528" stroke-linecap="round"/>
<path d="M33.9653 37.0426C37.0917 37.0426 39.6262 34.6733 39.6262 31.7508C39.6262 28.8282 37.0917 26.459 33.9653 26.459C30.8389 26.459 28.3044 28.8282 28.3044 31.7508C28.3044 34.6733 30.8389 37.0426 33.9653 37.0426Z" stroke="#2B63F0" stroke-width="3.57528" stroke-linecap="round"/>
<path d="M16.9828 55.564C20.1092 55.564 22.6436 53.1948 22.6436 50.2723C22.6436 47.3497 20.1092 44.9805 16.9828 44.9805C13.8564 44.9805 11.3219 47.3497 11.3219 50.2723C11.3219 53.1948 13.8564 55.564 16.9828 55.564Z" stroke="#2B63F0" stroke-width="3.57528" stroke-linecap="round"/>
</svg>
