<svg width="616" height="423" viewBox="0 0 616 423" fill="none" xmlns="http://www.w3.org/2000/svg">
<rect y="17.769" width="590.827" height="404.25" rx="56" fill="#0E0E0E"/>
<rect x="28.1729" y="3" width="584.827" height="398.25" rx="53" fill="white" stroke="#0E0E0E" stroke-width="6"/>
<rect x="44.4619" y="20.769" width="284.971" height="230.923" rx="53" fill="#2B63F0" stroke="#0E0E0E" stroke-width="6"/>
<line x1="368.567" y1="86.769" x2="577.644" y2="86.769" stroke="#2B63F0" stroke-width="16" stroke-linecap="round"/>
<line x1="368.567" y1="149.702" x2="577.644" y2="149.702" stroke="#2B63F0" stroke-width="16" stroke-linecap="round"/>
<line x1="368.567" y1="212.635" x2="577.644" y2="212.635" stroke="#2B63F0" stroke-width="16" stroke-linecap="round"/>
<line x1="84.2598" y1="275.567" x2="577.644" y2="275.567" stroke="#2B63F0" stroke-width="16" stroke-linecap="round"/>
<line x1="84.2598" y1="338.5" x2="577.644" y2="338.5" stroke="#2B63F0" stroke-width="16" stroke-linecap="round"/>
<circle cx="186.947" cy="95.1392" r="58.1202" fill="white"/>
<path d="M281.346 250.62C281.346 225.584 271.4 201.573 253.697 183.87C235.994 166.167 211.983 156.221 186.947 156.221C161.911 156.221 137.9 166.167 120.197 183.87C102.493 201.573 92.5479 225.584 92.5479 250.62L186.947 250.62H281.346Z" fill="white"/>
</svg>
