<svg width="584" height="367" viewBox="0 0 584 367" fill="none" xmlns="http://www.w3.org/2000/svg">
<path d="M45.331 32H29.3837C14.2623 32 2 44.2581 2 59.3107V337.689C2 352.805 14.2623 365 29.3837 365H519.939C530.486 365 539 356.489 539 345.946V334.895" fill="#0E0E0E"/>
<path d="M45.331 32H29.3837C14.2623 32 2 44.2581 2 59.3107V337.689C2 352.805 14.2623 365 29.3837 365H519.939C530.486 365 539 356.489 539 345.946V334.895" stroke="#0E0E0E" stroke-width="3.21242" stroke-miterlimit="10"/>
<path d="M562.937 2H175.063C164.535 2 156 10.5308 156 21.054V315.946C156 326.469 164.535 335 175.063 335H562.937C573.465 335 582 326.469 582 315.946V21.054C582 10.5308 573.465 2 562.937 2Z" fill="white" stroke="#0E0E0E" stroke-width="3.21242" stroke-miterlimit="10"/>
<path d="M163.657 2H72.3432C57.242 2 45 14.2274 45 29.3107V307.689C45 322.773 57.242 335 72.3432 335H163.657C178.758 335 191 322.773 191 307.689V29.3107C191 14.2274 178.758 2 163.657 2Z" fill="#2B63F0" stroke="#0E0E0E" stroke-width="3.21242" stroke-miterlimit="10"/>
<path d="M369.5 309C444.335 309 505 248.335 505 173.5C505 98.6654 444.335 38 369.5 38C294.665 38 234 98.6654 234 173.5C234 248.335 294.665 309 369.5 309Z" fill="#0E0E0E" stroke="#0E0E0E" stroke-width="3.21242" stroke-miterlimit="10"/>
<path d="M382.5 304C457.335 304 518 243.335 518 168.5C518 93.6654 457.335 33 382.5 33C307.665 33 247 93.6654 247 168.5C247 243.335 307.665 304 382.5 304Z" fill="white" stroke="#0E0E0E" stroke-width="3.21242" stroke-miterlimit="10"/>
<path d="M382 280C443.856 280 494 230.08 494 168.5C494 106.92 443.856 57 382 57C320.144 57 270 106.92 270 168.5C270 230.08 320.144 280 382 280Z" fill="#0E0E0E" stroke="#0E0E0E" stroke-width="3.21242" stroke-miterlimit="10"/>
<path d="M414.5 198C450.122 198 479 169.346 479 134C479 98.6538 450.122 70 414.5 70C378.878 70 350 98.6538 350 134C350 169.346 378.878 198 414.5 198Z" fill="white" stroke="#0E0E0E" stroke-width="3.21242" stroke-miterlimit="10"/>
<path d="M574 269H527V281H574V269Z" fill="white" stroke="#0E0E0E" stroke-width="3.21242" stroke-miterlimit="10"/>
<path d="M144.792 37H82.2078C78.7793 37 76 39.7951 76 43.243V73.757C76 77.2049 78.7793 80 82.2078 80H144.792C148.221 80 151 77.2049 151 73.757V43.243C151 39.7951 148.221 37 144.792 37Z" fill="white"/>
<path d="M517.5 364C529.374 364 539 354.374 539 342.5C539 330.626 529.374 321 517.5 321C505.626 321 496 330.626 496 342.5C496 354.374 505.626 364 517.5 364Z" fill="#0E0E0E" stroke="#0E0E0E" stroke-width="3.21242" stroke-miterlimit="10"/>
<path d="M527 359C538.598 359 548 349.598 548 338C548 326.402 538.598 317 527 317C515.402 317 506 326.402 506 338C506 349.598 515.402 359 527 359Z" fill="white" stroke="#0E0E0E" stroke-width="3.21242" stroke-miterlimit="10"/>
</svg>
