<?xml version="1.0" encoding="UTF-8"?><svg id="Camada_1" xmlns="http://www.w3.org/2000/svg" width="43.5824" height="43.5824" xmlns:xlink="http://www.w3.org/1999/xlink" viewBox="0 0 43.5824 43.5824"><defs><style>.cls-1{fill:#2b63f0;stroke:#2b63f0;stroke-width:1.3678px;}.cls-1,.cls-2{stroke-miterlimit:10;}.cls-2{fill:#fff;stroke:#fff;stroke-width:.27356px;}.cls-3{fill:#f1f2f2;}.cls-3,.cls-4{stroke-width:0px;}.cls-4{fill:url(#Gradiente_sem_nome);}</style><radialGradient id="Gradiente_sem_nome" cx="-268.62691" cy="433.64324" fx="-268.62691" fy="433.64324" r="1" gradientTransform="translate(11599.70199 18748.53466) scale(43.1502 -43.1502)" gradientUnits="userSpaceOnUse"><stop offset="0" stop-color="#fec053"/><stop offset=".3273" stop-color="#f2203e"/><stop offset=".6485" stop-color="#b729a8"/><stop offset="1" stop-color="#5342d6"/></radialGradient></defs><path class="cls-4" d="M21.7912,43.5824c12.035,0,21.7912-9.7562,21.7912-21.7912S33.8262,0,21.7912,0,0,9.75626,0,21.7912s9.75626,21.7912,21.7912,21.7912Z"/><path class="cls-3" d="M30.5531,37.1096H13.0299c-3.61561,0-6.55712-2.9417-6.55712-6.5574V13.0296c0-3.61592,2.94151-6.55743,6.55712-6.55743h17.5232c3.6156,0,6.5571,2.94151,6.5571,6.55743v17.5226c0,3.6157-2.9415,6.5574-6.5571,6.5574ZM13.0299,10.0487c-1.6437,0-2.9806,1.3373-2.9806,2.9809v17.5226c0,1.6438,1.3371,2.9807,2.9806,2.9807h17.5232c1.6437,0,2.9806-1.3371,2.9806-2.9807V13.0296c0-1.6436-1.3371-2.9809-2.9806-2.9809H13.0299Z"/><path class="cls-3" d="M21.7913,30.2545c-4.6667,0-8.4633-3.7969-8.4633-8.4633s3.7966-8.4633,8.4633-8.4633,8.4637,3.7968,8.4637,8.4633-3.797,8.4633-8.4637,8.4633ZM21.7913,16.9046c-2.6946,0-4.8868,2.192-4.8868,4.8866s2.1922,4.8865,4.8868,4.8865c2.6948,0,4.887-2.192,4.887-4.8865s-2.1922-4.8866-4.887-4.8866Z"/><path class="cls-3" d="M31.9771,13.5925c0,.8415-.6824,1.5237-1.5239,1.5237-.8414,0-1.5236-.6822-1.5236-1.5237,0-.8414.6822-1.5234,1.5236-1.5234.8415,0,1.5239.682,1.5239,1.5234Z"/><path class="cls-1" d="M36.70666,36.7051c8.2375-8.23695,8.2375-21.59174,0-29.82868C28.46927-1.36053,15.11377-1.36053,6.87627,6.87642-1.36114,15.11336-1.36114,28.46816,6.87627,36.7051c8.2375,8.23705,21.593,8.23705,29.83039,0Z"/><path class="cls-2" d="M23.15512,19.79829c.10377-.11171.1451-.14642.17413-.18883,1.41898-2.07307,3.44635-2.68326,5.81206-2.31888,2.73409.42125,4.48358,2.33676,4.93016,5.26808.10606.69502.15847,1.3924.15847,2.09535-.00104,2.91793-.00668,5.83575.00668,8.75475.00229.32861-.07923.42468-.41527.42136-1.52724-.01789-3.05562-.01789-4.58286,0-.33384.00332-.41986-.09169-.41756-.42136.01221-2.72117.00783-5.44352.00553-8.1647,0-.61908-.04353-1.23377-.21765-1.83165-.55713-1.92108-2.74088-2.59607-4.29484-1.31753-.84076.68945-1.16897,1.60254-1.16229,2.6764.01347,2.56705.00449,5.13516.00449,7.7021,0,.33642-.019.67499.00564,1.00917.02119.29058-.09719.34757-.36067.34531-1.55511-.01007-3.11147-.01114-4.66658,0-.28248.00225-.38405-.05473-.38071-.36545.02234-2.31438.03236-4.62887.03351-6.94325,0-2.84745-.00564-5.69609-.02464-8.54354-.00219-.31179.06368-.40454.3852-.40015,1.55521.01789,3.11147.01457,4.66668.00225.28018-.00225.35837.08162.3494.35431-.019.58663-.00553,1.17454-.00553,1.86849l-.00334-.00225Z"/><path class="cls-2" d="M14.79427,25.70249c0,2.56587-.00564,5.13281.00668,7.69868.00105.31854-.06253.4325-.40973.428-1.5407-.02014-3.08245-.01564-4.62315-.00332-.28572.00225-.38291-.0693-.38176-.36995.00783-5.17522.00668-10.34948-.00115-15.52481,0-.26927.06472-.35977.34835-.35763,1.56962.0135,3.13819.01457,4.70677,0,.31265-.00332.36171.11064.36067.38784-.01002,2.58044-.00564,5.16076-.00564,7.7412h-.00104Z"/><path class="cls-2" d="M12.13377,9.753c2.06767.00225,3.41065,1.64164,2.92054,3.56379-.37059,1.45163-1.86995,2.2876-3.60148,2.00602-1.83884-.2984-2.86365-2.09545-2.18605-3.83092.4232-1.08404,1.505-1.74007,2.86699-1.73889Z"/></svg>