<?xml version="1.0" encoding="UTF-8"?><svg id="Camada_1" xmlns="http://www.w3.org/2000/svg" width="671.91845" height="285.27692" xmlns:xlink="http://www.w3.org/1999/xlink" viewBox="0 0 671.91845 285.27692"><defs><style>.cls-1{fill:#eaeaea;}.cls-1,.cls-2,.cls-3,.cls-4,.cls-5,.cls-6,.cls-7,.cls-8{stroke-width:0px;}.cls-2{fill:#2ba1f0;}.cls-9{filter:url(#drop-shadow-1);}.cls-3{fill:#0e0e0e;}.cls-4{fill:#322bf0;}.cls-5{fill:#b72af0;}.cls-6{fill:#2b63f0;}.cls-7{fill:#722bf0;}.cls-8{fill:#2ae3f0;}</style><filter id="drop-shadow-1"><feOffset dx="7" dy="5"/><feGaussianBlur result="blur" stdDeviation="2"/><feFlood flood-color="#000" flood-opacity=".43"/><feComposite in2="blur" operator="in"/><feComposite in="SourceGraphic"/></filter></defs><g id="Camada_4"><polygon class="cls-3" points="181.85544 73.40583 102.7015 73.40583 63.12452 141.95516 102.7015 210.50449 181.85544 210.50449 221.4324 141.95516 181.85544 73.40583"/><path class="cls-4" d="M135.61227.21983C83.31643,2.75114,38.4602,33.38839,15.805,77.37014h164.35006L135.61227.21983Z"/><path class="cls-6" d="M15.78722,77.514c-23.95574,46.55517-19.85122,100.72044,6.91049,142.33128l.0147-.02545L104.87274,77.51396s-89.08552.00003-89.08552.00003Z"/><path class="cls-2" d="M22.8134,219.93262c28.34009,44.02386,77.30085,67.55188,126.71776,65.181l-.01469-.02545-82.16034-142.30588s-44.54273,77.15033-44.54272,77.15033Z"/><path class="cls-8" d="M149.66462,285.05707c52.29582-2.53131,97.15207-33.16856,119.80727-77.1503H105.12184l44.54279,77.1503Z"/><path class="cls-5" d="M269.48968,207.76291c23.95575-46.55518,19.85123-100.72044-6.91049-142.33128l-.01471.02545-82.16034,142.30588,89.08551-.00003.00003-.00002Z"/><path class="cls-7" d="M262.4635,65.34429C234.12341,21.32042,185.16266-2.20759,135.74574.1633l.01469.02545,82.16034,142.30588,44.54272-77.15034Z"/><path class="cls-1" d="M262.4635,65.34429l-120.01465,75.75462L214.86957,19.641c18.60312,10.60886,36.13846,26.88875,47.59393,45.70329"/></g><g id="Camada_3" class="cls-9"><path class="cls-1" d="M428.83847,138.19846c-4.37-4.64001-10.40002-6.91003-18.41003-6.91003h-3v-8.09998h19.60004c1.32001,0,2.48999-1.08002,2.64996-2.46002l2.26001-25.42999v-.08002c.16003-1.28998-.53998-2.23999-1.85999-2.52997-9.73999-2.20001-19.92999-3.31-30.28998-3.31-14.72003,0-25.28003,2.33997-31.40002,6.96997-5.79999,4.53003-8.64001,12.35004-8.64001,23.88,0,9.61005,2.23004,16.44,6.83002,20.89001,4.60999,4.47003,10.57001,6.72998,17.72998,6.72998h3v8.10004h-20.23999c-1.33002,0-2.48999,1.08002-2.65997,2.45996l-2.41003,26.72003-.01001.02997v.03003c-.14996,1.37.45001,2.25,1.74005,2.54999,10.21997,2.52002,21.85999,3.79004,34.60999,3.79004,13.34998,0,23.01001-2.37006,28.71997-7.06006,5.54999-4.54999,8.25-12.38995,8.25-23.94995,0-10.08002-2.17999-17.59003-6.46997-22.32001v.00002Z"/><path class="cls-1" d="M511.23843,164.19846c-.16998-1.38-1.32996-2.45001-2.65997-2.45001h-30.88v-8.09998h31.84998c1.12006,0,2.13-.74005,2.41003-1.77002,1.26001-5.19,1.98999-10.53998,2.16998-15.91003-.01001-5.71997-.92999-10.69995-2.83002-15.22998-1.75-4.14996-4.97998-7.39996-9.88995-9.94-4.97003-2.47998-11.38-3.69-19.58002-3.69-14.27002,0-24.32001,3.04004-29.88,9.03003-5.54999,6.14001-8.38,17.45001-8.38,33.57996,0,15.70001,2.77002,26.74005,8.25,32.81006,5.39001,5.96997,14.35004,9,26.62,9,12.08002,0,23.13-1.11005,32.87-3.31006,1.62-.37994,1.73004-1.96997,1.69-2.66998l-1.76001-21.34998ZM476.72848,127.37844h8.25995v17.60999h-8.25995v-17.60999Z"/><path class="cls-1" d="M589.08844,164.19846c-.16998-1.38-1.33002-2.45001-2.66003-2.45001h-30.88v-8.09998h31.85004c1.12,0,2.13-.74005,2.40997-1.77002,1.26001-5.19,1.98999-10.53998,2.17004-15.91003-.01001-5.71997-.93005-10.69995-2.83002-15.22998-1.75-4.14996-4.97998-7.39996-9.89001-9.94-4.96997-2.47998-11.38-3.69-19.58002-3.69-14.26996,0-24.32001,3.04004-29.88,9.03003-5.54999,6.14001-8.37994,17.45001-8.37994,33.57996,0,15.70001,2.76996,26.74005,8.25,32.81006,5.38995,5.96997,14.34998,9,26.62,9,12.07996,0,23.13995-1.11005,32.87-3.31006,1.62-.37994,1.72998-1.96997,1.69-2.66998l-1.76001-21.34998ZM554.57846,127.37844h8.26001v17.60999h-8.26001v-17.60999Z"/><path class="cls-1" d="M671.38843,138.69846c.34003-.42999.53003-.87.53003-1.23004v-25.13995c0-1.57001-1.23004-2.79999-2.80005-2.79999h-19.5c-.69,0-1.44.53998-1.78998,1.29999l-10.96002,23.87-.79999,1.73999h-9.03998l1.96997-4.26001,12.09003-26.10999.03998-.08002c.01001-.13.01001-.29999.01001-.42999v-13.70001c0-1.70996-1.15997-2.81-2.96002-2.81h-.16998l-35.27002,2.26001c-1.48999.08002-2.50995,1.15997-2.50995,2.64001v92.35999c0,1.57001,1.22998,2.79999,2.81,2.79999h29.32996c1.34003,0,2.42004-.46997,3.03003-1.32996.62-.87006.70996-2.07001.26001-3.39001l-6.59003-18.17004-1.46002-4.01996h8.81006l.70996,1.98999,8.38,23.52997c.12.34003.5,1.39001,2.16998,1.39001h21.44c1.57001,0,2.80005-1.22998,2.80005-2.79999v-25.95001c0-.32001-.16003-.69-.41003-.94l-.03998-.03998-.04004-.04999-7.89996-8.54004-1.94-2.09998,2-2.03003,7.79999-7.95996Z"/></g></svg>