<?xml version="1.0" encoding="utf-8"?>
<!-- Generator: Adobe Illustrator 28.3.0, SVG Export Plug-In . SVG Version: 6.00 Build 0)  -->
<svg version="1.1" xmlns="http://www.w3.org/2000/svg" xmlns:xlink="http://www.w3.org/1999/xlink" x="0px" y="0px"
	 viewBox="0 0 285.3 286.2" style="enable-background:new 0 0 285.3 286.2;" xml:space="preserve">
<style type="text/css">
	.st0{display:none;}
	.st1{display:inline;fill:#FFFFFF;stroke:#1D1D1B;stroke-miterlimit:10;}
	.st2{fill:#FFFFFF;stroke:#1D1D1B;stroke-miterlimit:10;}
	.st3{display:inline;fill:none;stroke:#1D1D1B;stroke-miterlimit:10;}
	.st4{display:none;fill:#FFFFFF;stroke:#1D1D1B;stroke-miterlimit:10;}
	.st5{display:none;fill:none;stroke:#1D1D1B;stroke-miterlimit:10;}
	.st6{fill:#0E0E0E;}
	.st7{display:inline;filter:url(#Adobe_OpacityMaskFilter);}
	.st8{display:inline;mask:url(#SVGID_1_);}
	.st9{fill:#322BF0;}
	.st10{fill:#2B63F0;}
	.st11{fill:#2BA1F0;}
	.st12{fill:#2AE3F0;}
	.st13{fill:#B72AF0;}
	.st14{fill:#722BF0;}
	.st15{fill:#EAEAEA;}
	.st16{display:inline;fill:#1D1D1B;}
	.st17{display:inline;}
</style>
<g id="Camada_1" class="st0">
	<circle class="st1" cx="142.6" cy="143.5" r="142.6"/>
</g>
<g id="Camada_2" class="st0">
	<path class="st2" d="M176.7,5C239,20.3,285.2,76.5,285.2,143.5c0,78.7-63.8,142.6-142.6,142.6S0.1,222.3,0.1,143.5
		c0-33.7,11.7-64.7,31.3-89.1"/>
	<path class="st3" d="M180.2,78.3L135.5,0.9L180.2,78.3z"/>
	<path class="st3" d="M135.5,0.9"/>
	<path class="st3" d="M15.8,78.3"/>
	<path class="st3" d="M135.6,1.1C83.3,3.7,38.5,34.3,15.8,78.3h0h164.3L135.6,1.1z"/>
	<path class="st3" d="M15.8,78.4c-24,46.6-19.9,100.7,6.9,142.3l0,0l82.2-142.3L15.8,78.4z"/>
	<path class="st3" d="M22.8,220.8c28.3,44,77.3,67.6,126.7,65.2l0,0L67.4,143.7L22.8,220.8z"/>
	<path class="st3" d="M149.7,286c52.3-2.5,97.2-33.2,119.8-77.2h0H105.1L149.7,286z"/>
	<path class="st3" d="M269.5,208.7c24-46.6,19.9-100.7-6.9-142.3l0,0l-82.2,142.3L269.5,208.7z"/>
	<path class="st3" d="M262.5,66.2c-28.3-44-77.3-67.6-126.7-65.2l0,0l82.2,142.3L262.5,66.2z"/>
	<path class="st3" d="M135.6,1.1C83.3,3.7,38.5,34.3,15.8,78.3h0h164.3L135.6,1.1z"/>
</g>
<g id="Camada_4">
	<path class="st4" d="M176.7,5C239,20.3,285.2,76.5,285.2,143.5c0,78.7-63.8,142.6-142.6,142.6S0.1,222.3,0.1,143.5
		c0-33.7,11.7-64.7,31.3-89.1"/>
	<path class="st5" d="M180.2,78.3L135.5,0.9L180.2,78.3z"/>
	<path class="st5" d="M135.5,0.9"/>
	<path class="st5" d="M15.8,78.3"/>
	<path class="st5" d="M135.6,1.1C83.3,3.7,38.5,34.3,15.8,78.3h0h164.3L135.6,1.1z"/>
	<polygon class="st6" points="181.9,74.3 102.7,74.3 63.1,142.9 102.7,211.4 181.9,211.4 221.4,142.9 	"/>
	<g>
		<g>
			<g class="st0">
				<defs>
					<filter id="Adobe_OpacityMaskFilter" filterUnits="userSpaceOnUse" x="7.9" y="17.5" width="180.2" height="264.3">
						<feFlood  style="flood-color:white;flood-opacity:1" result="back"/>
						<feBlend  in="SourceGraphic" in2="back" mode="normal"/>
					</filter>
				</defs>
				<mask maskUnits="userSpaceOnUse" x="7.9" y="17.5" width="180.2" height="264.3" id="SVGID_1_" class="st17">
					<g style="filter:url(#Adobe_OpacityMaskFilter);">
						
							<image style="overflow:visible;" width="769" height="1119" xlink:href="6F7931DA.jpg"  transform="matrix(0.24 0 0 0.24 5.6785 15.36)">
						</image>
					</g>
				</mask>
				<g class="st8">
					<g>
						<g>
							<g>
								<path d="M143.6,17.5C91.3,19.8,46.4,48.2,23.8,89l0,0h164.3L143.6,17.5z"/>
								<path d="M23.7,89.2c-24,43.2-19.9,93.4,6.9,131.9l0,0l82.2-131.9H23.7z"/>
								<path d="M30.8,221.2c28.3,40.8,77.3,62.6,126.7,60.4l0,0L75.3,149.7L30.8,221.2z"/>
							</g>
						</g>
					</g>
				</g>
			</g>
			<g>
				
					<image style="overflow:visible;opacity:0.43;" width="736" height="372" xlink:href="6F7931DE.png"  transform="matrix(0.24 0 0 0.24 16.7185 0)">
				</image>
				<g>
					<path class="st9" d="M135.6,1.1C83.3,3.7,38.5,34.3,15.8,78.3h0h164.3L135.6,1.1z"/>
				</g>
			</g>
			<path class="st10" d="M15.8,78.4c-24,46.6-19.9,100.7,6.9,142.3l0,0l82.2-142.3L15.8,78.4z"/>
			<path class="st11" d="M22.8,220.8c28.3,44,77.3,67.6,126.7,65.2l0,0L67.4,143.7L22.8,220.8z"/>
		</g>
		<path class="st12" d="M149.7,286c52.3-2.5,97.2-33.2,119.8-77.2h0H105.1L149.7,286z"/>
		<path class="st13" d="M269.5,208.7c24-46.6,19.9-100.7-6.9-142.3l0,0l-82.2,142.3L269.5,208.7z"/>
		<path class="st14" d="M262.5,66.2c-28.3-44-77.3-67.6-126.7-65.2l0,0l82.2,142.3L262.5,66.2z"/>
	</g>
	<path class="st15" d="M262.5,66.2l-120,75.8l72.4-121.5C233.5,31.2,251,47.4,262.5,66.2"/>
</g>
<g id="Camada_3" class="st0">
	<g>
		<path class="st16" d="M144.7,5.6c16.8,0,33.5,3.1,49.6,9.2c15.8,6,31.1,14.9,45.4,26.4c28.8,23.2,53.4,56.7,71.3,96.9
			c0.1,0.2,0.1,0.8,0,1c-17.4,43-42.3,78.9-72,103.8c-29.8,25.1-63.9,38.4-98.3,38.4c-16.8,0-33.5-3.1-49.6-9.2
			c-15.8-6-31.1-14.9-45.4-26.5c-28.8-23.2-53.4-56.7-71.3-97c-0.1-0.2-0.1-0.8,0-1C-8.2,104.9,16.7,69,46.3,44
			C76.2,18.9,110.2,5.6,144.7,5.6 M144.7-7.4C66.8-7.4-1.2,53-37.7,142.9c-1.4,3.5-1.4,7.7,0.2,11.1
			c37.4,84.4,103.2,140.4,178.2,140.4c77.9,0,145.9-60.4,182.4-150.3c1.4-3.5,1.4-7.7-0.2-11.1C285.5,48.6,219.6-7.4,144.7-7.4
			L144.7-7.4z"/>
	</g>
	<g>
		<g class="st17">
			<path class="st15" d="M358.4,127.1v2.1c8.9,0,15.6,2.6,20.6,7.9c4.8,5.3,7.3,13.4,7.3,24.3c0,12.4-3.1,21.1-9.3,26.3
				c-6.3,5.2-16.4,7.7-30.6,7.7c-13.1,0-24.8-1.3-35.3-3.9c-2.7-0.6-4.4-2.9-4-5.8l2.4-26.8c0.3-2.9,2.7-5.2,5.6-5.2h17.2v-2.1
				c-8.1,0-14.7-2.6-19.8-7.6c-5.2-5-7.7-12.6-7.7-23c0-12.4,3.2-21.1,9.8-26.3c6.6-5,17.6-7.6,33.2-7.6c10.6,0,21,1.1,30.9,3.4
				c2.9,0.6,4.5,3.1,4.2,5.8l-2.3,25.5c-0.3,2.9-2.7,5.2-5.6,5.2H358.4z"/>
		</g>
		<g class="st17">
			<path class="st15" d="M397.8,115c6.1-6.6,16.8-10,32.1-10c8.5,0,15.5,1.3,21,4c5.3,2.7,9.2,6.4,11.3,11.4
				c2.1,5,3.1,10.5,3.1,16.4c-0.2,5-0.8,10.6-2.3,16.6c-0.6,2.4-2.9,4-5.3,4h-28.9v2.1h27.9c2.9,0,5.3,2.3,5.6,5.2l1.8,21.4
				c0.2,2.7-1.3,5.2-4,5.8c-10,2.3-21.1,3.4-33.5,3.4c-13.4,0-22.9-3.4-28.9-10s-9-18.2-9-34.8C388.6,133.7,391.6,121.8,397.8,115z
				 M427.7,142.9h2.3v-11.6h-2.3V142.9z"/>
		</g>
		<g class="st17">
			<path class="st15" d="M475.6,115c6.1-6.6,16.8-10,32.1-10c8.5,0,15.5,1.3,21,4c5.3,2.7,9.2,6.4,11.3,11.4
				c2.1,5,3.1,10.5,3.1,16.4c-0.2,5-0.8,10.6-2.3,16.6c-0.6,2.4-2.9,4-5.3,4h-28.9v2.1h27.9c2.9,0,5.3,2.3,5.6,5.2l1.8,21.4
				c0.2,2.7-1.3,5.2-4,5.8c-10,2.3-21.1,3.4-33.5,3.4c-13.4,0-22.9-3.4-28.9-10s-9-18.2-9-34.8C466.4,133.7,469.5,121.8,475.6,115z
				 M505.6,142.9h2.3v-11.6h-2.3V142.9z"/>
		</g>
		<g class="st17">
			<path class="st15" d="M545.2,94.9c0-3.1,2.3-5.5,5.3-5.6l35.3-2.3c3.5-0.2,6.3,2.3,6.3,5.8v13.7c0,0.6,0,1.3-0.3,1.8l-12.1,26.1
				h2.4l11-23.9c0.8-1.8,2.6-3.1,4.5-3.1h19.5c3.2,0,5.8,2.6,5.8,5.8v25.1c0,1.1-0.5,2.3-1.3,3.2l-7.9,8.1l7.9,8.5
				c0.8,0.8,1.3,1.9,1.3,3.1v25.9c0,3.2-2.6,5.8-5.8,5.8h-21.4c-2.3,0-4.2-1.1-5-3.4l-8.4-23.5h-2.4l6.6,18.2
				c1.6,4.7-1.3,8.7-6.1,8.7H551c-3.2,0-5.8-2.6-5.8-5.8V94.9z"/>
		</g>
	</g>
	<g>
		<path class="st16" d="M347.8,90.3c10.4,0,20.6,1.1,30.3,3.3c1.3,0.3,2,1.2,1.9,2.5l0,0l0,0l-2.3,25.4c-0.2,1.4-1.3,2.5-2.7,2.5
			h-16.6h-3v3v2.1v3h3c8,0,14,2.3,18.4,6.9c4.3,4.7,6.5,12.2,6.5,22.3c0,11.6-2.7,19.4-8.3,24c-5.7,4.7-15.4,7.1-28.7,7.1
			c-12.8,0-24.4-1.3-34.6-3.8c-1.3-0.3-1.9-1.2-1.7-2.6l0,0l0,0l2.4-26.7c0.2-1.4,1.3-2.5,2.7-2.5h17.2h3v-3v-2.1v-3h-3
			c-7.2,0-13.1-2.3-17.7-6.7c-4.6-4.4-6.8-11.3-6.8-20.9c0-11.5,2.8-19.3,8.6-23.9C322.5,92.6,333.1,90.3,347.8,90.3 M347.8,87.3
			c-15.6,0-26.6,2.6-33.2,7.6c-6.6,5.2-9.8,13.9-9.8,26.3c0,10.5,2.6,18.1,7.7,23c5.2,5,11.8,7.6,19.8,7.6v2.1h-17.2
			c-2.9,0-5.3,2.3-5.6,5.2l-2.4,26.8c-0.3,2.9,1.3,5.2,4,5.8c10.5,2.6,22.2,3.9,35.3,3.9c14.2,0,24.3-2.6,30.6-7.7
			c6.3-5.2,9.3-13.9,9.3-26.3c0-11-2.4-19-7.3-24.3c-5-5.3-11.8-7.9-20.6-7.9v-2.1H375c2.9,0,5.3-2.3,5.6-5.2l2.3-25.5
			c0.3-2.7-1.3-5.2-4.2-5.8C368.7,88.4,358.4,87.3,347.8,87.3L347.8,87.3z"/>
		<path class="st16" d="M429.8,108c8.2,0,14.6,1.2,19.6,3.7c4.9,2.5,8.1,5.8,9.9,9.9c1.9,4.5,2.8,9.5,2.8,15.2
			c-0.2,5.4-0.9,10.7-2.2,15.9c-0.3,1-1.3,1.8-2.4,1.8h-28.9h-3v3v2.1v3h3h27.9c1.3,0,2.5,1.1,2.7,2.5l1.8,21.3
			c0,0.7-0.1,2.3-1.7,2.7c-9.7,2.2-20.8,3.3-32.9,3.3c-12.3,0-21.2-3-26.6-9c-5.5-6.1-8.3-17.1-8.3-32.8c0-16.1,2.8-27.4,8.4-33.6
			C405.5,111,415.6,108,429.8,108 M424.7,145.9h3h2.3h3v-3v-11.6v-3h-3h-2.3h-3v3v11.6V145.9 M429.8,105c-15.3,0-25.9,3.4-32.1,10
			c-6.1,6.8-9.2,18.7-9.2,35.6c0,16.6,3.1,28.2,9,34.8s15.5,10,28.9,10c12.4,0,23.5-1.1,33.5-3.4c2.7-0.6,4.2-3.1,4-5.8l-1.8-21.4
			c-0.3-2.9-2.7-5.2-5.6-5.2h-27.9v-2.1h28.9c2.4,0,4.7-1.6,5.3-4c1.5-6,2.1-11.6,2.3-16.6c0-6-1-11.4-3.1-16.4
			c-2.1-5-6-8.7-11.3-11.4C445.3,106.3,438.4,105,429.8,105L429.8,105z M427.7,142.9v-11.6h2.3v11.6H427.7L427.7,142.9z"/>
		<path class="st16" d="M507.7,108c8.2,0,14.6,1.2,19.6,3.7c4.9,2.5,8.1,5.8,9.9,9.9c1.9,4.5,2.8,9.5,2.8,15.2
			c-0.2,5.4-0.9,10.7-2.2,15.9c-0.3,1-1.3,1.8-2.4,1.8h-28.9h-3v3v2.1v3h3h27.9c1.3,0,2.5,1.1,2.7,2.5l1.8,21.3
			c0,0.7-0.1,2.3-1.7,2.7c-9.7,2.2-20.8,3.3-32.9,3.3c-12.3,0-21.2-3-26.6-9c-5.5-6.1-8.3-17.1-8.3-32.8c0-16.1,2.8-27.4,8.4-33.6
			C483.4,111,493.4,108,507.7,108 M502.6,145.9h3h2.3h3v-3v-11.6v-3h-3h-2.3h-3v3v11.6V145.9 M507.7,105c-15.3,0-25.9,3.4-32.1,10
			c-6.1,6.8-9.2,18.7-9.2,35.6c0,16.6,3.1,28.2,9,34.8s15.5,10,28.9,10c12.4,0,23.5-1.1,33.5-3.4c2.7-0.6,4.2-3.1,4-5.8l-1.8-21.4
			c-0.3-2.9-2.7-5.2-5.6-5.2h-27.9v-2.1h28.9c2.4,0,4.7-1.6,5.3-4c1.5-6,2.1-11.6,2.3-16.6c0-6-1-11.4-3.1-16.4
			c-2.1-5-6-8.7-11.3-11.4C523.2,106.3,516.2,105,507.7,105L507.7,105z M505.6,142.9v-11.6h2.3v11.6H505.6L505.6,142.9z"/>
		<path class="st16" d="M586.2,89.9c1.8,0,3,1.1,3,2.8v13.7c0,0.1,0,0.3,0,0.4l0,0.1L577,133.1l-2,4.3h4.7h2.4h1.9l0.8-1.7l11-23.9
			c0.3-0.8,1.1-1.3,1.8-1.3h19.5c1.6,0,2.8,1.2,2.8,2.8v25.1c0,0.4-0.2,0.8-0.5,1.2l-7.8,8l-2,2l1.9,2.1l7.9,8.5l0,0l0,0
			c0.2,0.2,0.4,0.6,0.4,0.9v25.9c0,1.6-1.2,2.8-2.8,2.8h-21.4c-1.7,0-2-1-2.2-1.4l-8.4-23.5l-0.7-2h-2.1h-2.4h-4.3l1.5,4l6.6,18.2
			c0.5,1.3,0.4,2.5-0.3,3.4c-0.6,0.9-1.7,1.3-3,1.3H551c-1.6,0-2.8-1.2-2.8-2.8V94.9c0-1.5,1-2.6,2.5-2.6L586,90
			C586.1,90,586.1,89.9,586.2,89.9 M586.2,86.9c-0.1,0-0.2,0-0.3,0l-35.3,2.3c-3.1,0.2-5.3,2.6-5.3,5.6v92.4c0,3.2,2.6,5.8,5.8,5.8
			h29.3c4.8,0,7.7-4,6.1-8.7l-6.6-18.2h2.4l8.4,23.5c0.8,2.3,2.7,3.4,5,3.4h21.4c3.2,0,5.8-2.6,5.8-5.8v-25.9c0-1.1-0.5-2.3-1.3-3.1
			l-7.9-8.5l7.9-8.1c0.8-1,1.3-2.1,1.3-3.2v-25.1c0-3.2-2.6-5.8-5.8-5.8h-19.5c-1.9,0-3.7,1.3-4.5,3.1l-11,23.9h-2.4l12.1-26.1
			c0.3-0.5,0.3-1.1,0.3-1.8V92.8C592.1,89.3,589.6,86.9,586.2,86.9L586.2,86.9z"/>
	</g>
	<g class="st17">
		<g>
			<path class="st15" d="M376.8,139.1c-4.4-4.6-10.4-6.9-18.4-6.9h-3v-8.1H375c1.3,0,2.5-1.1,2.6-2.5l2.3-25.4v-0.1
				c0.2-1.3-0.5-2.2-1.9-2.5c-9.7-2.2-19.9-3.3-30.3-3.3c-14.7,0-25.3,2.3-31.4,7c-5.8,4.5-8.6,12.4-8.6,23.9
				c0,9.6,2.2,16.4,6.8,20.9c4.6,4.5,10.6,6.7,17.7,6.7h3v8.1h-20.2c-1.3,0-2.5,1.1-2.7,2.5L310,186l0,0v0c-0.1,1.4,0.5,2.2,1.7,2.5
				c10.2,2.5,21.9,3.8,34.6,3.8c13.3,0,23-2.4,28.7-7.1c5.5-4.5,8.2-12.4,8.2-23.9C383.3,151.3,381.1,143.8,376.8,139.1z"/>
		</g>
		<g>
			<path class="st15" d="M459.2,165.1c-0.2-1.4-1.3-2.5-2.7-2.5h-30.9v-8.1h31.8c1.1,0,2.1-0.7,2.4-1.8c1.3-5.2,2-10.5,2.2-15.9
				c0-5.7-0.9-10.7-2.8-15.2c-1.8-4.1-5-7.4-9.9-9.9c-5-2.5-11.4-3.7-19.6-3.7c-14.3,0-24.3,3-29.9,9c-5.5,6.1-8.4,17.5-8.4,33.6
				c0,15.7,2.8,26.7,8.2,32.8c5.4,6,14.4,9,26.6,9c12.1,0,23.1-1.1,32.9-3.3c1.6-0.4,1.7-2,1.7-2.7L459.2,165.1z M424.7,128.3h8.3
				v17.6h-8.3V128.3z"/>
		</g>
		<g>
			<path class="st15" d="M537.1,165.1c-0.2-1.4-1.3-2.5-2.7-2.5h-30.9v-8.1h31.9c1.1,0,2.1-0.7,2.4-1.8c1.3-5.2,2-10.5,2.2-15.9
				c0-5.7-0.9-10.7-2.8-15.2c-1.8-4.1-5-7.4-9.9-9.9c-5-2.5-11.4-3.7-19.6-3.7c-14.3,0-24.3,3-29.9,9c-5.5,6.1-8.4,17.5-8.4,33.6
				c0,15.7,2.8,26.7,8.2,32.8c5.4,6,14.3,9,26.6,9c12.1,0,23.1-1.1,32.9-3.3c1.6-0.4,1.7-2,1.7-2.7L537.1,165.1z M502.6,128.3h8.3
				v17.6h-8.3V128.3z"/>
		</g>
		<g>
			<path class="st15" d="M619.4,139.6c0.3-0.4,0.5-0.9,0.5-1.2v-25.1c0-1.6-1.2-2.8-2.8-2.8h-19.5c-0.7,0-1.4,0.5-1.8,1.3l-11,23.9
				l-0.8,1.7h-9l2-4.3l12.1-26.1l0-0.1c0-0.1,0-0.3,0-0.4V92.8c0-1.7-1.2-2.8-3-2.8H586l-35.3,2.3c-1.5,0.1-2.5,1.2-2.5,2.6v92.4
				c0,1.6,1.2,2.8,2.8,2.8h29.3c1.3,0,2.4-0.5,3-1.3c0.6-0.9,0.7-2.1,0.3-3.4l-6.6-18.2l-1.5-4h8.8l0.7,2l8.4,23.5
				c0.1,0.3,0.5,1.4,2.2,1.4h21.4c1.6,0,2.8-1.2,2.8-2.8v-26c0-0.3-0.2-0.7-0.4-0.9l0,0l0,0l-7.9-8.5l-1.9-2.1l2-2L619.4,139.6z"/>
		</g>
	</g>
</g>
</svg>
