<svg width="73" height="32" viewBox="0 0 73 32" fill="none" xmlns="http://www.w3.org/2000/svg">
<path d="M26.0408 30.424V25.248H24.2578V24.2832H28.9707V25.248H27.2023V30.424H26.0408Z" fill="#5F6368"/>
<path d="M31.8386 30.4232V29.9192L31.3753 30.1672C30.9626 30.3816 30.6428 30.4808 30.2056 30.4808C29.4145 30.4808 28.8843 29.9768 28.8843 29.2424C28.8843 28.3352 29.6086 27.9144 30.5254 27.9144H31.8468V27.6584C31.8468 27.0968 31.5189 26.8248 30.9381 26.8248C30.3329 26.8248 29.9789 27.0728 29.9789 27.5848H28.9854V27.5272C28.9854 26.5448 29.7766 25.9912 30.93 25.9912C32.142 25.9912 32.8402 26.5848 32.8402 27.6248V30.4232H31.8386ZM31.8386 28.6232H30.6608C30.0458 28.6232 29.9039 28.9032 29.9039 29.1928C29.9039 29.4984 30.098 29.6792 30.434 29.6792C30.7114 29.6792 30.9479 29.5976 31.1991 29.4648L31.8386 29.1256V28.6232Z" fill="#5F6368"/>
<path d="M36.778 31.942V29.9452L36.274 30.2172C35.9298 30.398 35.6084 30.4732 35.2805 30.4732C34.3637 30.4732 33.7568 29.87 33.7568 28.9868V27.526C33.7568 26.6428 34.38 26.0156 35.2968 26.0156C35.6084 26.0156 35.9281 26.0892 36.274 26.2716L36.7878 26.5436V26.0732H37.7813V31.942H36.778ZM36.778 27.4684L36.0717 27.0812C35.8857 26.982 35.6851 26.9164 35.4485 26.9164C35.0276 26.9164 34.7503 27.198 34.7503 27.6268V28.8652C34.7503 29.294 35.0276 29.5756 35.4485 29.5756C35.6851 29.5756 35.8857 29.51 36.0717 29.4012L36.778 29.022V27.4684Z" fill="#5F6368"/>
<path d="M41.6657 30.4233V29.9193L41.1942 30.1913C40.8826 30.3817 40.5629 30.4713 40.2089 30.4713C39.3427 30.4713 38.8125 29.9017 38.8125 29.0601V26.0713H39.8386V28.9353C39.8386 29.3145 40.0654 29.5705 40.4275 29.5705C40.6461 29.5705 40.8223 29.4873 41.0083 29.3801L41.6559 29.0089V26.0713H42.6738V30.4217H41.6657V30.4233Z" fill="#5F6368"/>
<path d="M46.5222 30.4232V29.9192L46.0589 30.1672C45.6462 30.3816 45.3264 30.4808 44.8892 30.4808C44.0981 30.4808 43.5679 29.9768 43.5679 29.2424C43.5679 28.3352 44.2922 27.9144 45.209 27.9144H46.5304V27.6584C46.5304 27.0968 46.2025 26.8248 45.6217 26.8248C45.0149 26.8248 44.6625 27.0728 44.6625 27.5848H43.669V27.5272C43.669 26.5448 44.4602 25.9912 45.6135 25.9912C46.8256 25.9912 47.5238 26.5848 47.5238 27.6248V30.4232H46.5222ZM46.5222 28.6232H45.3444C44.7294 28.6232 44.5874 28.9032 44.5874 29.1928C44.5874 29.4984 44.7816 29.6792 45.1176 29.6792C45.395 29.6792 45.6315 29.5976 45.8843 29.4648L46.5238 29.1256V28.6232H46.5222Z" fill="#5F6368"/>
<path d="M48.5317 30.424V26.0736H49.5497V26.6928L49.7422 26.5024C50.0701 26.1968 50.3996 26.04 50.8368 26.04H51.0978V27.0544H50.845C50.4583 27.0544 50.2055 27.1296 49.9102 27.352L49.566 27.632V30.4224H48.5317V30.424Z" fill="#5F6368"/>
<path d="M52.8729 24.9004C52.8729 25.206 52.6282 25.3708 52.2922 25.3708C51.9643 25.3708 51.7114 25.206 51.7114 24.9004V24.7196C51.7114 24.406 51.9643 24.2412 52.2922 24.2412C52.6282 24.2412 52.8729 24.406 52.8729 24.7196V24.9004ZM51.7718 26.0732H52.8158V30.4236H51.7718V26.0732Z" fill="#5F6368"/>
<path d="M55.8942 30.4238C54.8681 30.4238 54.2025 29.9198 54.2025 28.9294V26.923H53.5288V26.0734H54.2025V24.8926H55.2466V26.0734H56.475V26.923H55.2466V28.8702C55.2466 29.3822 55.4815 29.555 55.9791 29.555H56.5011V30.4222H55.8942V30.4238Z" fill="#5F6368"/>
<path d="M58.4178 24.9004C58.4178 25.206 58.1731 25.3708 57.8371 25.3708C57.5092 25.3708 57.2563 25.206 57.2563 24.9004V24.7196C57.2563 24.406 57.5092 24.2412 57.8371 24.2412C58.1731 24.2412 58.4178 24.406 58.4178 24.7196V24.9004ZM57.3167 26.0732H58.3608V30.4236H57.3167V26.0732Z" fill="#5F6368"/>
<path d="M62.2727 30.4234V27.5674C62.2727 27.2378 62.0884 26.9242 61.6838 26.9242C61.4571 26.9242 61.289 27.0074 61.1031 27.1146L60.4554 27.4938V30.4234H59.4375V26.073H60.4473V26.585L60.9187 26.305C61.2548 26.0986 61.5664 26.033 61.9024 26.0234C62.7687 26.0234 63.2988 26.593 63.2988 27.4346V30.4218H62.2727V30.4234Z" fill="#5F6368"/>
<path d="M65.2172 28.846C65.0149 28.846 64.9137 28.9372 64.9137 29.1356C64.9137 29.31 65.023 29.4076 65.1992 29.4076H66.9154C67.9415 29.4076 68.5059 29.7948 68.5059 30.6044C68.5059 31.5116 67.6723 31.9996 66.47 31.9996C65.1062 31.9996 64.4929 31.3964 64.4929 30.3484V29.9116C64.2155 29.7884 64.0557 29.5404 64.0557 29.1356C64.0557 28.6652 64.3085 28.3852 64.6527 28.294C64.6527 28.294 64.333 28.046 64.333 27.4684C64.333 26.5436 64.9888 26.0732 65.9659 26.0732H68.532V26.9148H67.9007C67.9007 26.9148 68.1193 27.0892 68.1193 27.51C68.1193 28.3436 67.4961 28.8476 66.5124 28.8476H65.2172V28.846ZM66.3705 28.1196C66.9088 28.1196 67.2123 27.9212 67.2123 27.4764C67.2123 27.0476 66.9349 26.8412 66.4553 26.8412H66.0687C65.5891 26.8412 65.2938 26.99 65.2938 27.4924C65.2938 27.9292 65.5712 28.1196 66.0508 28.1196H66.3705ZM65.4015 30.142V30.3228C65.4015 30.9164 65.6544 31.2476 66.4537 31.2476C67.1601 31.2476 67.5304 31.0572 67.5304 30.6284C67.5304 30.2572 67.2351 30.142 66.7734 30.142H65.4015Z" fill="#5F6368"/>
<path d="M71.9983 30.4232V29.9192L71.535 30.1672C71.1223 30.3816 70.8025 30.4808 70.3653 30.4808C69.5741 30.4808 69.0439 29.9768 69.0439 29.2424C69.0439 28.3352 69.7683 27.9144 70.6851 27.9144H72.0064V27.6584C72.0064 27.0968 71.6785 26.8248 71.0978 26.8248C70.4926 26.8248 70.1386 27.0728 70.1386 27.5848H69.1451V27.5272C69.1451 26.5448 69.9363 25.9912 71.0896 25.9912C72.3017 25.9912 72.9999 26.5848 72.9999 27.6248V30.4232H71.9983ZM71.9983 28.6232H70.8205C70.2054 28.6232 70.0635 28.9032 70.0635 29.1928C70.0635 29.4984 70.2576 29.6792 70.5937 29.6792C70.871 29.6792 71.1059 29.5976 71.3588 29.4648L71.9983 29.1256V28.6232Z" fill="#5F6368"/>
<path d="M3.88255 12.392V21.1456H0V0H13.9967V3.3552H3.88255V9.0368H13.1272V12.392H3.88255Z" fill="#5F6368"/>
<path d="M72.9462 15.6899C72.9462 19.4403 70.3068 21.4019 66.3361 21.4019C62.3965 21.4019 59.7603 19.2707 59.7603 15.5475V11.8243C59.7603 8.10105 62.3965 5.93945 66.3361 5.93945C70.3068 5.93945 72.9462 7.92825 72.9462 11.6819V11.9379H69.5563C69.5563 9.80505 68.3655 8.92505 66.3361 8.92505C64.3377 8.92505 63.1795 9.94585 63.1795 12.1075V15.2323C63.1795 17.3939 64.3394 18.4163 66.3361 18.4163C68.3655 18.4163 69.5563 17.5651 69.5563 15.4323H72.9462V15.6899Z" fill="#5F6368"/>
<path d="M25.7714 21.1458V19.413L24.1776 20.2658C22.7583 21.005 21.6572 21.3474 20.1482 21.3474C17.4255 21.3474 15.6001 19.613 15.6001 17.0834C15.6001 13.957 18.0928 12.5058 21.2526 12.5058H25.8024V11.6258C25.8024 9.69144 24.6702 8.75384 22.6702 8.75384C20.5838 8.75384 19.3668 9.60664 19.3668 11.3666H15.9476V11.1698C15.9476 7.78584 18.6735 5.88184 22.6425 5.88184C26.8154 5.88184 29.2216 7.92664 29.2216 11.5074V21.1426H25.7714V21.1458ZM25.7714 14.949H21.7159C19.6001 14.949 19.1058 15.9154 19.1058 16.9106C19.1058 17.9618 19.7714 18.5874 20.9329 18.5874C21.8888 18.5874 22.6996 18.3026 23.5707 17.8482L25.7714 16.6834V14.949Z" fill="#5F6368"/>
<path d="M39.3146 21.1457C35.7779 21.1457 33.4892 19.4129 33.4892 16.0017V9.09454H31.1694V6.16654H33.4892V2.10254H37.0813V6.16654H41.3114V9.09454H37.0813V15.8017C37.0813 17.5649 37.8937 18.1617 39.6001 18.1617H41.3994V21.1457H39.3146Z" fill="#5F6368"/>
<path d="M56.708 16.4291C56.708 19.4707 54.0408 21.4035 50.0131 21.4035C46.0735 21.4035 43.2627 19.2995 43.2627 15.6339V12.0803C43.2627 8.29945 46.0718 5.93945 50.0131 5.93945C53.9837 5.93945 56.7358 8.18585 56.7358 12.1379V14.7795H46.5939V15.5187C46.5939 17.6515 48.0425 18.5891 50.0408 18.5891C52.0147 18.5891 53.3459 17.9075 53.3459 16.2867H56.708V16.4291ZM53.4324 12.0803C53.4324 9.94745 52.1583 8.78265 50.0408 8.78265C47.8989 8.78265 46.5939 9.94745 46.5939 12.1091V12.4771H53.4324V12.0803Z" fill="#5F6368"/>
</svg>
