<?xml version="1.0" encoding="UTF-8"?>
<svg id="Camada_1" xmlns="http://www.w3.org/2000/svg" version="1.1" viewBox="0 0 124 124">
  <!-- Generator: Adobe Illustrator 29.0.0, SVG Export Plug-In . SVG Version: 2.1.0 Build 186)  -->
  <defs>
    <style>
      .st0, .st1 {
        fill: #fff;
      }

      .st1 {
        fill-rule: evenodd;
      }
    </style>
  </defs>
  <path class="st0" d="M62,10.3c28.5,0,51.7,23.2,51.7,51.7s-23.2,51.7-51.7,51.7S10.3,90.5,10.3,62,33.5,10.3,62,10.3ZM62,0C27.8,0,0,27.8,0,62s27.8,62,62,62,62-27.8,62-62S96.2,0,62,0Z"/>
  <path class="st0" d="M45.8,50c2.3,0,4.2-1.9,4.2-4.2s-1.9-4.2-4.2-4.2-4.2,1.9-4.2,4.2,1.9,4.2,4.2,4.2Z"/>
  <path class="st0" d="M41.6,55.7c0-1.6,1.3-2.8,2.8-2.8h2.8c1.6,0,2.8,1.3,2.8,2.8v22.5c0,1.6-1.3,2.8-2.8,2.8h-2.8c-1.6,0-2.8-1.3-2.8-2.8v-22.5Z"/>
  <path class="st0" d="M58.5,81h2.8c1.6,0,2.8-1.3,2.8-2.8v-12.7c0-4.2,8.5-7,8.5-1.4v14.1c0,1.6,1.3,2.8,2.8,2.8h2.8c1.6,0,2.8-1.3,2.8-2.8v-16.9c0-5.6-4.2-8.5-9.9-8.5s-7,4.2-7,4.2v-1.4c0-1.6-1.3-2.8-2.8-2.8h-2.8c-1.6,0-2.8,1.3-2.8,2.8v22.5c0,1.6,1.3,2.8,2.8,2.8Z"/>
  <path class="st1" d="M83.8,30.3c4.7,0,8.5,3.8,8.5,8.5v45.1c0,4.7-3.8,8.5-8.5,8.5h-45.1c-4.7,0-8.5-3.8-8.5-8.5v-45.1c0-4.7,3.8-8.5,8.5-8.5h45.1ZM83.8,35.9c1.6,0,2.8,1.3,2.8,2.8v45.1c0,1.6-1.3,2.8-2.8,2.8h-45.1c-1.6,0-2.8-1.3-2.8-2.8v-45.1c0-1.6,1.3-2.8,2.8-2.8h45.1Z"/>
</svg>