<svg width="18" height="19" viewBox="0 0 18 19" fill="none" xmlns="http://www.w3.org/2000/svg">
<path d="M6.76364 9.92598L7.03361 9.48251C7.20836 9.58894 7.30431 9.78799 7.27866 9.99098C7.25312 10.1939 7.11076 10.3629 6.91503 10.4226L6.76364 9.92598ZM11.6159 9.92598L11.4645 10.4226C11.2688 10.3629 11.1264 10.1939 11.1008 9.99098C11.0752 9.78799 11.1712 9.58894 11.3459 9.48251L11.6159 9.92598ZM5.03637 5.93192C5.03637 7.43542 5.83496 8.75287 7.03361 9.48251L6.49368 10.3695C4.99848 9.45925 3.99803 7.81266 3.99803 5.93192H5.03637ZM9.18972 1.77857C6.89594 1.77857 5.03637 3.63809 5.03637 5.93192H3.99803C3.99803 3.06463 6.32247 0.740234 9.18972 0.740234V1.77857ZM13.3431 5.93192C13.3431 3.63809 11.4836 1.77857 9.18972 1.77857V0.740234C12.057 0.740234 14.3814 3.06463 14.3814 5.93192H13.3431ZM11.3459 9.48251C12.5445 8.75287 13.3431 7.43543 13.3431 5.93192H14.3814C14.3814 7.81266 13.381 9.45925 11.8858 10.3695L11.3459 9.48251ZM11.7673 9.42935C15.0451 10.4288 17.5135 13.2838 17.9476 16.7724L16.9172 16.9006C16.5345 13.8251 14.3567 11.3045 11.4645 10.4226L11.7673 9.42935ZM17.9476 16.7724C18.0624 17.6944 17.2986 18.392 16.4581 18.392V17.3536C16.7646 17.3536 16.9441 17.1168 16.9172 16.9006L17.9476 16.7724ZM16.4581 18.392H1.92136V17.3536H16.4581V18.392ZM1.92136 18.392C1.08093 18.392 0.317131 17.6944 0.431868 16.7724L1.46231 16.9006C1.43542 17.1168 1.61495 17.3536 1.92136 17.3536V18.392ZM0.431868 16.7724C0.865993 13.2838 3.33445 10.4288 6.61226 9.42935L6.91503 10.4226C4.02286 11.3045 1.84504 13.8251 1.46231 16.9006L0.431868 16.7724Z" fill="#0E0E0E"/>
</svg>
