<svg width="588" height="493" viewBox="0 0 588 493" fill="none" xmlns="http://www.w3.org/2000/svg">
<path d="M102.788 491.63L102.309 489.474L3.2319 34.4286C1.89043 28.2961 6.53767 22.499 12.8138 22.499H23.9768L562.05 470.023L565.596 486.265L565.835 489.474H101.83" fill="#0E0E0E"/>
<path d="M102.788 491.63L102.309 489.474L3.2319 34.4286C1.89043 28.2961 6.53767 22.499 12.8138 22.499H23.9768L562.05 470.023L565.596 486.265L565.835 489.474H101.83" stroke="#1D1D1B" stroke-width="4.79097" stroke-miterlimit="10"/>
<path d="M120.995 470.023H585L584.761 466.813L485.444 10.7614C484.438 6.25791 480.461 3 475.814 3H31.9788C25.7027 3 21.0554 8.7971 22.349 14.9295L121.905 472.131" fill="white"/>
<path d="M120.995 470.023H585L584.761 466.813L485.444 10.7614C484.438 6.25791 480.461 3 475.814 3H31.9788C25.7027 3 21.0554 8.7971 22.349 14.9295L121.905 472.131" stroke="#1D1D1B" stroke-width="4.79097" stroke-miterlimit="10"/>
<path d="M100.681 30.3572L158.651 296.639C159.322 299.61 161.957 301.765 165.023 301.765H483.623C487.791 301.765 490.857 297.933 489.995 293.86L432.024 27.5784C431.353 24.608 428.718 22.4521 425.652 22.4521H107.053C102.884 22.4521 99.8182 26.2849 100.681 30.3572Z" fill="#2B63F0"/>
</svg>
