<svg width="584" height="379" viewBox="0 0 584 379" fill="none" xmlns="http://www.w3.org/2000/svg">
<path d="M45.331 44H29.3837C14.2623 44 2 56.2581 2 71.3107V349.689C2 364.805 14.2623 377 29.3837 377H519.939C530.486 377 539 368.489 539 357.946V346.895" fill="#0E0E0E"/>
<path d="M45.331 44H29.3837C14.2623 44 2 56.2581 2 71.3107V349.689C2 364.805 14.2623 377 29.3837 377H519.939C530.486 377 539 368.489 539 357.946V346.895" stroke="#0E0E0E" stroke-width="3.21242" stroke-miterlimit="10"/>
<path d="M562.937 14H175.063C164.535 14 156 22.5308 156 33.054V327.946C156 338.469 164.535 347 175.063 347H562.937C573.465 347 582 338.469 582 327.946V33.054C582 22.5308 573.465 14 562.937 14Z" fill="white" stroke="#0E0E0E" stroke-width="3.21242" stroke-miterlimit="10"/>
<path d="M163.657 14H72.3432C57.242 14 45 26.2274 45 41.3107V319.689C45 334.773 57.242 347 72.3432 347H163.657C178.758 347 191 334.773 191 319.689V41.3107C191 26.2274 178.758 14 163.657 14Z" fill="#2B63F0" stroke="#0E0E0E" stroke-width="3.21242" stroke-miterlimit="10"/>
<path d="M369.5 321C444.335 321 505 260.335 505 185.5C505 110.665 444.335 50 369.5 50C294.665 50 234 110.665 234 185.5C234 260.335 294.665 321 369.5 321Z" fill="#0E0E0E" stroke="#0E0E0E" stroke-width="3.21242" stroke-miterlimit="10"/>
<path d="M382.5 316C457.335 316 518 255.335 518 180.5C518 105.665 457.335 45 382.5 45C307.665 45 247 105.665 247 180.5C247 255.335 307.665 316 382.5 316Z" fill="white" stroke="#0E0E0E" stroke-width="3.21242" stroke-miterlimit="10"/>
<path d="M382 292C443.856 292 494 242.08 494 180.5C494 118.92 443.856 69 382 69C320.144 69 270 118.92 270 180.5C270 242.08 320.144 292 382 292Z" fill="#0E0E0E" stroke="#0E0E0E" stroke-width="3.21242" stroke-miterlimit="10"/>
<path d="M414.5 210C450.122 210 479 181.346 479 146C479 110.654 450.122 82 414.5 82C378.878 82 350 110.654 350 146C350 181.346 378.878 210 414.5 210Z" fill="white" stroke="#0E0E0E" stroke-width="3.21242" stroke-miterlimit="10"/>
<path d="M574 2H527V14H574V2Z" fill="white" stroke="#0E0E0E" stroke-width="3.21242" stroke-miterlimit="10"/>
<path d="M144.792 49H82.2078C78.7793 49 76 51.7951 76 55.243V85.757C76 89.2049 78.7793 92 82.2078 92H144.792C148.221 92 151 89.2049 151 85.757V55.243C151 51.7951 148.221 49 144.792 49Z" fill="white"/>
<path d="M517.5 97C529.374 97 539 87.3741 539 75.5C539 63.6259 529.374 54 517.5 54C505.626 54 496 63.6259 496 75.5C496 87.3741 505.626 97 517.5 97Z" fill="#0E0E0E" stroke="#0E0E0E" stroke-width="3.21242" stroke-miterlimit="10"/>
<path d="M527 92C538.598 92 548 82.598 548 71C548 59.402 538.598 50 527 50C515.402 50 506 59.402 506 71C506 82.598 515.402 92 527 92Z" fill="white" stroke="#0E0E0E" stroke-width="3.21242" stroke-miterlimit="10"/>
</svg>
