<svg width="25" height="23" viewBox="0 0 25 23" fill="none" xmlns="http://www.w3.org/2000/svg">
<path d="M12.5 22.9375L10.6875 21.3125C8.58333 19.4167 6.84375 17.7812 5.46875 16.4062C4.09375 15.0312 3 13.7969 2.1875 12.7031C1.375 11.6094 0.807292 10.6042 0.484375 9.6875C0.161458 8.77083 0 7.83333 0 6.875C0 4.91667 0.65625 3.28125 1.96875 1.96875C3.28125 0.65625 4.91667 0 6.875 0C7.95833 0 8.98958 0.229167 9.96875 0.6875C10.9479 1.14583 11.7917 1.79167 12.5 2.625C13.2083 1.79167 14.0521 1.14583 15.0312 0.6875C16.0104 0.229167 17.0417 0 18.125 0C20.0833 0 21.7187 0.65625 23.0312 1.96875C24.3437 3.28125 25 4.91667 25 6.875C25 7.83333 24.8385 8.77083 24.5156 9.6875C24.1927 10.6042 23.625 11.6094 22.8125 12.7031C22 13.7969 20.9062 15.0312 19.5312 16.4062C18.1562 17.7812 16.4167 19.4167 14.3125 21.3125L12.5 22.9375ZM12.5 19.5625C14.5 17.7708 16.1458 16.2344 17.4375 14.9531C18.7292 13.6719 19.75 12.5573 20.5 11.6094C21.25 10.6615 21.7708 9.81771 22.0625 9.07812C22.3542 8.33854 22.5 7.60417 22.5 6.875C22.5 5.625 22.0833 4.58333 21.25 3.75C20.4167 2.91667 19.375 2.5 18.125 2.5C17.1458 2.5 16.2396 2.77604 15.4062 3.32812C14.5729 3.88021 14 4.58333 13.6875 5.4375H11.3125C11 4.58333 10.4271 3.88021 9.59375 3.32812C8.76042 2.77604 7.85417 2.5 6.875 2.5C5.625 2.5 4.58333 2.91667 3.75 3.75C2.91667 4.58333 2.5 5.625 2.5 6.875C2.5 7.60417 2.64583 8.33854 2.9375 9.07812C3.22917 9.81771 3.75 10.6615 4.5 11.6094C5.25 12.5573 6.27083 13.6719 7.5625 14.9531C8.85417 16.2344 10.5 17.7708 12.5 19.5625Z" fill="#F1F1F1"/>
</svg>
