<svg width="115" height="115" viewBox="0 0 115 115" fill="none" xmlns="http://www.w3.org/2000/svg">
<path d="M57.424 9.69189C83.7639 9.69189 105.193 31.1211 105.193 57.461C105.193 83.8009 83.7639 105.23 57.424 105.23C31.0841 105.23 9.6549 83.8009 9.6549 57.461C9.6549 31.1211 31.0841 9.69189 57.424 9.69189ZM57.424 0.138062C25.7674 0.138062 0.101074 25.8044 0.101074 57.461C0.101074 89.1176 25.7674 114.784 57.424 114.784C89.0807 114.784 114.747 89.1176 114.747 57.461C114.747 25.8044 89.0807 0.138062 57.424 0.138062ZM57.424 33.9682C65.0767 33.9682 65.9843 33.9968 69.0081 34.1354C76.7801 34.4888 80.401 38.1719 80.7593 45.8818C80.893 48.9056 80.9217 49.8084 80.9217 57.461C80.9217 65.1136 80.893 66.0213 80.7593 69.0403C80.401 76.7454 76.7849 80.438 69.0081 80.7915C65.9843 80.9252 65.0814 80.9587 57.424 80.9587C49.7714 80.9587 48.8638 80.93 45.8448 80.7915C38.0584 80.4332 34.4519 76.7359 34.0936 69.0403C33.9598 66.0213 33.9264 65.1136 33.9264 57.461C33.9264 49.8084 33.9598 48.9008 34.0936 45.8818C34.4471 38.1671 38.068 34.4841 45.8448 34.1306C48.8638 33.9921 49.7714 33.9682 57.424 33.9682ZM57.424 28.7995C49.6377 28.7995 48.668 28.833 45.606 28.9763C35.1923 29.454 29.4122 35.2293 28.9345 45.6429C28.796 48.7049 28.7626 49.6794 28.7626 57.461C28.7626 65.2474 28.796 66.2219 28.9345 69.2791C29.4122 79.688 35.1923 85.4729 45.606 85.9506C48.668 86.0891 49.6377 86.1225 57.424 86.1225C65.2104 86.1225 66.1849 86.0891 69.2469 85.9506C79.6415 85.4729 85.4454 79.6976 85.9136 69.2791C86.0521 66.2219 86.0855 65.2474 86.0855 57.461C86.0855 49.6794 86.0521 48.7049 85.9136 45.6429C85.4454 35.2436 79.6606 29.4492 69.2469 28.9763C66.1849 28.833 65.2104 28.7995 57.424 28.7995ZM57.424 42.7434C49.2985 42.7434 42.7064 49.3307 42.7064 57.461C42.7064 65.5913 49.2985 72.1787 57.424 72.1787C65.5496 72.1787 72.1417 65.5913 72.1417 57.461C72.1417 49.3355 65.5496 42.7434 57.424 42.7434ZM57.424 67.0149C52.1456 67.0149 47.8702 62.7395 47.8702 57.461C47.8702 52.1873 52.1456 47.9072 57.424 47.9072C62.6978 47.9072 66.9827 52.1825 66.9827 57.461C66.9827 62.7395 62.6978 67.0149 57.424 67.0149ZM72.7197 38.726C70.8233 38.726 69.2803 40.2641 69.2803 42.1654C69.2803 44.0618 70.8185 45.6047 72.7197 45.6047C74.6209 45.6047 76.1639 44.0666 76.1639 42.1654C76.1639 40.2641 74.6257 38.726 72.7197 38.726Z" fill="black"/>
</svg>
