<?xml version="1.0" encoding="UTF-8"?><svg id="Camada_1" xmlns="http://www.w3.org/2000/svg" width="43.5824" height="43.58237" xmlns:xlink="http://www.w3.org/1999/xlink" viewBox="0 0 43.5824 43.58237"><defs><style>.cls-1{fill-rule:evenodd;}.cls-1,.cls-2{fill:#fff;}.cls-1,.cls-2,.cls-3{stroke-width:0px;}.cls-3{fill:url(#Gradiente_sem_nome_3);}</style><linearGradient id="Gradiente_sem_nome_3" x1="37.51356" y1="36.77284" x2="2.49198" y2="4.08598" gradientTransform="translate(0 43.88998) scale(1 -1)" gradientUnits="userSpaceOnUse"><stop offset="0" stop-color="#5bd066"/><stop offset="1" stop-color="#27b43e"/></linearGradient></defs><path class="cls-3" d="M40.46942,21.79127c0,10.31564-8.36248,18.67822-18.67811,18.67822-3.93459,0-7.58508-1.21659-10.59573-3.29412l-6.38443,1.59605,1.67301-6.27376c-2.12439-3.03165-3.37104-6.72338-3.37104-10.7064C3.11311,11.47563,11.47566,3.11312,21.7913,3.11312s18.67811,8.36251,18.67811,18.67815Z"/><path class="cls-1" d="M21.7912,43.58237c12.03502,0,21.7912-9.75619,21.7912-21.7912S33.82621,0,21.7912,0,0,9.75625,0,21.79116c0,3.90832,1.02885,7.57621,2.83048,10.74775l-2.83048,11.04345,11.38568-2.64015c3.09209,1.68351,6.63709,2.64015,10.40552,2.64015ZM21.7912,40.23001c10.18345,0,18.43874-8.25529,18.43874-18.43885S31.97465,3.3525,21.7912,3.3525,3.35249,11.60782,3.35249,21.79116c0,3.93195,1.23066,7.57643,3.32782,10.56904l-1.65158,6.19337,6.30261-1.57559c2.97204,2.05095,6.57569,3.25203,10.45985,3.25203Z"/><path class="cls-2" d="M16.34347,11.67386c-.51799-1.04072-1.3129-.94852-2.11583-.94852-1.43496,0-3.67243,1.71875-3.67243,4.91782,0,2.62158,1.15518,5.49129,5.048,9.78436,3.75672,4.14315,8.6931,6.28631,12.79111,6.21331,4.098-.0729,4.94113-3.59943,4.94113-4.79037,0-.5278-.32767-.79112-.55322-.86275-1.39645-.67022-3.97215-1.91898-4.55818-2.1536-.58603-.23452-.89207.08281-1.08229.25541-.53138.50638-1.58487,1.99905-1.94567,2.33484-.36059.33569-.89841.16573-1.12216.03893-.82361-.33052-3.05644-1.32366-4.83616-3.04916-2.20118-2.13366-2.33041-2.86781-2.74501-3.52125-.33168-.52284-.0883-.84344.03313-.98375.47431-.5471,1.12913-1.39192,1.42283-1.81179.29349-.41987.06055-1.05728-.07944-1.45416-.60154-1.70756-1.1113-3.13693-1.52579-3.9693Z"/></svg>