<svg width="26" height="26" viewBox="0 0 26 26" fill="none" xmlns="http://www.w3.org/2000/svg">
<path d="M6.66157 12.6962L6.34882 11.1325C6.14032 11.0456 5.94485 10.9544 5.76242 10.8588C5.57998 10.7633 5.3932 10.646 5.20207 10.507L3.69045 10.9761L2.64795 9.20386L3.84682 8.16136C3.81207 7.93549 3.7947 7.70961 3.7947 7.48374C3.7947 7.25786 3.81207 7.03199 3.84682 6.80611L2.64795 5.76361L3.69045 3.99136L5.20207 4.46049C5.3932 4.32149 5.57998 4.20421 5.76242 4.10864C5.94485 4.01308 6.14032 3.92186 6.34882 3.83499L6.66157 2.27124H8.74657L9.05932 3.83499C9.26782 3.92186 9.46329 4.01308 9.64573 4.10864C9.82816 4.20421 10.0149 4.32149 10.2061 4.46049L11.7177 3.99136L12.7602 5.76361L11.5613 6.80611C11.5961 7.03199 11.6134 7.25786 11.6134 7.48374C11.6134 7.70961 11.5961 7.93549 11.5613 8.16136L12.7602 9.20386L11.7177 10.9761L10.2061 10.507C10.0149 10.646 9.82816 10.7633 9.64573 10.8588C9.46329 10.9544 9.26782 11.0456 9.05932 11.1325L8.74657 12.6962H6.66157ZM7.70407 9.56873C8.27745 9.56873 8.76829 9.36458 9.1766 8.95627C9.58491 8.54795 9.78907 8.05711 9.78907 7.48374C9.78907 6.91036 9.58491 6.41952 9.1766 6.01121C8.76829 5.60289 8.27745 5.39874 7.70407 5.39874C7.1307 5.39874 6.63985 5.60289 6.23154 6.01121C5.82323 6.41952 5.61907 6.91036 5.61907 7.48374C5.61907 8.05711 5.82323 8.54795 6.23154 8.95627C6.63985 9.36458 7.1307 9.56873 7.70407 9.56873ZM15.9919 24.1637L15.5228 21.9745C15.2274 21.8702 14.9538 21.7443 14.7018 21.5966C14.4499 21.4489 14.2023 21.2795 13.9591 21.0884L11.8741 21.766L10.4146 19.264L12.0826 17.8045C12.0478 17.4917 12.0304 17.179 12.0304 16.8662C12.0304 16.5535 12.0478 16.2407 12.0826 15.928L10.4146 14.4685L11.8741 11.9665L13.9591 12.6441C14.2023 12.453 14.4499 12.2836 14.7018 12.1359C14.9538 11.9882 15.2274 11.8622 15.5228 11.758L15.9919 9.56873H18.9109L19.3801 11.758C19.6754 11.8622 19.9491 11.9882 20.201 12.1359C20.453 12.2836 20.7006 12.453 20.9438 12.6441L23.0288 11.9665L24.4883 14.4685L22.8203 15.928C22.8551 16.2407 22.8724 16.5535 22.8724 16.8662C22.8724 17.179 22.8551 17.4917 22.8203 17.8045L24.4883 19.264L23.0288 21.766L20.9438 21.0884C20.7006 21.2795 20.453 21.4489 20.201 21.5966C19.9491 21.7443 19.6754 21.8702 19.3801 21.9745L18.9109 24.1637H15.9919ZM17.4514 19.9937C18.3202 19.9937 19.0586 19.6897 19.6667 19.0815C20.2749 18.4734 20.5789 17.735 20.5789 16.8662C20.5789 15.9975 20.2749 15.259 19.6667 14.6509C19.0586 14.0428 18.3202 13.7387 17.4514 13.7387C16.5827 13.7387 15.8443 14.0428 15.2361 14.6509C14.628 15.259 14.3239 15.9975 14.3239 16.8662C14.3239 17.735 14.628 18.4734 15.2361 19.0815C15.8443 19.6897 16.5827 19.9937 17.4514 19.9937Z" fill="#464646"/>
</svg>
