<svg width="26" height="26" viewBox="0 0 26 26" fill="none" xmlns="http://www.w3.org/2000/svg">
<g clip-path="url(#clip0_1438_10)">
<path d="M5.49027 22.1165C4.9169 22.1165 4.42605 21.9124 4.01774 21.5041C3.60943 21.0958 3.40527 20.6049 3.40527 20.0316V5.43656C3.40527 4.86319 3.60943 4.37234 4.01774 3.96403C4.42605 3.55572 4.9169 3.35156 5.49027 3.35156H20.0853C20.6586 3.35156 21.1495 3.55572 21.5578 3.96403C21.9661 4.37234 22.1703 4.86319 22.1703 5.43656V20.0316C22.1703 20.6049 21.9661 21.0958 21.5578 21.5041C21.1495 21.9124 20.6586 22.1165 20.0853 22.1165H5.49027ZM5.49027 20.0316H20.0853V5.43656H5.49027V20.0316ZM6.53277 17.9466H19.0428L15.1334 12.7341L12.0059 16.9041L9.66027 13.7766L6.53277 17.9466Z" fill="#464646"/>
</g>
<defs>
<clipPath id="clip0_1438_10">
<rect width="25.02" height="25.02" fill="white" transform="translate(0.27832 0.223999)"/>
</clipPath>
</defs>
</svg>
