<svg width="88" height="88" viewBox="0 0 88 88" fill="none" xmlns="http://www.w3.org/2000/svg">
<g clip-path="url(#clip0_832_199)">
<path d="M74.5934 74.3671C91.3599 57.6007 91.3599 30.4169 74.5934 13.6505C57.827 -3.11593 30.6433 -3.11592 13.8768 13.6505C-2.88958 30.4169 -2.88958 57.6007 13.8768 74.3671C30.6433 91.1335 57.827 91.1335 74.5934 74.3671Z" fill="black" stroke="black" stroke-width="1.38335" stroke-miterlimit="10"/>
<path d="M60.9256 31.0036C63.0036 31.0036 64.6881 29.319 64.6881 27.241C64.6881 25.1631 63.0036 23.4785 60.9256 23.4785C58.8476 23.4785 57.1631 25.1631 57.1631 27.241C57.1631 29.319 58.8476 31.0036 60.9256 31.0036Z" fill="white" stroke="white" stroke-width="0.276669" stroke-miterlimit="10"/>
<path d="M57.3924 12.7236H31.0752C21.1515 12.7236 13.1045 20.7683 13.1045 30.6943V57.0115C13.1045 66.9352 21.1492 74.9822 31.0752 74.9822H57.3924C67.3161 74.9822 75.363 66.9375 75.363 57.0115V30.6943C75.363 20.7706 67.3183 12.7236 57.3924 12.7236ZM69.6308 57.4745C69.6308 64.0623 64.2911 69.402 57.7033 69.402H30.7688C24.181 69.402 18.8413 64.0623 18.8413 57.4745V30.54C18.8413 23.9522 24.181 18.6125 30.7688 18.6125H57.7033C64.2911 18.6125 69.6308 23.9522 69.6308 30.54V57.4745Z" fill="white"/>
<path d="M44.235 27.8535C35.3143 27.8535 28.082 35.0858 28.082 44.0065C28.082 52.9271 35.3143 60.1594 44.235 60.1594C53.1557 60.1594 60.3879 52.9271 60.3879 44.0065C60.3879 35.0858 53.1557 27.8535 44.235 27.8535ZM44.235 54.4793C38.4505 54.4793 33.7644 49.791 33.7644 44.0087C33.7644 38.2265 38.4528 33.5381 44.235 33.5381C50.0172 33.5381 54.7056 38.2265 54.7056 44.0087C54.7056 49.791 50.0172 54.4793 44.235 54.4793Z" fill="white"/>
</g>
<defs>
<clipPath id="clip0_832_199">
<rect width="86.9986" height="86.9986" fill="white" transform="translate(0.734375 0.507812)"/>
</clipPath>
</defs>
</svg>
