<svg width="88" height="87" viewBox="0 0 88 87" fill="none" xmlns="http://www.w3.org/2000/svg">
<g clip-path="url(#clip0_832_193)">
<path d="M74.2804 73.3555C91.0468 56.8188 91.0468 30.0074 74.2804 13.4707C57.514 -3.06608 30.3303 -3.06608 13.5639 13.4707C-3.20257 30.0074 -3.20257 56.8188 13.5639 73.3555C30.3303 89.8922 57.514 89.8922 74.2804 73.3555Z" fill="black" stroke="black" stroke-width="1.3678" stroke-miterlimit="10"/>
<path d="M46.6954 39.4216C46.9064 39.1978 46.9904 39.1284 47.0494 39.0434C49.9337 34.8915 54.0548 33.6694 58.8634 34.3991C64.421 35.2429 67.977 39.0792 68.8847 44.95C69.1003 46.3422 69.207 47.7389 69.207 49.1467C69.2047 54.9907 69.1934 60.8347 69.2206 66.681C69.2251 67.339 69.0595 67.5315 68.3764 67.5248C65.272 67.489 62.1653 67.489 59.0609 67.5248C58.3824 67.5315 58.2076 67.3412 58.2122 66.681C58.2371 61.2309 58.228 55.7786 58.2235 50.3285C58.2235 49.0885 58.135 47.8575 57.781 46.66C56.6486 42.8125 52.2098 41.4607 49.0509 44.0212C47.3422 45.4022 46.675 47.2308 46.6886 49.3817C46.7158 54.5229 46.6977 59.6664 46.6977 64.8076C46.6977 65.4813 46.6591 66.1595 46.709 66.8287C46.7521 67.4106 46.5116 67.5248 45.976 67.5203C42.8149 67.5002 39.6515 67.4979 36.4903 67.5203C35.9162 67.5248 35.7097 67.4106 35.7165 66.7884C35.7619 62.153 35.7823 57.5177 35.7846 52.8823C35.7846 47.1793 35.7732 41.4741 35.7346 35.7711C35.7301 35.1466 35.864 34.9608 36.5175 34.9698C39.6787 35.0056 42.8421 34.9989 46.0033 34.9743C46.5729 34.9698 46.7317 35.1377 46.7136 35.6838C46.675 36.8589 46.7022 38.0362 46.7022 39.4261L46.6954 39.4216Z" fill="white" stroke="white" stroke-width="0.273561" stroke-miterlimit="10"/>
<path d="M29.7009 51.2471C29.7009 56.386 29.6895 61.5272 29.7145 66.6662C29.7168 67.3041 29.5874 67.5324 28.8816 67.5234C25.75 67.4831 22.6161 67.4921 19.4844 67.5167C18.9035 67.5212 18.7061 67.3779 18.7083 66.7759C18.7242 56.4106 18.7219 46.0477 18.7061 35.6824C18.7061 35.143 18.8377 34.9617 19.4141 34.9662C22.6047 34.9931 25.7931 34.9953 28.9815 34.9662C29.6169 34.9595 29.7168 35.1878 29.7145 35.7429C29.6941 40.9109 29.7031 46.079 29.7031 51.2471H29.7009Z" fill="white" stroke="white" stroke-width="0.273561" stroke-miterlimit="10"/>
<path d="M24.2929 19.303C28.4956 19.3075 31.2256 22.5909 30.2294 26.4407C29.476 29.3481 26.4283 31.0223 22.9086 30.4583C19.171 29.8607 17.0878 26.2616 18.4653 22.7857C19.3253 20.6146 21.5243 19.3007 24.2929 19.303Z" fill="white" stroke="white" stroke-width="0.273561" stroke-miterlimit="10"/>
</g>
<defs>
<clipPath id="clip0_832_193">
<rect width="86.9986" height="85.8068" fill="white" transform="translate(0.421875 0.507812)"/>
</clipPath>
</defs>
</svg>
