<svg width="19" height="20" viewBox="0 0 19 20" fill="none" xmlns="http://www.w3.org/2000/svg">
<path d="M3.24783 16.7007C2.8178 16.7007 2.44967 16.5476 2.14343 16.2413C1.8372 15.9351 1.68408 15.567 1.68408 15.1369V9.66382H3.24783V15.1369H10.2847V16.7007H3.24783ZM6.37533 13.5732C5.9453 13.5732 5.57717 13.4201 5.27093 13.1138C4.9647 12.8076 4.81158 12.4395 4.81158 12.0094V6.53633H6.37533V12.0094H13.4122V13.5732H6.37533ZM9.50283 10.4457C9.0728 10.4457 8.70466 10.2926 8.39843 9.98635C8.09219 9.68011 7.93908 9.31198 7.93908 8.88195V4.1907C7.93908 3.76067 8.09219 3.39254 8.39843 3.0863C8.70466 2.78007 9.0728 2.62695 9.50283 2.62695H15.7578C16.1879 2.62695 16.556 2.78007 16.8622 3.0863C17.1685 3.39254 17.3216 3.76067 17.3216 4.1907V8.88195C17.3216 9.31198 17.1685 9.68011 16.8622 9.98635C16.556 10.2926 16.1879 10.4457 15.7578 10.4457H9.50283ZM9.50283 8.88195H15.7578V5.75445H9.50283V8.88195Z" fill="#464646"/>
</svg>
