<svg width="26" height="26" viewBox="0 0 26 26" fill="none" xmlns="http://www.w3.org/2000/svg">
<path d="M11.7452 23.1212C11.1719 23.1212 10.681 22.917 10.2727 22.5087C9.86441 22.1004 9.66025 21.6096 9.66025 21.0362V16.8662H6.53275C5.95938 16.8662 5.46853 16.6621 5.06022 16.2537C4.65191 15.8454 4.44775 15.3546 4.44775 14.7812V7.48372C4.44775 6.33697 4.85607 5.35528 5.67269 4.53866C6.48932 3.72203 7.471 3.31372 8.61775 3.31372H21.1277V14.7812C21.1277 15.3546 20.9236 15.8454 20.5153 16.2537C20.107 16.6621 19.6161 16.8662 19.0427 16.8662H15.9152V21.0362C15.9152 21.6096 15.7111 22.1004 15.3028 22.5087C14.8945 22.917 14.4036 23.1212 13.8302 23.1212H11.7452ZM6.53275 10.6112H19.0427V5.39872H18.0002V9.56872H15.9152V5.39872H14.8727V7.48372H12.7877V5.39872H8.61775C8.04438 5.39872 7.55353 5.60288 7.14522 6.01119C6.73691 6.4195 6.53275 6.91034 6.53275 7.48372V10.6112ZM6.53275 14.7812H19.0427V12.6962H6.53275V14.7812Z" fill="#464646"/>
</svg>
