<svg width="26" height="26" viewBox="0 0 26 26" fill="none" xmlns="http://www.w3.org/2000/svg">
<g clip-path="url(#clip0_1452_377)">
<path d="M5.32914 22.0438C4.75576 22.0438 4.26492 21.8396 3.85661 21.4313C3.4483 21.023 3.24414 20.5322 3.24414 19.9588V5.36381C3.24414 4.79043 3.4483 4.29959 3.85661 3.89128C4.26492 3.48296 4.75576 3.27881 5.32914 3.27881H19.9241C20.4975 3.27881 20.9883 3.48296 21.3967 3.89128C21.805 4.29959 22.0091 4.79043 22.0091 5.36381V19.9588C22.0091 20.5322 21.805 21.023 21.3967 21.4313C20.9883 21.8396 20.4975 22.0438 19.9241 22.0438H5.32914ZM5.32914 19.9588H19.9241V5.36381H5.32914V19.9588ZM6.37164 17.8738H18.8816L14.9723 12.6613L11.8448 16.8313L9.49914 13.7038L6.37164 17.8738Z" fill="#464646"/>
</g>
<defs>
<clipPath id="clip0_1452_377">
<rect width="25.02" height="25.02" fill="white" transform="translate(0.117188 0.151367)"/>
</clipPath>
</defs>
</svg>
