<svg width="58" height="77" viewBox="0 0 58 77" fill="none" xmlns="http://www.w3.org/2000/svg">
<path d="M12 54.0481V2L28.6111 11.9667L45.2222 2V54.0481H12Z" fill="#4479FE" stroke="#2544DD" stroke-width="1.53333"/>
<circle cx="29" cy="48" r="29" fill="#D5A56F"/>
<circle cx="29" cy="48" r="24" fill="#FAC998"/>
<path d="M36.8268 34.019L30.7226 45.7393L27.5076 43.9894C27.7789 43.8809 28.0638 43.7995 28.3622 43.7452C28.6878 43.6909 28.9862 43.6638 29.2575 43.6638C30.2071 43.6367 31.1566 43.7452 32.1062 43.9894C33.0558 44.2335 33.9104 44.6676 34.67 45.2916C35.4568 45.9156 36.0808 46.7702 36.542 47.8554C37.0303 48.9406 37.2745 50.3243 37.2745 52.0063C37.2745 53.9597 36.8133 55.6418 35.8909 57.0526C34.9956 58.4362 33.8154 59.4943 32.3504 60.2268C30.8853 60.9593 29.2982 61.3256 27.589 61.3256C26.2596 61.3256 24.8624 61.0543 23.3974 60.5117C21.9324 59.9419 20.7658 59.1958 19.8976 58.2734L22.9091 53.39C23.316 53.9055 23.94 54.4074 24.781 54.8957C25.6221 55.3841 26.5038 55.6282 27.4262 55.6282C28.0231 55.6282 28.6064 55.479 29.1761 55.1806C29.7459 54.8821 30.2206 54.4345 30.6005 53.8376C30.9803 53.2408 31.1702 52.5083 31.1702 51.6401C31.1702 50.4464 30.8311 49.4968 30.1528 48.7914C29.5017 48.086 28.5793 47.7333 27.3855 47.7333C26.5716 47.7333 25.9476 47.774 25.5136 47.8554C25.1066 47.9097 24.6997 47.9911 24.2927 48.0996L24.1706 47.9368L28.932 39.0246L30.6412 39.7164H22.1359V34.019H36.8268Z" fill="#B57654"/>
</svg>
