<?xml version="1.0" encoding="UTF-8"?>
<svg id="Camada_1" xmlns="http://www.w3.org/2000/svg" version="1.1" viewBox="0 0 58 76.35">
  <!-- Generator: Adobe Illustrator 29.6.0, SVG Export Plug-In . SVG Version: 2.1.1 Build 207)  -->
  <defs>
    <style>
      .st0 {
        fill: #d5a56f;
      }

      .st1 {
        fill: #fac998;
      }

      .st2 {
        fill: #4479fe;
        stroke: #2544dd;
        stroke-width: 1.53px;
      }

      .st3 {
        fill: #b57654;
      }
    </style>
  </defs>
  <path class="st2" d="M12,53.4V1.35l16.61,9.97L45.22,1.35v52.05H12Z"/>
  <circle class="st0" cx="29" cy="47.35" r="29"/>
  <circle class="st1" cx="29" cy="47.35" r="24"/>
  <path class="st3" d="M36.83,33.37l-6.1,11.72-3.22-1.75c.27-.11.56-.19.85-.24.33-.05.62-.08.9-.08.95-.03,1.9.08,2.85.33.95.24,1.8.68,2.56,1.3.79.62,1.41,1.48,1.87,2.56.49,1.09.73,2.47.73,4.15,0,1.95-.46,3.64-1.38,5.05-.9,1.38-2.08,2.44-3.54,3.17-1.47.73-3.05,1.1-4.76,1.1-1.33,0-2.73-.27-4.19-.81-1.47-.57-2.63-1.32-3.5-2.24l3.01-4.88c.41.52,1.03,1.02,1.87,1.51.84.49,1.72.73,2.65.73.6,0,1.18-.15,1.75-.45.57-.3,1.04-.75,1.42-1.34.38-.6.57-1.33.57-2.2,0-1.19-.34-2.14-1.02-2.85-.65-.71-1.57-1.06-2.77-1.06-.81,0-1.44.04-1.87.12-.41.05-.81.14-1.22.24l-.12-.16,4.76-8.91,1.71.69h-8.51v-5.7h14.69Z"/>
</svg>