<svg width="21" height="22" viewBox="0 0 21 22" fill="none" xmlns="http://www.w3.org/2000/svg">
<path d="M7.95693 15.4252L15.2544 10.734L7.95693 6.04271V15.4252ZM10.5632 21.1589C9.12105 21.1589 7.7658 20.8853 6.49743 20.338C5.22905 19.7907 4.12574 19.0479 3.18749 18.1096C2.24924 17.1714 1.50646 16.0681 0.959152 14.7997C0.41184 13.5313 0.138184 12.1761 0.138184 10.734C0.138184 9.29183 0.41184 7.93658 0.959152 6.66821C1.50646 5.39983 2.24924 4.29652 3.18749 3.35827C4.12574 2.42002 5.22905 1.67724 6.49743 1.12993C7.7658 0.582616 9.12105 0.30896 10.5632 0.30896C12.0053 0.30896 13.3605 0.582616 14.6289 1.12993C15.8973 1.67724 17.0006 2.42002 17.9389 3.35827C18.8771 4.29652 19.6199 5.39983 20.1672 6.66821C20.7145 7.93658 20.9882 9.29183 20.9882 10.734C20.9882 12.1761 20.7145 13.5313 20.1672 14.7997C19.6199 16.0681 18.8771 17.1714 17.9389 18.1096C17.0006 19.0479 15.8973 19.7907 14.6289 20.338C13.3605 20.8853 12.0053 21.1589 10.5632 21.1589ZM10.5632 19.0739C12.8914 19.0739 14.8635 18.266 16.4794 16.6501C18.0952 15.0343 18.9032 13.0622 18.9032 10.734C18.9032 8.4057 18.0952 6.43364 16.4794 4.81777C14.8635 3.2019 12.8914 2.39396 10.5632 2.39396C8.23493 2.39396 6.26287 3.2019 4.64699 4.81777C3.03112 6.43364 2.22318 8.4057 2.22318 10.734C2.22318 13.0622 3.03112 15.0343 4.64699 16.6501C6.26287 18.266 8.23493 19.0739 10.5632 19.0739Z" fill="#464646"/>
</svg>
