<svg width="26" height="26" viewBox="0 0 26 26" fill="none" xmlns="http://www.w3.org/2000/svg">
<g clip-path="url(#clip0_1452_374)">
<path d="M10.7953 17.3526L18.0928 12.6613L10.7953 7.97007V17.3526ZM13.4016 23.0863C11.9594 23.0863 10.6042 22.8127 9.33581 22.2653C8.06743 21.718 6.96412 20.9753 6.02587 20.037C5.08762 19.0988 4.34484 17.9954 3.79753 16.7271C3.25022 15.4587 2.97656 14.1034 2.97656 12.6613C2.97656 11.2192 3.25022 9.86395 3.79753 8.59557C4.34484 7.3272 5.08762 6.22389 6.02587 5.28564C6.96412 4.34739 8.06743 3.60461 9.33581 3.0573C10.6042 2.50998 11.9594 2.23633 13.4016 2.23633C14.8437 2.23633 16.1989 2.50998 17.4673 3.0573C18.7357 3.60461 19.839 4.34739 20.7772 5.28564C21.7155 6.22389 22.4583 7.3272 23.0056 8.59557C23.5529 9.86395 23.8265 11.2192 23.8265 12.6613C23.8265 14.1034 23.5529 15.4587 23.0056 16.7271C22.4583 17.9954 21.7155 19.0988 20.7772 20.037C19.839 20.9753 18.7357 21.718 17.4673 22.2653C16.1989 22.8127 14.8437 23.0863 13.4016 23.0863ZM13.4016 21.0013C15.7298 21.0013 17.7019 20.1934 19.3177 18.5775C20.9336 16.9616 21.7415 14.9896 21.7415 12.6613C21.7415 10.3331 20.9336 8.36101 19.3177 6.74514C17.7019 5.12926 15.7298 4.32133 13.4016 4.32133C11.0733 4.32133 9.10125 5.12926 7.48537 6.74514C5.8695 8.36101 5.06156 10.3331 5.06156 12.6613C5.06156 14.9896 5.8695 16.9616 7.48537 18.5775C9.10125 20.1934 11.0733 21.0013 13.4016 21.0013Z" fill="#464646"/>
</g>
<defs>
<clipPath id="clip0_1452_374">
<rect width="25.02" height="25.02" fill="white" transform="translate(0.891602 0.151367)"/>
</clipPath>
</defs>
</svg>
