<?xml version="1.0" encoding="utf-8"?>
<!-- Generator: Adobe Illustrator 24.1.2, SVG Export Plug-In . SVG Version: 6.00 Build 0)  -->
<svg version="1.1" id="Camada_1" xmlns="http://www.w3.org/2000/svg" xmlns:xlink="http://www.w3.org/1999/xlink" x="0px" y="0px"
	 viewBox="0 0 113.2 113.2" style="enable-background:new 0 0 113.2 113.2;" xml:space="preserve">
<style type="text/css">
	.st0{fill:#122A69;}
	.st1{fill:#7495EA;}
</style>
<circle class="st0" cx="56.6" cy="56.6" r="56.6"/>
<path class="st1" d="M56.6,38.7c-1.6,0-3-0.6-4.2-1.7c-1.2-1.2-1.7-2.6-1.7-4.2s0.6-3,1.7-4.2c1.2-1.2,2.6-1.7,4.2-1.7
	c1.6,0,3,0.6,4.2,1.7c1.2,1.2,1.7,2.6,1.7,4.2s-0.6,3-1.7,4.2C59.6,38.1,58.2,38.7,56.6,38.7z M47.7,86.4V47.7c-3-0.2-6-0.6-9.1-1.1
	c-3.1-0.5-6-1.1-8.8-1.9l1.5-6c3.9,1,8,1.8,12.4,2.3c4.4,0.5,8.7,0.7,13,0.7c4.3,0,8.6-0.2,13-0.7c4.4-0.5,8.5-1.2,12.4-2.3l1.5,6
	c-2.8,0.7-5.7,1.4-8.8,1.9c-3.1,0.5-6.1,0.9-9.1,1.1v38.7h-6V68.5h-6v17.9H47.7z"/>
</svg>
