<svg width="55" height="54" viewBox="0 0 55 54" fill="none" xmlns="http://www.w3.org/2000/svg">
<path d="M38.248 16.2283H39.0648L40.1043 16.3003L40.9211 16.5165L41.5894 16.8768L42.4804 17.6694L43.5942 18.7503L44.5595 19.4709L45.8219 20.2635L47.6039 21.2003L48.198 21.8488L48.6435 22.8576L48.8662 23.7223L48.9405 24.2267V25.4517L48.6435 27.0369L48.198 28.6943L47.3069 31.2163L46.1931 33.7383L45.4506 35.4677L45.1536 36.6927L45.0051 37.6294L44.9308 38.5662V46.4204L44.7823 48.7984L44.6338 49.8072L44.411 50.1674L44.0398 50.4557L43.3715 50.5998L42.7032 50.3836L42.2577 49.7351L42.0349 48.366L41.2181 40.9441L40.9954 40.0073L40.5499 39.3588L40.1786 39.1426L39.7331 39.3588L39.3618 40.0794L38.9163 41.8808L38.0995 46.2763L37.2085 51.3924L36.8372 52.7615L36.5402 53.338L36.0947 53.6983L35.8719 53.7703H35.3521L34.6838 53.5542L34.2383 53.1939L34.0898 52.8336V51.9689L34.7581 46.1322L35.2779 41.6646L35.3521 40.872V39.8632L35.0551 39.3588L34.6838 39.4309L34.2383 39.9353L33.1988 41.6646L32.382 43.0337L31.3424 44.7631L29.2634 48.366L28.7436 49.2307L28.2981 50.0233L27.407 51.6807L27.0358 52.113L26.516 52.3292H25.5507L25.1052 52.113L24.7339 51.6807L24.5111 51.1042V50.3836L24.9567 49.2307L26.1447 46.7087L26.813 45.2675L28.001 42.7455L29.2634 40.0794L30.2286 38.0618L30.3772 37.5574V37.0529L30.1544 36.6206H29.6346L29.0406 36.9809L28.6693 37.2691L28.5208 37.4853H28.3723L28.2238 37.7735L25.6992 40.2235L25.3279 40.6558H25.1794L25.0309 40.9441L23.8429 42.097H23.6943V42.2411H23.5458V42.3852L23.0261 42.8176L22.6548 43.2499L22.135 43.6823L21.7638 44.1146L21.244 44.5469L21.1697 44.6911H21.0212L20.8727 44.9793L19.9074 45.916L19.3134 46.2763H18.6451L18.1996 46.0602L17.8283 45.6999L17.5313 45.3396L17.3828 44.8352L17.4571 44.3308L17.7541 43.7543L18.6451 42.6734L19.6104 41.4485L20.5015 40.3676L21.244 39.4309L23.3973 36.6927L24.4369 35.3236L25.4022 34.0265L26.1447 33.0177L27.11 31.5766L28.1496 29.631L28.7436 28.2619L29.0406 27.2531V26.3163L28.7436 25.7399L28.3723 25.4517L27.8525 25.2355L27.4813 25.1634H26.1447L23.8429 25.3075H21.541L20.3529 25.0914L19.4619 24.7311L18.8679 24.2987L18.3481 23.7223L18.2739 23.2899L18.4966 22.9296L18.9421 22.7135L20.0559 22.5693L21.0212 22.4973L23.4716 21.7767L25.6992 21.0561L27.407 20.3356L30.4514 18.8223L32.1592 18.1018L33.273 17.5974L35.5749 16.7327L36.9114 16.3724L38.248 16.2283Z" fill="#5F6368"/>
<path d="M15.3779 0.158447L16.0462 0.230505L16.6403 0.590793L17.0858 1.0952L17.3828 2.03195L18.3481 7.50833L19.3134 13.4891L19.5361 14.7862L19.8331 15.4347L20.1302 15.6509H20.6499L21.0212 15.1464L21.3925 13.4171L22.2835 8.87743L23.6201 2.39224L23.9913 1.81577L24.2884 1.5996L24.5854 1.52754L25.5507 1.5996L26.2189 2.03195L26.516 2.46429L26.5902 2.68047V3.4731L26.2189 8.37302L25.9219 13.2729L25.7734 18.2449L25.0309 18.6052L23.3973 19.1817L21.0212 19.9023L20.8727 19.9743L19.0164 20.1184L17.8283 20.4067L17.0115 20.839L16.4175 21.3434L15.972 22.064L15.7492 22.7846V24.0095L16.1205 25.0184L16.7145 25.811L17.2343 26.3154L18.1996 26.8919L19.5361 27.4683L20.7242 27.7565L21.3925 27.8286H24.2141L26.0704 27.7565L25.9962 28.1168L25.1051 29.9183L24.3626 31.0712L23.3973 32.4403L22.729 33.305L21.6895 34.6741L20.2044 36.5476L19.3134 37.7005L18.9421 37.7726H16.269L14.9324 37.9167H14.4127L13.2246 37.3402L12.3336 36.5476L11.7395 35.9711L11.0713 34.9623L10.4772 33.6653L9.73469 31.4315L9.06641 28.8374L8.62089 26.4595L8.24962 24.7301L7.8041 23.5772L6.98732 22.064L5.79926 20.2625L4.98248 19.1817L4.16569 18.0288L3.27465 16.7317L2.38361 15.3626L1.71533 14.2818L0.972795 12.9847L0.675781 12.2641L0.750035 11.9039L1.04705 11.4715L1.41831 11.1833L1.78958 11.0392L2.38361 11.1112L2.82913 11.3994L3.2004 11.7597L4.09144 12.6965L4.75972 13.4891L5.5765 14.4259L6.91306 16.0111L7.72985 16.9479L8.39813 17.7405L9.14067 18.5332L9.58619 18.8214L10.2545 19.0376L10.6257 18.8934L10.7742 18.6773V17.8846L10.3287 16.6597L9.36343 14.4979L7.87836 11.2553L6.91306 9.16566L5.87352 6.85981L5.50225 5.77895V4.98631L5.79926 4.55397L6.39329 4.19368L7.13582 4.04956L7.72985 4.33779L8.24962 4.98631L9.51193 7.29216L10.2545 8.73331L10.997 10.1024L11.9623 11.9759L12.7048 13.345L13.7444 15.2185L14.2641 15.867L14.5612 16.0111H14.9324L15.0067 15.7229V13.9935L14.7839 10.6789L14.4127 5.77895L14.1156 2.68047L14.0414 2.10401V1.31137L14.2641 0.879024L14.9324 0.302563L15.3779 0.158447Z" fill="#5F6368"/>
<path d="M53.0237 21.1992L53.395 21.3433L53.7663 21.9198L54.0633 22.8565L54.2861 24.3698L54.2118 25.7389L53.8405 27.5403L53.5435 28.405L53.1723 28.9814H52.7267L52.3555 28.6932L52.4297 28.2609L52.801 27.18L53.098 25.6668L53.1723 25.0903V24.2256L52.8752 22.7124L52.5782 21.7757L52.6525 21.4154L53.0237 21.1992Z" fill="#5F6368"/>
<path d="M49.9064 20.6963L50.4262 20.7683L50.8717 21.4889L51.3915 23.0021L51.54 23.7227V25.9565L51.3172 27.3977L51.0944 28.1182L50.7974 28.4065H50.3519L50.0549 28.1182L50.1291 27.5418L50.4262 26.0286L50.5004 25.2359V24.5153L50.3519 23.4345L49.9064 21.9933L49.6094 21.3448V20.9125L49.9064 20.6963Z" fill="#5F6368"/>
<path d="M8.02759 34.8169L8.39885 34.961L9.21564 36.5463L9.88392 37.5551L10.4779 38.2757L11.072 38.8521L12.1115 39.5727L13.0026 40.0771L13.1511 40.2212V40.6536L12.8541 40.9418L12.3343 40.8697L11.1462 40.2212L10.4037 39.6448L9.66116 38.9962L8.77012 37.8433L8.10184 36.7625L7.65632 35.8257L7.50781 35.4654L7.58207 35.1051L8.02759 34.8169Z" fill="#5F6368"/>
<path d="M5.79708 35.7534L6.16835 35.8255L6.46536 36.474L6.91088 37.6269L7.57916 38.8519L8.24744 39.7166L8.84147 40.3651L10.3265 41.446L10.475 41.5901L10.4008 41.9504L10.1038 42.2386L9.584 42.1666L8.61871 41.518L7.65342 40.6533L7.05939 40.0048L6.46536 39.0681L5.87134 37.9151L5.50007 36.9784L5.35156 36.474V36.0416L5.57432 35.8255L5.79708 35.7534Z" fill="#5F6368"/>
</svg>
