<svg width="55" height="55" viewBox="0 0 55 55" fill="none" xmlns="http://www.w3.org/2000/svg">
<path d="M27.4812 54.5846C20.0353 54.5846 13.7062 51.9785 8.49404 46.7663C3.28187 41.5541 0.675781 35.2251 0.675781 27.7791C0.675781 20.3331 3.28187 14.0041 8.49404 8.79189C13.7062 3.57972 20.0353 0.973633 27.4812 0.973633C28.1762 0.973633 28.8588 0.998453 29.5289 1.04809C30.199 1.09773 30.8568 1.17219 31.5021 1.27147C29.4668 2.71102 27.8411 4.58492 26.625 6.89317C25.4088 9.20142 24.8007 11.6958 24.8007 14.3764C24.8007 18.8439 26.3644 22.6414 29.4917 25.7687C32.619 28.896 36.4164 30.4596 40.884 30.4596C43.6142 30.4596 46.121 29.8516 48.4044 28.6354C50.6878 27.4192 52.5493 25.7935 53.9889 23.7583C54.0882 24.4036 54.1626 25.0613 54.2123 25.7315C54.2619 26.4016 54.2867 27.0841 54.2867 27.7791C54.2867 35.2251 51.6806 41.5541 46.4685 46.7663C41.2563 51.9785 34.9272 54.5846 27.4812 54.5846ZM27.4812 48.6278C31.8495 48.6278 35.7711 47.424 39.2459 45.0165C42.7206 42.609 45.2523 39.4693 46.8408 35.5974C45.848 35.8456 44.8552 36.0441 43.8624 36.193C42.8696 36.342 41.8768 36.4164 40.884 36.4164C34.7783 36.4164 29.5785 34.2695 25.2847 29.9757C20.9909 25.6818 18.8439 20.4821 18.8439 14.3764C18.8439 13.3836 18.9184 12.3908 19.0673 11.398C19.2162 10.4052 19.4148 9.41239 19.663 8.4196C15.7911 10.0081 12.6514 12.5397 10.2438 16.0145C7.83632 19.4893 6.63255 23.4108 6.63255 27.7791C6.63255 33.5373 8.66778 38.4516 12.7382 42.5221C16.8087 46.5926 21.723 48.6278 27.4812 48.6278Z" fill="#5F6368"/>
</svg>
