<svg width="55" height="55" viewBox="0 0 55 55" fill="none" xmlns="http://www.w3.org/2000/svg">
<path d="M50.117 54.4012L31.3531 35.6374C29.864 36.8287 28.1514 37.7719 26.2154 38.4669C24.2795 39.1618 22.2194 39.5093 20.0353 39.5093C14.6246 39.5093 10.0453 37.6354 6.29748 33.8876C2.54968 30.1398 0.675781 25.5605 0.675781 20.1498C0.675781 14.7391 2.54968 10.1598 6.29748 6.41198C10.0453 2.66418 14.6246 0.790283 20.0353 0.790283C25.446 0.790283 30.0253 2.66418 33.7731 6.41198C37.5209 10.1598 39.3948 14.7391 39.3948 20.1498C39.3948 22.3339 39.0473 24.394 38.3524 26.3299C37.6574 28.2659 36.7142 29.9785 35.5229 31.4676L54.2867 50.2315L50.117 54.4012ZM20.0353 33.5525C23.7583 33.5525 26.9228 32.2495 29.5289 29.6434C32.135 27.0373 33.438 23.8728 33.438 20.1498C33.438 16.4268 32.135 13.2623 29.5289 10.6562C26.9228 8.0501 23.7583 6.74705 20.0353 6.74705C16.3123 6.74705 13.1478 8.0501 10.5417 10.6562C7.9356 13.2623 6.63255 16.4268 6.63255 20.1498C6.63255 23.8728 7.9356 27.0373 10.5417 29.6434C13.1478 32.2495 16.3123 33.5525 20.0353 33.5525ZM12.5893 23.1282V17.1714H27.4812V23.1282H12.5893Z" fill="#5F6368"/>
</svg>
