<svg width="55" height="55" viewBox="0 0 55 55" fill="none" xmlns="http://www.w3.org/2000/svg">
<path d="M50.117 54.4935L31.3531 35.7297C29.864 36.921 28.1514 37.8642 26.2154 38.5591C24.2795 39.2541 22.2194 39.6016 20.0353 39.6016C14.6246 39.6016 10.0453 37.7277 6.29748 33.9799C2.54968 30.2321 0.675781 25.6528 0.675781 20.2421C0.675781 14.8313 2.54968 10.2521 6.29748 6.50427C10.0453 2.75647 14.6246 0.882568 20.0353 0.882568C25.446 0.882568 30.0253 2.75647 33.7731 6.50427C37.5209 10.2521 39.3948 14.8313 39.3948 20.2421C39.3948 22.4262 39.0473 24.4863 38.3524 26.4222C37.6574 28.3582 36.7142 30.0707 35.5229 31.5599L54.2867 50.3238L50.117 54.4935ZM20.0353 33.6448C23.7583 33.6448 26.9228 32.3418 29.5289 29.7357C32.135 27.1296 33.438 23.9651 33.438 20.2421C33.438 16.5191 32.135 13.3546 29.5289 10.7485C26.9228 8.14238 23.7583 6.83934 20.0353 6.83934C16.3123 6.83934 13.1478 8.14238 10.5417 10.7485C7.9356 13.3546 6.63255 16.5191 6.63255 20.2421C6.63255 23.9651 7.9356 27.1296 10.5417 29.7357C13.1478 32.3418 16.3123 33.6448 20.0353 33.6448ZM17.0569 29.1772V23.2205H11.1001V17.2637H17.0569V11.3069H23.0137V17.2637H28.9704V23.2205H23.0137V29.1772H17.0569Z" fill="#5F6368"/>
</svg>
