<svg width="55" height="54" viewBox="0 0 55 54" fill="none" xmlns="http://www.w3.org/2000/svg">
<path d="M25.0444 7.3765V0.065918H29.9181V7.3765H25.0444ZM25.0444 53.6768V46.3663H29.9181V53.6768H25.0444ZM46.9761 29.3082V24.4345H54.2867V29.3082H46.9761ZM0.675781 29.3082V24.4345H7.98636V29.3082H0.675781ZM43.8082 13.956L40.3966 10.5444L44.6611 6.15807L48.1946 9.69152L43.8082 13.956ZM10.3014 47.5847L6.76793 44.0512L11.1543 39.7867L14.5659 43.1983L10.3014 47.5847ZM44.6611 47.5847L40.3966 43.1983L43.8082 39.7867L48.1946 44.0512L44.6611 47.5847ZM11.1543 13.956L6.76793 9.69152L10.3014 6.15807L14.5659 10.5444L11.1543 13.956ZM27.4812 41.4925C23.4198 41.4925 19.9676 40.071 17.1246 37.228C14.2816 34.385 12.8601 30.9328 12.8601 26.8714C12.8601 22.8099 14.2816 19.3577 17.1246 16.5147C19.9676 13.6717 23.4198 12.2502 27.4812 12.2502C31.5427 12.2502 34.9949 13.6717 37.8379 16.5147C40.6809 19.3577 42.1024 22.8099 42.1024 26.8714C42.1024 30.9328 40.6809 34.385 37.8379 37.228C34.9949 40.071 31.5427 41.4925 27.4812 41.4925ZM27.4812 36.6188C30.2024 36.6188 32.5073 35.6745 34.3958 33.786C36.2844 31.8974 37.2287 29.5925 37.2287 26.8714C37.2287 24.1502 36.2844 21.8454 34.3958 19.9568C32.5073 18.0682 30.2024 17.1239 27.4812 17.1239C24.7601 17.1239 22.4552 18.0682 20.5667 19.9568C18.6781 21.8454 17.7338 24.1502 17.7338 26.8714C17.7338 29.5925 18.6781 31.8974 20.5667 33.786C22.4552 35.6745 24.7601 36.6188 27.4812 36.6188Z" fill="#5F6368"/>
</svg>
