<svg width="66" height="66" viewBox="0 0 66 66" fill="none" xmlns="http://www.w3.org/2000/svg">
<path d="M6.6 66C4.785 66 3.23125 65.3546 1.93875 64.0637C0.64625 62.7728 0 61.221 0 59.4082V13.2659C0 11.4532 0.64625 9.90137 1.93875 8.61049C3.23125 7.3196 4.785 6.67416 6.6 6.67416H36.0525L29.4525 13.2659H6.6V59.4082H52.8V36.5019L59.4 29.9101V59.4082C59.4 61.221 58.7538 62.7728 57.4613 64.0637C56.1688 65.3546 54.615 66 52.8 66H6.6ZM19.8 46.2247V32.2172L50.0775 1.97753C50.7375 1.31835 51.48 0.82397 52.305 0.494382C53.13 0.164794 53.955 0 54.78 0C55.66 0 56.4987 0.164794 57.2962 0.494382C58.0938 0.82397 58.8225 1.31835 59.4825 1.97753L64.1025 6.67416C64.7075 7.33333 65.175 8.06117 65.505 8.85768C65.835 9.65418 66 10.4644 66 11.2884C66 12.1124 65.8487 12.9226 65.5462 13.7191C65.2438 14.5156 64.7625 15.2434 64.1025 15.9026L33.825 46.2247H19.8ZM26.4 39.633H31.02L50.16 20.5169L47.85 18.2097L45.4575 15.9026L26.4 34.9363V39.633Z" fill="#2D2D2D"/>
</svg>
