<?xml version="1.0" encoding="utf-8"?>
<!-- Generator: Adobe Illustrator 24.1.2, SVG Export Plug-In . SVG Version: 6.00 Build 0)  -->
<svg version="1.1" id="Camada_1" xmlns="http://www.w3.org/2000/svg" xmlns:xlink="http://www.w3.org/1999/xlink" x="0px" y="0px"
	 viewBox="0 0 115 115" style="enable-background:new 0 0 115 115;" xml:space="preserve">
<style type="text/css">
	.st0{fill:#FFFFFF;}
</style>
<path class="st0" d="M57.4,9.7c26.3,0,47.8,21.4,47.8,47.8s-21.4,47.8-47.8,47.8S9.7,83.8,9.7,57.5S31.1,9.7,57.4,9.7z M57.4,0.1
	C25.8,0.1,0.1,25.8,0.1,57.5s25.7,57.3,57.3,57.3c31.7,0,57.3-25.7,57.3-57.3S89.1,0.1,57.4,0.1z M57.4,34c7.7,0,8.6,0,11.6,0.2
	c7.8,0.4,11.4,4,11.8,11.7c0.1,3,0.2,3.9,0.2,11.6s0,8.6-0.2,11.6c-0.4,7.7-4,11.4-11.8,11.8c-3,0.1-3.9,0.2-11.6,0.2
	c-7.7,0-8.6,0-11.6-0.2c-7.8-0.4-11.4-4.1-11.8-11.8c-0.1-3-0.2-3.9-0.2-11.6s0-8.6,0.2-11.6c0.4-7.7,4-11.4,11.8-11.8
	C48.9,34,49.8,34,57.4,34z M57.4,28.8c-7.8,0-8.8,0-11.8,0.2c-10.4,0.5-16.2,6.3-16.7,16.7c-0.1,3.1-0.2,4-0.2,11.8
	c0,7.8,0,8.8,0.2,11.8c0.5,10.4,6.3,16.2,16.7,16.7c3.1,0.1,4,0.2,11.8,0.2c7.8,0,8.8,0,11.8-0.2c10.4-0.5,16.2-6.3,16.7-16.7
	c0.1-3.1,0.2-4,0.2-11.8c0-7.8,0-8.8-0.2-11.8C85.4,35.2,79.7,29.4,69.2,29C66.2,28.8,65.2,28.8,57.4,28.8z M57.4,42.7
	c-8.1,0-14.7,6.6-14.7,14.7s6.6,14.7,14.7,14.7c8.1,0,14.7-6.6,14.7-14.7C72.1,49.3,65.5,42.7,57.4,42.7z M57.4,67
	c-5.3,0-9.6-4.3-9.6-9.6c0-5.3,4.3-9.6,9.6-9.6c5.3,0,9.6,4.3,9.6,9.6S62.7,67,57.4,67z M72.7,38.7c-1.9,0-3.4,1.5-3.4,3.4
	c0,1.9,1.5,3.4,3.4,3.4c1.9,0,3.4-1.5,3.4-3.4C76.2,40.3,74.6,38.7,72.7,38.7z"/>
</svg>
