<?xml version="1.0" encoding="utf-8"?>
<!-- Generator: Adobe Illustrator 24.1.2, SVG Export Plug-In . SVG Version: 6.00 Build 0)  -->
<svg version="1.1" id="Camada_1" xmlns="http://www.w3.org/2000/svg" xmlns:xlink="http://www.w3.org/1999/xlink" x="0px" y="0px"
	 viewBox="0 0 68 64" style="enable-background:new 0 0 68 64;" xml:space="preserve">
<style type="text/css">
	.st0{fill:none;stroke:#5AB3FF;stroke-width:3.5753;stroke-linecap:round;}
</style>
<path class="st0" d="M11.3,13.2h34"/>
<path class="st0" d="M11.3,31.8h17"/>
<path class="st0" d="M39.6,31.8h17"/>
<path class="st0" d="M22.6,50.3h34"/>
<path class="st0" d="M50.9,18.5c3.1,0,5.7-2.4,5.7-5.3c0-2.9-2.5-5.3-5.7-5.3s-5.7,2.4-5.7,5.3C45.3,16.2,47.8,18.5,50.9,18.5z"/>
<path class="st0" d="M34,37c3.1,0,5.7-2.4,5.7-5.3c0-2.9-2.5-5.3-5.7-5.3s-5.7,2.4-5.7,5.3C28.3,34.7,30.8,37,34,37z"/>
<path class="st0" d="M17,55.6c3.1,0,5.7-2.4,5.7-5.3c0-2.9-2.5-5.3-5.7-5.3s-5.7,2.4-5.7,5.3C11.3,53.2,13.9,55.6,17,55.6z"/>
</svg>
