<?xml version="1.0" encoding="utf-8"?>
<!-- Generator: Adobe Illustrator 24.1.2, SVG Export Plug-In . SVG Version: 6.00 Build 0)  -->
<svg version="1.1" id="Camada_1" xmlns="http://www.w3.org/2000/svg" xmlns:xlink="http://www.w3.org/1999/xlink" x="0px" y="0px"
	 viewBox="0 0 645 310" style="enable-background:new 0 0 645 310;" xml:space="preserve">
<style type="text/css">
	.st0{fill:#0E0E0E;}
	.st1{fill:#322BF0;}
	.st2{fill:#2B63F0;}
	.st3{fill:#2BA1F0;}
	.st4{fill:#2AE3F0;}
	.st5{fill:#B72AF0;}
	.st6{fill:#722BF0;}
	.st7{fill:#EAEAEA;}
	.st8{fill:#FFFFFF;}
</style>
<path class="st0" d="M199.9,81.5h-79.2l-39.6,68.5l39.6,68.5h79.2l39.6-68.5L199.9,81.5z"/>
<g>
	<g>
		<path class="st1" d="M153.7,8.3c-52.3,2.5-97.2,33.2-119.8,77.2h0h164.3L153.7,8.3z"/>
	</g>
	<path class="st2" d="M33.9,85.6c-24,46.6-19.9,100.7,6.9,142.3l0,0L123,85.6L33.9,85.6z"/>
	<path class="st3" d="M40.9,228c28.3,44,77.3,67.6,126.7,65.2l0,0L85.4,150.9L40.9,228z"/>
	<path class="st4" d="M167.7,293.2c52.3-2.5,97.2-33.2,119.8-77.2h0H123.2L167.7,293.2z"/>
	<path class="st5" d="M287.6,215.9c24-46.6,19.9-100.7-6.9-142.3l0,0l-82.2,142.3L287.6,215.9z"/>
	<path class="st6" d="M280.5,73.4c-28.3-44-77.3-67.6-126.7-65.2l0,0L236,150.6L280.5,73.4z"/>
</g>
<path class="st7" d="M280.5,73.4l-120,75.8L233,27.7C251.6,38.4,269.1,54.6,280.5,73.4z"/>
<g>
	<path class="st8" d="M394.9,146.3c-4.4-4.6-10.4-6.9-18.4-6.9h-3v-8.1h19.6c1.3,0,2.5-1.1,2.7-2.5l2.3-25.4v-0.1
		c0.2-1.3-0.5-2.2-1.9-2.5c-9.7-2.2-19.9-3.3-30.3-3.3c-14.7,0-25.3,2.3-31.4,7c-5.8,4.5-8.6,12.4-8.6,23.9c0,9.6,2.2,16.4,6.8,20.9
		c4.6,4.5,10.6,6.7,17.7,6.7h3v8.1h-20.2c-1.3,0-2.5,1.1-2.7,2.5l-2.4,26.7l0,0v0c-0.1,1.4,0.4,2.3,1.7,2.6
		c10.2,2.5,21.9,3.8,34.6,3.8c13.3,0,23-2.4,28.7-7.1c5.5-4.6,8.3-12.4,8.3-24C401.4,158.5,399.2,151,394.9,146.3z"/>
	<path class="st8" d="M477.3,172.3c-0.2-1.4-1.3-2.4-2.7-2.4h-30.9v-8.1h31.9c1.1,0,2.1-0.7,2.4-1.8c1.3-5.2,2-10.5,2.2-15.9
		c0-5.7-0.9-10.7-2.8-15.2c-1.8-4.1-5-7.4-9.9-9.9c-5-2.5-11.4-3.7-19.6-3.7c-14.3,0-24.3,3-29.9,9c-5.5,6.1-8.4,17.5-8.4,33.6
		c0,15.7,2.8,26.7,8.3,32.8c5.4,6,14.4,9,26.6,9c12.1,0,23.1-1.1,32.9-3.3c1.6-0.4,1.7-2,1.7-2.7L477.3,172.3z M442.8,135.5h8.3
		v17.6h-8.3V135.5z"/>
	<path class="st8" d="M555.2,172.3c-0.2-1.4-1.3-2.4-2.7-2.4h-30.9v-8.1h31.8c1.1,0,2.1-0.7,2.4-1.8c1.3-5.2,2-10.5,2.2-15.9
		c0-5.7-0.9-10.7-2.8-15.2c-1.8-4.1-5-7.4-9.9-9.9c-5-2.5-11.4-3.7-19.6-3.7c-14.3,0-24.3,3-29.9,9c-5.6,6.1-8.4,17.5-8.4,33.6
		c0,15.7,2.8,26.7,8.3,32.8c5.4,6,14.4,9,26.6,9c12.1,0,23.1-1.1,32.9-3.3c1.6-0.4,1.7-2,1.7-2.7L555.2,172.3z M520.7,135.5h8.3
		v17.6h-8.3V135.5z"/>
	<path class="st8" d="M637.5,146.8c0.3-0.4,0.5-0.9,0.5-1.2v-25.1c0-1.6-1.2-2.8-2.8-2.8h-19.5c-0.7,0-1.4,0.5-1.8,1.3l-11,23.9
		l-0.8,1.7h-9l2-4.3l12.1-26.1l0-0.1c0-0.1,0-0.3,0-0.4V100c0-1.7-1.2-2.8-3-2.8h-0.2l-35.3,2.3c-1.5,0.1-2.5,1.2-2.5,2.6v92.4
		c0,1.6,1.2,2.8,2.8,2.8h29.3c1.3,0,2.4-0.5,3-1.3c0.6-0.9,0.7-2.1,0.3-3.4l-6.6-18.2l-1.5-4h8.8l0.7,2l8.4,23.5
		c0.1,0.3,0.5,1.4,2.2,1.4h21.4c1.6,0,2.8-1.2,2.8-2.8v-25.9c0-0.3-0.2-0.7-0.4-0.9l0,0l0-0.1l-7.9-8.5l-1.9-2.1l2-2L637.5,146.8z"
		/>
</g>
</svg>
