<svg width="16" height="14" viewBox="0 0 16 14" fill="none" xmlns="http://www.w3.org/2000/svg">
<path d="M9 1C9 0.447715 8.55228 -3.01764e-08 8 0C7.44772 3.01764e-08 7 0.447715 7 1L9 1ZM7.29289 13.7071C7.68342 14.0976 8.31658 14.0976 8.70711 13.7071L15.0711 7.34315C15.4616 6.95262 15.4616 6.31946 15.0711 5.92893C14.6805 5.53841 14.0474 5.53841 13.6569 5.92893L8 11.5858L2.34315 5.92893C1.95262 5.53841 1.31946 5.53841 0.928932 5.92893C0.538408 6.31946 0.538408 6.95262 0.928933 7.34315L7.29289 13.7071ZM7 1L7 13L9 13L9 1L7 1Z" fill="white"/>
</svg>
