<svg width="20" height="21" viewBox="0 0 20 21" fill="none" xmlns="http://www.w3.org/2000/svg">
<path d="M18.0541 10.6055H2.68616V18.7414C2.68616 19.2407 3.09089 19.6454 3.59015 19.6454H18.0541C18.5533 19.6454 18.9581 19.2407 18.9581 18.7414V11.5095C18.9581 11.0102 18.5533 10.6055 18.0541 10.6055Z" stroke="#0E0E0E" stroke-width="1.46146" stroke-linejoin="round"/>
<path d="M1.42053 6.89879L15.8616 1.64265C16.3308 1.4719 16.8496 1.7138 17.0203 2.18294L17.6387 3.8819C17.8094 4.35106 17.5675 4.86981 17.0984 5.04056L2.65727 10.2967L1.42053 6.89879Z" stroke="#0E0E0E" stroke-width="1.46146" stroke-linejoin="round"/>
<path d="M14.1628 2.26074L13.7006 6.27702" stroke="#0E0E0E" stroke-width="1.46146"/>
<path d="M10.7648 3.49805L10.3026 7.51432" stroke="#0E0E0E" stroke-width="1.46146"/>
<path d="M7.36701 4.73438L6.90479 8.75065" stroke="#0E0E0E" stroke-width="1.46146"/>
<path d="M3.96894 5.97168L3.50671 9.98798" stroke="#0E0E0E" stroke-width="1.46146"/>
</svg>
