<?xml version="1.0" encoding="UTF-8"?><svg id="Camada_1" xmlns="http://www.w3.org/2000/svg" width="60" height="55.04999" viewBox="0 0 60 55.04999"><defs><style>.cls-1{stroke-linecap:round;}.cls-1,.cls-2{fill:none;stroke:#2b63f0;stroke-width:3.60001px;}</style></defs><path class="cls-2" d="M22.18121,27.52499c0,3.91664-3.50062,7.09173-7.81889,7.09173s-7.81884-3.17509-7.81884-7.09173,3.50062-7.09173,7.81884-7.09173,7.81889,3.17509,7.81889,7.09173Z"/><path class="cls-1" d="M37.81886,11.92296l-15.63778,9.92842"/><path class="cls-1" d="M37.81886,43.12715l-15.63778-9.92842"/><path class="cls-2" d="M53.45652,45.96361c0,3.91665-3.50075,7.09173-7.81883,7.09173s-7.81896-3.17508-7.81896-7.09173,3.50075-7.09173,7.81896-7.09173,7.81883,3.17509,7.81883,7.09173Z"/><path class="cls-2" d="M53.45652,9.08639c0,3.91663-3.50075,7.09172-7.81883,7.09172s-7.81896-3.17509-7.81896-7.09172,3.50075-7.09174,7.81896-7.09174,7.81883,3.17508,7.81883,7.09174Z"/></svg>