<svg width="124" height="124" viewBox="0 0 124 124" fill="none" xmlns="http://www.w3.org/2000/svg">
<path fill-rule="evenodd" clip-rule="evenodd" d="M88.8064 30.2842C94.3814 30.2842 98.9005 35.4886 98.9005 41.9086V80.6566C98.9005 87.0767 94.3814 92.281 88.8064 92.281H34.9707C29.3958 92.281 24.8765 87.0767 24.8765 80.6566V41.9086C24.8765 35.4886 29.3958 30.2842 34.9707 30.2842H88.8064ZM86.2926 38.0338H37.4847L59.8037 58.3249C61.0261 59.4366 62.7509 59.4366 63.9736 58.3249L86.2926 38.0338ZM31.6059 42.5626V80.6566C31.6059 82.7966 33.1124 84.5314 34.9707 84.5314H88.8064C90.6647 84.5314 92.1711 82.7966 92.1711 80.6566V42.5627L68.1432 64.4076C64.476 67.7419 59.301 67.7419 55.6338 64.4076L31.6059 42.5626Z" fill="black"/>
<path d="M62 10.3333C90.489 10.3333 113.667 33.511 113.667 62C113.667 90.489 90.489 113.667 62 113.667C33.511 113.667 10.3333 90.489 10.3333 62C10.3333 33.511 33.511 10.3333 62 10.3333ZM62 0C27.7605 0 0 27.7605 0 62C0 96.2395 27.7605 124 62 124C96.2395 124 124 96.2395 124 62C124 27.7605 96.2395 0 62 0Z" fill="black"/>
</svg>
