<svg width="890" height="903" viewBox="0 0 890 903" fill="none" xmlns="http://www.w3.org/2000/svg">
<g clip-path="url(#clip0_113_2)">
<path d="M32.895 70.3516H24.8318C17.1863 70.3516 10.9863 76.5515 10.9863 84.165V224.965C10.9863 232.611 17.1863 238.779 24.8318 238.779H272.863C278.195 238.779 282.5 234.474 282.5 229.141V223.552" fill="#0E0E0E"/>
<path d="M32.895 70.3516H24.8318C17.1863 70.3516 10.9863 76.5515 10.9863 84.165V224.965C10.9863 232.611 17.1863 238.779 24.8318 238.779H272.863C278.195 238.779 282.5 234.474 282.5 229.141V223.552" stroke="#0E0E0E" stroke-width="3.21242" stroke-miterlimit="10"/>
<path d="M294.771 55.0928H98.6846C93.3621 55.0928 89.0474 59.4075 89.0474 64.73V213.883C89.0474 219.205 93.3621 223.52 98.6846 223.52H294.771C300.093 223.52 304.408 219.205 304.408 213.883V64.73C304.408 59.4075 300.093 55.0928 294.771 55.0928Z" fill="white" stroke="#0E0E0E" stroke-width="3.21242" stroke-miterlimit="10"/>
<path d="M92.8377 55.0928H46.7074C39.0785 55.0928 32.894 61.2772 32.894 68.9062V209.706C32.894 217.335 39.0785 223.52 46.7074 223.52H92.8377C100.467 223.52 106.651 217.335 106.651 209.706V68.9062C106.651 61.2772 100.467 55.0928 92.8377 55.0928Z" fill="#2B63F0" stroke="#0E0E0E" stroke-width="3.21242" stroke-miterlimit="10"/>
<path d="M196.729 210.22C234.572 210.22 265.25 179.542 265.25 141.699C265.25 103.856 234.572 73.1782 196.729 73.1782C158.886 73.1782 128.208 103.856 128.208 141.699C128.208 179.542 158.886 210.22 196.729 210.22Z" fill="#0E0E0E" stroke="#0E0E0E" stroke-width="3.21242" stroke-miterlimit="10"/>
<path d="M203.216 207.843C241.059 207.843 271.737 177.165 271.737 139.322C271.737 101.479 241.059 70.8013 203.216 70.8013C165.373 70.8013 134.695 101.479 134.695 139.322C134.695 177.165 165.373 207.843 203.216 207.843Z" fill="white" stroke="#0E0E0E" stroke-width="3.21242" stroke-miterlimit="10"/>
<path d="M203.216 195.797C234.406 195.797 259.691 170.512 259.691 139.322C259.691 108.133 234.406 82.8481 203.216 82.8481C172.027 82.8481 146.742 108.133 146.742 139.322C146.742 170.512 172.027 195.797 203.216 195.797Z" fill="#0E0E0E" stroke="#0E0E0E" stroke-width="3.21242" stroke-miterlimit="10"/>
<path d="M219.408 154.548C237.398 154.548 251.982 139.964 251.982 121.974C251.982 103.984 237.398 89.3999 219.408 89.3999C201.418 89.3999 186.834 103.984 186.834 121.974C186.834 139.964 201.418 154.548 219.408 154.548Z" fill="white" stroke="#0E0E0E" stroke-width="3.21242" stroke-miterlimit="10"/>
<path d="M503.097 531.782C544.328 531.782 577.753 498.357 577.753 457.125C577.753 415.894 544.328 382.469 503.097 382.469C461.865 382.469 428.44 415.894 428.44 457.125C428.44 498.357 461.865 531.782 503.097 531.782Z" fill="#0E0E0E" stroke="#0E0E0E" stroke-width="3.21242" stroke-miterlimit="10"/>
<path d="M495.997 534.353C537.229 534.353 570.654 500.928 570.654 459.696C570.654 418.464 537.229 385.04 495.997 385.04C454.766 385.04 421.341 418.464 421.341 459.696C421.341 500.928 454.766 534.353 495.997 534.353Z" fill="white" stroke="#0E0E0E" stroke-width="3.21242" stroke-miterlimit="10"/>
<path d="M495.996 521.246C529.989 521.246 557.546 493.689 557.546 459.696C557.546 425.703 529.989 398.146 495.996 398.146C462.003 398.146 434.446 425.703 434.446 459.696C434.446 493.689 462.003 521.246 495.996 521.246Z" fill="#2B63F0"/>
<path d="M478.394 514.115C497.998 514.115 513.891 498.222 513.891 478.618C513.891 459.013 497.998 443.121 478.394 443.121C458.789 443.121 442.896 459.013 442.896 478.618C442.896 498.222 458.789 514.115 478.394 514.115Z" fill="white" stroke="#0E0E0E" stroke-width="3.21242" stroke-miterlimit="10"/>
<path d="M300.2 49.1494H276.332V55.1245H300.2V49.1494Z" fill="white" stroke="#0E0E0E" stroke-width="3.21242" stroke-miterlimit="10"/>
<path d="M83.3947 73.0181H51.656C49.9173 73.0181 48.5078 74.4275 48.5078 76.1662V91.5537C48.5078 93.2924 49.9173 94.7019 51.656 94.7019H83.3947C85.1333 94.7019 86.5428 93.2924 86.5428 91.5537V76.1662C86.5428 74.4275 85.1333 73.0181 83.3947 73.0181Z" fill="white"/>
<path d="M775.283 294.352C769.758 302.415 759.542 307.909 746.853 308.423L471.228 319.634C449.641 320.501 429.145 306.624 425.451 288.634L394.708 138.839C391.656 123.902 401.133 110.827 416.778 106.33" fill="#0E0E0E"/>
<path d="M775.283 294.352C769.758 302.415 759.542 307.909 746.853 308.423L471.228 319.634C449.641 320.501 429.145 306.624 425.451 288.634L394.708 138.839C391.656 123.902 401.133 110.827 416.778 106.33" stroke="#0E0E0E" stroke-width="3.21242" stroke-miterlimit="10"/>
<path d="M740.815 84.3891C753.889 89.4969 764.137 99.8087 766.643 112.016L797.386 261.811C801.08 279.8 786.56 295.092 764.972 295.991L489.347 307.202C467.759 308.07 447.264 294.192 443.57 276.203L412.827 126.408C409.133 108.418 423.653 93.1269 445.24 92.2596L691.858 82.2368" fill="white"/>
<path d="M740.815 84.3891C753.889 89.4969 764.137 99.8087 766.643 112.016L797.386 261.811C801.08 279.8 786.56 295.092 764.972 295.991L489.347 307.202C467.759 308.07 447.264 294.192 443.57 276.203L412.827 126.408C409.133 108.418 423.653 93.1269 445.24 92.2596L691.858 82.2368" stroke="#1D1D1B" stroke-width="3.21242" stroke-miterlimit="10"/>
<path d="M714.666 110.538C726.005 113.332 735.418 121.556 737.474 131.579L760.732 244.945C763.366 257.731 753.054 268.589 737.699 269.199L505.248 278.643C489.925 279.286 475.373 269.424 472.738 256.638L449.481 143.304C446.846 130.519 457.158 119.661 472.514 119.018L662.785 111.276" fill="#2B63F0"/>
<path d="M714.666 110.538C726.005 113.332 735.418 121.556 737.474 131.579L760.732 244.945C763.366 257.731 753.054 268.589 737.699 269.199L505.248 278.643C489.925 279.286 475.373 269.424 472.738 256.638L449.481 143.304C446.846 130.519 457.158 119.661 472.514 119.018L662.785 111.276" stroke="#1D1D1B" stroke-width="3.21242" stroke-miterlimit="10"/>
<path d="M271.737 97.0778C277.645 97.0778 282.435 92.2884 282.435 86.3805C282.435 80.4725 277.645 75.6831 271.737 75.6831C265.829 75.6831 261.04 80.4725 261.04 86.3805C261.04 92.2884 265.829 97.0778 271.737 97.0778Z" fill="#0E0E0E" stroke="#0E0E0E" stroke-width="3.21242" stroke-miterlimit="10"/>
<path d="M276.332 94.5729C282.24 94.5729 287.029 89.7836 287.029 83.8756C287.029 77.9676 282.24 73.1782 276.332 73.1782C270.424 73.1782 265.635 77.9676 265.635 83.8756C265.635 89.7836 270.424 94.5729 276.332 94.5729Z" fill="white" stroke="#0E0E0E" stroke-width="3.21242" stroke-miterlimit="10"/>
<path d="M418.996 223.873L432.713 223.294L423.686 179.316L409.969 179.863L418.996 223.873Z" fill="#2B63F0" stroke="#1D1D1B" stroke-width="3.21242" stroke-miterlimit="10"/>
<path d="M68.5204 741.361L68.1991 739.915L1.76633 434.8C0.866856 430.688 3.9829 426.801 8.19117 426.801H15.6761L376.463 726.873L378.84 737.763L379 739.915H67.8779" fill="#0E0E0E"/>
<path d="M68.5204 741.361L68.1991 739.916L1.76633 434.8C0.866856 430.688 3.9829 426.801 8.19117 426.801H15.6761L376.463 726.873L378.84 737.763L379 739.916H67.8779" stroke="#1D1D1B" stroke-width="3.21242" stroke-miterlimit="10"/>
<path d="M80.7277 726.873H391.85L391.69 724.721L325.096 418.931C324.422 415.912 321.755 413.727 318.639 413.727H21.041C16.8328 413.727 13.7167 417.614 14.5841 421.726L81.3381 728.287" fill="white"/>
<path d="M80.7277 726.873H391.85L391.69 724.721L325.096 418.931C324.422 415.912 321.755 413.727 318.639 413.727H21.041C16.8328 413.727 13.7167 417.614 14.5841 421.726L81.3381 728.287" stroke="#1D1D1B" stroke-width="3.21242" stroke-miterlimit="10"/>
<path d="M67.1071 432.07L105.977 610.616C106.427 612.608 108.194 614.053 110.25 614.053H323.876C326.67 614.053 328.726 611.483 328.148 608.753L289.278 430.207C288.828 428.215 287.061 426.77 285.005 426.77H71.3797C68.5849 426.77 66.5289 429.339 67.1071 432.07Z" fill="#2B63F0"/>
<path d="M780.971 597.123L781.067 596.641L803.329 494.454C803.618 493.073 802.59 491.788 801.177 491.788H798.671L677.82 592.305L677.017 595.967L676.953 596.674H781.035H781.131" fill="#0E0E0E"/>
<path d="M780.971 597.123L781.067 596.641L803.329 494.454C803.618 493.073 802.59 491.788 801.177 491.788H798.671L677.82 592.305L677.017 595.967L676.953 596.674H781.035H781.131" stroke="#1D1D1B" stroke-width="3.21242" stroke-miterlimit="10"/>
<path d="M776.858 592.274H672.647L672.711 591.535L695.005 489.123C695.23 488.095 696.13 487.388 697.158 487.388H796.839C798.252 487.388 799.313 488.705 798.991 490.054L776.633 592.723" fill="white"/>
<path d="M776.858 592.274H672.647L672.711 591.535L695.005 489.123C695.23 488.095 696.13 487.388 697.158 487.388H796.839C798.252 487.388 799.313 488.705 798.991 490.054L776.633 592.723" stroke="#1D1D1B" stroke-width="3.21242" stroke-miterlimit="10"/>
<path d="M781.419 493.524L768.409 553.339C768.248 554.013 767.67 554.495 766.996 554.495H695.455C694.523 554.495 693.817 553.628 694.042 552.728L707.052 492.913C707.212 492.239 707.791 491.757 708.465 491.757H780.006C780.937 491.757 781.644 492.624 781.419 493.524Z" fill="#2B63F0"/>
<path d="M826.683 802.493C819.648 807.473 812.259 811.777 804.839 815.343C745.28 846.857 661.854 843.13 610.648 817.046C592.434 807.633 568.212 792.728 567.345 771.204C569.497 755.849 582.957 746.212 597.991 737.442C605.476 733.105 613.314 728.961 620.349 724.464C621.988 723.436 623.433 722.408 624.75 721.412C627.031 719.677 628.894 718.039 630.372 716.401L625.329 721.059C611.323 715.598 596.064 708.787 585.431 703.005C562.879 690.733 510.678 679.394 515.014 661.822C515.4 660.248 516.781 659.091 518.933 658.288L639.206 690.38C640.716 685.24 643.704 679.49 650.514 672.647L650.964 672.23C657.421 666.415 664.327 661.533 671.684 657.485" fill="#0E0E0E"/>
<path d="M826.683 802.493C819.648 807.473 812.259 811.777 804.839 815.343C745.28 846.857 661.854 843.13 610.648 817.046C592.434 807.633 568.212 792.728 567.345 771.204C569.497 755.849 582.957 746.212 597.991 737.442C605.476 733.105 613.314 728.961 620.349 724.464C621.988 723.436 623.433 722.408 624.75 721.412C627.031 719.677 628.894 718.039 630.372 716.401L625.329 721.059C611.323 715.598 596.064 708.787 585.431 703.005C562.879 690.733 510.678 679.394 515.014 661.822C515.4 660.248 516.781 659.091 518.933 658.288L639.206 690.38C640.716 685.24 643.704 679.49 650.514 672.647L650.964 672.23C657.421 666.415 664.327 661.533 671.684 657.485" stroke="#1D1D1B" stroke-width="3.21242" stroke-linecap="round" stroke-linejoin="round"/>
<path d="M608.754 190.495L642.709 180.119C644.99 179.412 647.046 178.192 648.748 176.489L793.725 31.5127C797.901 27.3366 799.282 20.9439 796.841 15.5791C794.399 10.2144 789.741 5.39578 784.087 2.82585C778.433 0.255914 772.33 1.76575 768.154 5.94189L623.081 151.015C621.443 152.653 620.222 154.645 619.515 156.861L609.814 187.154C609.107 189.371 607.886 191.363 606.248 193.001L605.124 194.125L612.384 186.865" fill="#0E0E0E"/>
<path d="M608.754 190.495L642.709 180.119C644.99 179.412 647.046 178.192 648.748 176.489L793.725 31.5127C797.901 27.3366 799.282 20.9439 796.841 15.5791C794.399 10.2144 789.741 5.39578 784.087 2.82585C778.433 0.255914 772.33 1.76575 768.154 5.94189L623.081 151.015C621.443 152.653 620.222 154.645 619.515 156.861L609.814 187.154C609.107 189.371 607.886 191.363 606.248 193.001L605.124 194.125L612.384 186.865" stroke="#0E0E0E" stroke-width="3.21242" stroke-miterlimit="10"/>
<path d="M347.133 836.415L326.317 855.722C324.935 857.007 323.233 857.939 321.402 858.453L162.837 900.503C158.275 901.724 153.296 900.118 150.565 896.263C147.835 892.408 146.357 887.268 146.871 882.321C147.385 877.374 150.855 873.776 155.448 872.555L314.077 830.472C315.876 829.99 317.74 829.958 319.539 830.344L344.403 835.805C346.202 836.19 348.097 836.158 349.864 835.677L351.117 835.355L343.182 837.443" fill="#0E0E0E"/>
<path d="M347.133 836.415L326.317 855.722C324.935 857.007 323.233 857.939 321.402 858.453L162.837 900.503C158.275 901.724 153.296 900.118 150.565 896.263C147.835 892.408 146.357 887.268 146.871 882.321C147.385 877.374 150.855 873.776 155.448 872.555L314.077 830.472C315.876 829.99 317.74 829.958 319.539 830.344L344.403 835.805C346.202 836.19 348.097 836.158 349.864 835.677L351.117 835.355L343.182 837.443" stroke="#0E0E0E" stroke-width="3.21242" stroke-miterlimit="10"/>
<path d="M648.587 697.318C650.739 688.227 648.747 678.879 662.593 664.937L663.043 664.519C687.618 642.386 718.939 633.744 754.629 632.17C798.414 630.789 859.225 642.354 880.363 680.003C906.929 734.807 862.919 785.659 816.95 807.632C757.359 839.146 673.965 835.42 622.727 809.335C604.545 799.923 580.323 784.985 579.456 763.494C582.636 740.621 610.841 730.438 632.011 717.042" fill="white"/>
<path d="M648.587 697.318C650.739 688.227 648.747 678.879 662.593 664.937L663.043 664.519C687.618 642.386 718.939 633.744 754.629 632.17C798.414 630.789 859.225 642.354 880.363 680.003C906.929 734.807 862.919 785.659 816.95 807.632C757.359 839.146 673.965 835.42 622.727 809.335C604.545 799.923 580.323 784.985 579.456 763.494C582.636 740.621 610.841 730.438 632.011 717.042" stroke="#1D1D1B" stroke-width="3.21242" stroke-miterlimit="10"/>
<path d="M697.117 702.239C708.079 700.059 715.403 690.434 713.475 680.742C711.547 671.049 701.097 664.96 690.135 667.141C679.172 669.321 671.849 678.946 673.776 688.638C675.704 698.33 686.154 704.42 697.117 702.239Z" fill="#2B63F0"/>
<path d="M784.791 672.808C785.668 662.965 777.353 654.182 766.22 653.19C755.087 652.198 745.351 659.374 744.474 669.217C743.597 679.06 751.912 687.843 763.045 688.835C774.178 689.827 783.914 682.651 784.791 672.808Z" fill="#2B63F0"/>
<path d="M847.315 713.323C852.256 704.765 848.414 693.296 838.734 687.708C829.055 682.119 817.202 684.526 812.261 693.085C807.32 701.643 811.161 713.111 820.841 718.7C830.521 724.288 842.374 721.881 847.315 713.323Z" fill="#2B63F0"/>
<path d="M824.287 776.329C832.813 769.101 834.544 757.131 828.154 749.593C821.764 742.055 809.672 741.804 801.146 749.031C792.62 756.259 790.889 768.229 797.279 775.767C803.67 783.305 815.761 783.556 824.287 776.329Z" fill="#2B63F0"/>
<path d="M519.159 656.81C514.822 674.382 566.991 685.754 589.575 698.025C613.828 711.228 662.143 729.732 664.97 725.459C672.776 713.734 644.314 689.095 601.91 669.499C572.035 655.686 521.889 645.759 519.159 656.81Z" fill="white" stroke="#1D1D1B" stroke-width="3.21242" stroke-miterlimit="10"/>
<path d="M702.009 742.453C694.46 735.836 692.725 743.449 685.369 742.935C684.052 742.775 682.446 742.421 681.225 742.132C680.518 741.971 680.133 741.907 680.101 741.971C685.69 745.088 692.822 744.67 699.086 742.999" fill="#1D1D1B"/>
<path d="M706.282 738.181C703.52 735.803 700.5 733.876 696.741 733.715C694.139 733.587 691.762 734.583 689.481 735.739C689.096 735.932 688.71 736.125 688.325 736.317C687.779 736.607 686.237 737.088 688.325 736.382C687.875 736.542 687.425 736.703 686.976 736.831C686.719 736.896 686.494 736.928 686.237 736.992C685.273 737.217 687.875 736.896 686.815 736.928C686.526 736.928 686.269 736.928 685.98 736.928H685.691C685.08 736.896 685.305 736.928 686.333 737.024C685.755 736.799 684.984 736.767 684.374 736.639C683.699 736.478 683.024 736.317 682.35 736.189C680.326 735.803 679.073 735.9 677.114 736.767C675.154 737.634 674.126 740.012 674.126 741.971C674.126 744.027 675.25 746.179 677.114 747.175C684.406 751.127 692.919 750.838 700.725 748.814C703.777 748.011 705.929 744.477 704.933 741.393C703.937 738.309 700.789 736.349 697.512 737.185C695.97 737.57 694.396 737.731 692.854 738.148C694.493 737.731 693.497 738.052 692.983 738.116C692.629 738.148 692.244 738.181 691.891 738.213C691.088 738.277 690.317 738.277 689.513 738.277C688.807 738.277 687.875 738.309 687.168 738.116L688.068 738.245C687.843 738.213 687.586 738.181 687.361 738.148C687.008 738.084 686.654 738.02 686.301 737.924C685.626 737.763 684.92 737.57 684.277 737.345C684.052 737.281 683.827 737.185 683.603 737.088L684.406 737.41C684.117 737.153 683.474 736.96 683.121 736.767V747.175H683.185C682.157 747.432 681.161 747.689 680.133 747.978C678.174 747.946 678.848 747.786 679.587 747.946C679.844 748.011 680.133 748.075 680.39 748.139C681.033 748.3 681.675 748.428 682.35 748.557C683.892 748.846 685.434 749.103 687.008 748.974C689.706 748.717 692.019 747.946 694.428 746.726C695.103 746.404 695.745 746.051 696.42 745.73C697.223 745.312 694.846 746.276 695.713 746.019C695.874 745.987 696.035 745.89 696.195 745.858C696.356 745.826 696.516 745.762 696.677 745.73C697.32 745.537 697.48 745.922 695.874 745.826C696.195 745.826 696.581 745.826 696.902 745.826C695.135 745.89 695.553 745.601 696.163 745.762C696.195 745.762 696.838 746.019 696.87 745.987C696.773 746.083 695.296 745.216 696.292 745.794C696.517 745.923 696.741 746.051 696.934 746.179C697.191 746.34 697.48 746.597 697.769 746.758L697.127 746.276C697.32 746.436 697.544 746.597 697.737 746.79C698.958 747.85 700.339 748.557 702.01 748.557C703.487 748.557 705.254 747.914 706.282 746.79C708.37 744.541 708.82 740.461 706.282 738.277V738.181Z" fill="#2B63F0"/>
<path d="M674.575 714.697C681.224 711.581 689.255 716.335 692.982 720.512C695.905 723.788 695.006 725.298 698.411 730.534C704.065 739.24 709.783 739.979 709.397 742.838C708.69 748.106 688.259 754.146 675.699 745.279C674.35 744.348 669.949 741.103 668.118 735.224C665.965 728.35 667.475 718.006 674.575 714.697Z" stroke="#1D1D1B" stroke-width="3.21242" stroke-miterlimit="10"/>
<path d="M350.153 293.935C340.034 283.88 311.251 314.527 293.84 324.807C275.111 335.857 243.083 360.979 244.818 364.609C249.573 374.599 277.745 365.38 308.103 344.659C329.497 330.075 356.514 300.232 350.153 293.935Z" fill="#0E0E0E" stroke="#0E0E0E" stroke-width="3.21242" stroke-miterlimit="10"/>
<path d="M248.19 375.435C247.58 381.185 241.155 384.655 236.818 385.522C233.413 386.197 232.771 384.944 227.856 385.136C219.696 385.426 216.869 388.991 215.102 387.578C211.826 384.976 216.002 368.721 227.085 363.838C228.273 363.324 232.225 361.622 236.947 362.778C242.472 364.127 248.833 369.331 248.19 375.435Z" fill="#0E0E0E" stroke="#0E0E0E" stroke-width="3.21242" stroke-miterlimit="10"/>
<path d="M766.29 13.1055L636.862 142.534" stroke="white" stroke-width="3.21242" stroke-linecap="round" stroke-linejoin="round"/>
</g>
<defs>
<clipPath id="clip0_113_2">
<rect width="890" height="902.496" fill="white"/>
</clipPath>
</defs>
</svg>
