<svg width="65" height="65" viewBox="0 0 65 65" fill="none" xmlns="http://www.w3.org/2000/svg">
<circle cx="32.5" cy="32.5" r="30" stroke="white" stroke-width="5"/>
<path d="M20.4109 23.6654C20.0006 21.8186 21.2819 19.8469 22.5906 18.6691C23.2097 18.1119 23.7691 17.5014 24.4684 17.038C25.2424 16.5251 26.1169 16.1651 27.0052 15.9113C27.9289 15.6474 28.9789 15.7825 29.9323 15.7272C31.1718 15.6554 32.4787 15.6343 33.6916 15.9076C36.1511 16.4619 38.6369 17.1747 40.5583 18.8973C41.3274 19.5869 41.9862 20.2972 42.3477 21.2832C42.7508 22.3826 42.7454 23.4902 42.7454 24.6448C42.7454 27.3389 41.6548 29.8432 39.4832 31.5005C37.8747 32.7281 35.9598 33.0909 34.0598 33.6691C32.689 34.0863 30.8267 34.5961 30.0649 35.9593C29.8454 36.3521 29.826 36.879 29.8219 37.3179C29.8185 37.6794 29.7896 38.07 29.9176 38.4151C30.024 38.7021 30.2102 38.9571 30.3153 39.2435C30.4182 39.5243 30.5509 39.7982 30.5509 40.1014" stroke="#FCFCFC" stroke-width="3" stroke-linecap="round"/>
<path d="M31.0148 46.5301C31.0267 46.4347 31.2837 46.8741 31.14 47.0897C30.881 47.4781 30.6831 47.0807 30.6319 46.7952C30.584 46.5283 30.9018 46.6046 30.8786 46.3607C30.8648 46.2163 30.7099 45.9336 30.9485 45.9336" stroke="#FCFCFC" stroke-width="3" stroke-linecap="round"/>
</svg>
