<svg width="645" height="310" viewBox="0 0 645 310" fill="none" xmlns="http://www.w3.org/2000/svg">
<path d="M199.937 81.5073H120.783L81.2061 150.057L120.783 218.606H199.937L239.514 150.057L199.937 81.5073Z" fill="#0E0E0E"/>
<g filter="url(#filter0_d_958_54)">
<g filter="url(#filter1_d_958_54)">
<path d="M153.694 8.32129C101.398 10.8526 56.5417 41.4899 33.8865 85.4716L33.9159 85.4716H198.237L153.694 8.32129Z" fill="#322BF0"/>
</g>
<path d="M33.8688 85.6158C9.91302 132.171 14.0175 186.336 40.7792 227.947L40.7939 227.922L122.954 85.6157L33.8688 85.6158Z" fill="#2B63F0"/>
<path d="M40.895 228.034C69.2351 272.058 118.196 295.586 167.613 293.215L167.598 293.19L85.4378 150.884L40.895 228.034Z" fill="#2BA1F0"/>
<path d="M167.746 293.159C220.042 290.627 264.898 259.99 287.553 216.008H287.524H123.203L167.746 293.159Z" fill="#2AE3F0"/>
<path d="M287.571 215.864C311.527 169.309 307.423 115.144 280.661 73.5332L280.646 73.5586L198.486 215.865L287.571 215.864Z" fill="#B72AF0"/>
<path d="M280.545 73.4459C252.205 29.422 203.244 5.89397 153.827 8.26487L153.842 8.29032L236.002 150.596L280.545 73.4459Z" fill="#722BF0"/>
</g>
<path d="M280.545 73.446L160.531 149.201L232.951 27.7427C251.554 38.3515 269.09 54.6314 280.545 73.446Z" fill="#EAEAEA"/>
<g filter="url(#filter2_d_958_54)">
<path d="M394.92 146.3C390.55 141.66 384.52 139.39 376.51 139.39H373.51V131.29H393.11C394.43 131.29 395.6 130.21 395.76 128.83L398.02 103.4V103.32C398.18 102.03 397.48 101.08 396.16 100.79C386.42 98.59 376.23 97.48 365.87 97.48C351.15 97.48 340.59 99.8199 334.47 104.45C328.67 108.98 325.83 116.8 325.83 128.33C325.83 137.94 328.06 144.77 332.66 149.22C337.27 153.69 343.23 155.95 350.39 155.95H353.39V164.05H333.15C331.82 164.05 330.66 165.13 330.49 166.51L328.08 193.23L328.07 193.26V193.29C327.92 194.66 328.52 195.54 329.81 195.84C340.03 198.36 351.67 199.63 364.42 199.63C377.77 199.63 387.43 197.26 393.14 192.57C398.69 188.02 401.39 180.18 401.39 168.62C401.39 158.54 399.21 151.03 394.92 146.3Z" fill="#0E0E0E"/>
<path d="M477.32 172.3C477.15 170.92 475.99 169.85 474.66 169.85H443.78V161.75H475.63C476.75 161.75 477.76 161.01 478.04 159.98C479.3 154.79 480.03 149.44 480.21 144.07C480.2 138.35 479.28 133.37 477.38 128.84C475.63 124.69 472.4 121.44 467.49 118.9C462.52 116.42 456.11 115.21 447.91 115.21C433.64 115.21 423.59 118.25 418.03 124.24C412.48 130.38 409.65 141.69 409.65 157.82C409.65 173.52 412.42 184.56 417.9 190.63C423.29 196.6 432.25 199.63 444.52 199.63C456.6 199.63 467.65 198.52 477.39 196.32C479.01 195.94 479.12 194.35 479.08 193.65L477.32 172.3ZM442.81 135.48H451.07V153.09H442.81V135.48Z" fill="#0E0E0E"/>
<path d="M555.17 172.3C555 170.92 553.84 169.85 552.51 169.85H521.63V161.75H553.48C554.6 161.75 555.61 161.01 555.89 159.98C557.15 154.79 557.88 149.44 558.06 144.07C558.05 138.35 557.13 133.37 555.23 128.84C553.48 124.69 550.25 121.44 545.34 118.9C540.37 116.42 533.96 115.21 525.76 115.21C511.49 115.21 501.44 118.25 495.88 124.24C490.33 130.38 487.5 141.69 487.5 157.82C487.5 173.52 490.27 184.56 495.75 190.63C501.14 196.6 510.1 199.63 522.37 199.63C534.45 199.63 545.51 198.52 555.24 196.32C556.86 195.94 556.97 194.35 556.93 193.65L555.17 172.3ZM520.66 135.48H528.92V153.09H520.66V135.48Z" fill="#0E0E0E"/>
<path d="M637.47 146.8C637.81 146.37 638 145.93 638 145.57V120.43C638 118.86 636.77 117.63 635.2 117.63H615.7C615.01 117.63 614.26 118.17 613.91 118.93L602.95 142.8L602.15 144.54H593.11L595.08 140.28L607.17 114.17L607.21 114.09C607.22 113.96 607.22 113.79 607.22 113.66V99.9599C607.22 98.2499 606.06 97.1499 604.26 97.1499H604.09L568.82 99.4099C567.33 99.4899 566.31 100.57 566.31 102.05V194.41C566.31 195.98 567.54 197.21 569.12 197.21H598.45C599.79 197.21 600.87 196.74 601.48 195.88C602.1 195.01 602.19 193.81 601.74 192.49L595.15 174.32L593.69 170.3H602.5L603.21 172.29L611.59 195.82C611.71 196.16 612.09 197.21 613.76 197.21H635.2C636.77 197.21 638 195.98 638 194.41V168.46C638 168.14 637.84 167.77 637.59 167.52L637.55 167.48L637.51 167.43L629.61 158.89L627.67 156.79L629.67 154.76L637.47 146.8Z" fill="#0E0E0E"/>
</g>
<defs>
<filter id="filter0_d_958_54" x="4.08154" y="4.10156" width="301.277" height="301.277" filterUnits="userSpaceOnUse" color-interpolation-filters="sRGB">
<feFlood flood-opacity="0" result="BackgroundImageFix"/>
<feColorMatrix in="SourceAlpha" type="matrix" values="0 0 0 0 0 0 0 0 0 0 0 0 0 0 0 0 0 0 127 0" result="hardAlpha"/>
<feOffset dx="-6" dy="4"/>
<feGaussianBlur stdDeviation="4"/>
<feColorMatrix type="matrix" values="0 0 0 0 0 0 0 0 0 0 0 0 0 0 0 0 0 0 0.45 0"/>
<feBlend mode="normal" in2="BackgroundImageFix" result="effect1_dropShadow_958_54"/>
<feBlend mode="normal" in="SourceGraphic" in2="effect1_dropShadow_958_54" result="shape"/>
</filter>
<filter id="filter1_d_958_54" x="33.8865" y="8.32129" width="175.35" height="86.1504" filterUnits="userSpaceOnUse" color-interpolation-filters="sRGB">
<feFlood flood-opacity="0" result="BackgroundImageFix"/>
<feColorMatrix in="SourceAlpha" type="matrix" values="0 0 0 0 0 0 0 0 0 0 0 0 0 0 0 0 0 0 127 0" result="hardAlpha"/>
<feOffset dx="7" dy="5"/>
<feGaussianBlur stdDeviation="2"/>
<feColorMatrix type="matrix" values="0 0 0 0 0 0 0 0 0 0 0 0 0 0 0 0 0 0 0.43 0"/>
<feBlend mode="normal" in2="BackgroundImageFix" result="effect1_dropShadow_958_54"/>
<feBlend mode="normal" in="SourceGraphic" in2="effect1_dropShadow_958_54" result="shape"/>
</filter>
<filter id="filter2_d_958_54" x="311.83" y="93.1499" width="328.17" height="118.48" filterUnits="userSpaceOnUse" color-interpolation-filters="sRGB">
<feFlood flood-opacity="0" result="BackgroundImageFix"/>
<feColorMatrix in="SourceAlpha" type="matrix" values="0 0 0 0 0 0 0 0 0 0 0 0 0 0 0 0 0 0 127 0" result="hardAlpha"/>
<feOffset dx="-6" dy="4"/>
<feGaussianBlur stdDeviation="4"/>
<feColorMatrix type="matrix" values="0 0 0 0 0 0 0 0 0 0 0 0 0 0 0 0 0 0 0.45 0"/>
<feBlend mode="normal" in2="BackgroundImageFix" result="effect1_dropShadow_958_54"/>
<feBlend mode="normal" in="SourceGraphic" in2="effect1_dropShadow_958_54" result="shape"/>
</filter>
</defs>
</svg>
