<svg width="992" height="460" viewBox="0 0 992 460" fill="none" xmlns="http://www.w3.org/2000/svg">
<g filter="url(#filter0_d_503_702)">
<path d="M292.234 116.643H167.042L104.445 225.055L167.042 333.468H292.234L354.815 225.055L292.234 116.643Z" fill="#0E0E0E"/>
<g filter="url(#filter1_d_503_702)">
<path d="M219.091 0.892212C136.393 4.89345 65.4463 53.3511 29.625 122.906H29.6724H289.547L219.091 0.892212Z" fill="#322BF0"/>
</g>
<path d="M29.5935 123.143C-8.29965 196.763 -1.79962 282.433 40.5217 348.24V348.193L170.475 123.143H29.5935Z" fill="#2B63F0"/>
<path d="M40.6958 348.367C85.5159 417.985 162.947 455.198 241.105 451.45V451.403L111.136 226.337L40.6958 348.351V348.367Z" fill="#2BA1F0"/>
<path d="M241.31 451.37C324.023 447.369 394.954 398.911 430.791 329.356H430.744H170.869L241.31 451.37Z" fill="#2AE3F0"/>
<path d="M430.823 329.12C468.717 255.485 462.217 169.83 419.895 104.023V104.07L289.926 329.136H430.823V329.12Z" fill="#B72AF0"/>
<path d="M419.706 103.896C374.886 34.2616 297.455 -2.95144 219.312 0.796756V0.844202L349.281 225.91L419.722 103.896H419.706Z" fill="#EEEEEE"/>
<path d="M419.705 103.896L229.907 223.696L344.441 31.6051C373.857 48.385 401.597 74.132 419.705 103.88" fill="#EAEAEA"/>
</g>
<g filter="url(#filter2_d_503_702)">
<path d="M601.348 218.42L601.354 218.427C608.383 226.177 611.85 238.354 611.85 254.41C611.85 272.812 607.557 285.592 598.431 293.074L601.348 218.42ZM601.348 218.42L601.341 218.413M601.348 218.42L601.341 218.413M601.341 218.413C594.191 210.821 584.358 207.164 571.485 207.164H567.758M601.341 218.413L567.758 207.164M567.758 207.164V196.389H597.738C600.377 196.389 602.631 194.258 602.94 191.598L602.941 191.585L602.942 191.571L606.517 151.353L606.521 151.308V151.263V151.197C606.657 149.984 606.401 148.852 605.73 147.94C605.05 147.016 604.017 146.414 602.783 146.142C587.303 142.646 571.113 140.883 554.657 140.883C531.33 140.883 514.341 144.58 504.384 152.112L504.378 152.117L504.372 152.122C494.839 159.567 490.316 172.32 490.316 190.69C490.316 206.026 493.873 217.151 501.427 224.459C508.93 231.734 518.621 235.389 530.176 235.389H533.903V246.165H502.91C500.251 246.165 498.02 248.298 497.694 250.948L497.691 250.965L497.69 250.981L493.883 293.186L493.876 293.207L493.865 293.315C493.728 294.563 493.92 295.716 494.557 296.65C495.197 297.588 496.192 298.168 497.391 298.448C513.647 302.456 532.137 304.47 552.364 304.47C572.588 304.47 589.117 300.723 598.43 293.074L567.758 207.164Z" fill="#0A0A0A" stroke="black" stroke-width="2.03498"/>
<path d="M731.931 260.145L731.929 260.125L731.927 260.105C731.6 257.449 729.364 255.337 726.71 255.337H678.891V244.561H728.244C730.441 244.561 732.466 243.115 733.038 241.012L733.041 240.998L733.045 240.985C735.054 232.709 736.218 224.179 736.505 215.617L736.505 215.599L736.505 215.581C736.489 206.423 735.015 198.411 731.95 191.103L731.95 191.101C729.07 184.272 723.766 178.973 715.838 174.872L715.832 174.869L715.825 174.866C707.773 170.848 697.462 168.923 684.405 168.923C661.751 168.923 645.491 173.738 636.403 183.529L636.403 183.529L636.394 183.539C627.347 193.547 622.879 211.773 622.879 237.329C622.879 262.892 627.255 280.005 636.188 289.9L636.943 289.218L636.188 289.9C644.988 299.646 659.501 304.469 679.043 304.469C698.509 304.469 715.761 302.708 731.252 299.209L731.26 299.207C732.903 298.822 733.823 297.788 734.286 296.691C734.728 295.645 734.752 294.562 734.716 293.936L734.716 293.923L734.715 293.911L731.931 260.145ZM677.357 203.015H688.385V228.83H677.357V203.015Z" fill="#0A0A0A" stroke="black" stroke-width="2.03498"/>
<path d="M855.052 260.145L855.051 260.125L855.048 260.104C854.721 257.449 852.485 255.337 849.831 255.337H802.012V244.561H851.365C853.562 244.561 855.587 243.115 856.159 241.012L856.162 240.998L856.166 240.985C858.175 232.709 859.339 224.179 859.626 215.617L859.626 215.599L859.626 215.581C859.61 206.423 858.137 198.411 855.071 191.103L855.071 191.101C852.191 184.272 846.887 178.973 838.959 174.872L838.953 174.869L838.946 174.866C830.894 170.848 820.583 168.923 807.526 168.923C784.872 168.923 768.612 173.738 759.524 183.529L759.524 183.529L759.515 183.539C750.469 193.547 746 211.773 746 237.329C746 262.892 750.376 280.005 759.309 289.9L760.065 289.218L759.309 289.9C768.109 299.646 782.622 304.469 802.165 304.469C821.63 304.469 838.898 302.708 854.373 299.209L854.381 299.207C856.024 298.822 856.944 297.788 857.407 296.691C857.849 295.645 857.873 294.562 857.837 293.936L857.837 293.923L857.836 293.911L855.052 260.145ZM800.478 203.015H811.506V228.83H800.478V203.015Z" fill="#0A0A0A" stroke="black" stroke-width="2.03498"/>
<path d="M984.962 220.574L984.924 220.613L972.588 233.202L972.586 233.204L970.105 235.723L972.514 238.33L972.514 238.331L985.008 251.837L985.032 251.864L985.055 251.892L985.083 251.927L985.106 251.95L985.107 251.95C985.674 252.518 986.053 253.355 986.053 254.157V295.197C986.053 298.242 983.652 300.643 980.607 300.643H946.7C945.143 300.643 944.073 300.144 943.361 299.463C942.677 298.808 942.414 298.066 942.309 297.768L984.962 220.574ZM984.962 220.574L984.996 220.532C985.604 219.762 986.053 218.847 986.053 217.956V178.196C986.053 175.151 983.652 172.751 980.607 172.751H949.768C948.191 172.751 946.692 173.923 946.013 175.398L946.012 175.4L928.679 213.15L928.679 213.15L927.686 215.309H915.633L918.08 210.017L918.08 210.016L937.194 168.737L937.251 168.624L937.34 168.446L937.355 168.248C937.374 168.002 937.374 167.701 937.374 167.506V167.489V145.823C937.374 144.232 936.828 142.84 935.784 141.849C934.745 140.862 933.306 140.361 931.675 140.361H931.406H931.374L931.341 140.363L875.572 143.937C875.57 143.937 875.568 143.937 875.566 143.937C872.674 144.095 870.639 146.247 870.639 149.128V295.197C870.639 298.244 873.042 300.643 876.101 300.643H922.487C924.832 300.643 926.9 299.814 928.109 298.11C929.335 296.388 929.434 294.122 928.653 291.832L928.65 291.823L928.646 291.813L918.224 263.077L918.224 263.077L916.411 258.084H928.175L929.056 260.555L929.056 260.556L942.308 297.765L942.309 297.767L984.962 220.574Z" fill="#0A0A0A" stroke="black" stroke-width="2.03498"/>
</g>
<defs>
<filter id="filter0_d_503_702" x="0.553573" y="0.538696" width="459.31" height="459.309" filterUnits="userSpaceOnUse" color-interpolation-filters="sRGB">
<feFlood flood-opacity="0" result="BackgroundImageFix"/>
<feColorMatrix in="SourceAlpha" type="matrix" values="0 0 0 0 0 0 0 0 0 0 0 0 0 0 0 0 0 0 127 0" result="hardAlpha"/>
<feOffset dy="4.06996"/>
<feGaussianBlur stdDeviation="2.03498"/>
<feComposite in2="hardAlpha" operator="out"/>
<feColorMatrix type="matrix" values="0 0 0 0 0 0 0 0 0 0 0 0 0 0 0 0 0 0 0.25 0"/>
<feBlend mode="normal" in2="BackgroundImageFix" result="effect1_dropShadow_503_702"/>
<feBlend mode="normal" in="SourceGraphic" in2="effect1_dropShadow_503_702" result="shape"/>
</filter>
<filter id="filter1_d_503_702" x="29.625" y="0.892212" width="277.319" height="136.248" filterUnits="userSpaceOnUse" color-interpolation-filters="sRGB">
<feFlood flood-opacity="0" result="BackgroundImageFix"/>
<feColorMatrix in="SourceAlpha" type="matrix" values="0 0 0 0 0 0 0 0 0 0 0 0 0 0 0 0 0 0 127 0" result="hardAlpha"/>
<feOffset dx="11.0706" dy="7.90758"/>
<feGaussianBlur stdDeviation="3.16303"/>
<feColorMatrix type="matrix" values="0 0 0 0 0 0 0 0 0 0 0 0 0 0 0 0 0 0 0.43 0"/>
<feBlend mode="normal" in2="BackgroundImageFix" result="effect1_dropShadow_503_702"/>
<feBlend mode="normal" in="SourceGraphic" in2="effect1_dropShadow_503_702" result="shape"/>
</filter>
<filter id="filter2_d_503_702" x="485.228" y="139.344" width="505.912" height="174.284" filterUnits="userSpaceOnUse" color-interpolation-filters="sRGB">
<feFlood flood-opacity="0" result="BackgroundImageFix"/>
<feColorMatrix in="SourceAlpha" type="matrix" values="0 0 0 0 0 0 0 0 0 0 0 0 0 0 0 0 0 0 127 0" result="hardAlpha"/>
<feOffset dy="4.06996"/>
<feGaussianBlur stdDeviation="2.03498"/>
<feComposite in2="hardAlpha" operator="out"/>
<feColorMatrix type="matrix" values="0 0 0 0 0 0 0 0 0 0 0 0 0 0 0 0 0 0 0.25 0"/>
<feBlend mode="normal" in2="BackgroundImageFix" result="effect1_dropShadow_503_702"/>
<feBlend mode="normal" in="SourceGraphic" in2="effect1_dropShadow_503_702" result="shape"/>
</filter>
</defs>
</svg>
