<?xml version="1.0" encoding="utf-8"?>
<!-- Generator: Adobe Illustrator 28.3.0, SVG Export Plug-In . SVG Version: 6.00 Build 0)  -->
<svg version="1.1" id="Camada_1" xmlns="http://www.w3.org/2000/svg" xmlns:xlink="http://www.w3.org/1999/xlink" x="0px" y="0px"
	 viewBox="0 0 43.6 43.6" style="enable-background:new 0 0 43.6 43.6;" xml:space="preserve">
<style type="text/css">
	.st0{fill:url(#SVGID_1_);}
	.st1{fill:#F1F2F2;}
</style>
<radialGradient id="SVGID_1_" cx="-268.6269" cy="433.6432" r="1" gradientTransform="matrix(43.1502 0 0 -43.1502 11599.7021 18748.5352)" gradientUnits="userSpaceOnUse">
	<stop  offset="0" style="stop-color:#FEC053"/>
	<stop  offset="0.3273" style="stop-color:#F2203E"/>
	<stop  offset="0.6485" style="stop-color:#B729A8"/>
	<stop  offset="1" style="stop-color:#5342D6"/>
</radialGradient>
<path class="st0" d="M21.8,43.6c12,0,21.8-9.8,21.8-21.8C43.6,9.8,33.8,0,21.8,0C9.8,0,0,9.8,0,21.8C0,33.8,9.8,43.6,21.8,43.6z"/>
<path class="st1" d="M30.6,37.1H13c-3.6,0-6.6-2.9-6.6-6.6V13c0-3.6,2.9-6.6,6.6-6.6h17.5c3.6,0,6.6,2.9,6.6,6.6v17.5
	C37.1,34.2,34.2,37.1,30.6,37.1z M13,10c-1.6,0-3,1.3-3,3v17.5c0,1.6,1.3,3,3,3h17.5c1.6,0,3-1.3,3-3V13c0-1.6-1.3-3-3-3H13z"/>
<path class="st1" d="M21.8,30.3c-4.7,0-8.5-3.8-8.5-8.5c0-4.7,3.8-8.5,8.5-8.5s8.5,3.8,8.5,8.5C30.3,26.5,26.5,30.3,21.8,30.3z
	 M21.8,16.9c-2.7,0-4.9,2.2-4.9,4.9c0,2.7,2.2,4.9,4.9,4.9c2.7,0,4.9-2.2,4.9-4.9C26.7,19.1,24.5,16.9,21.8,16.9z"/>
<path class="st1" d="M32,13.6c0,0.8-0.7,1.5-1.5,1.5c-0.8,0-1.5-0.7-1.5-1.5c0-0.8,0.7-1.5,1.5-1.5C31.3,12.1,32,12.8,32,13.6z"/>
</svg>
