<svg width="19" height="16" viewBox="0 0 19 16" fill="none" xmlns="http://www.w3.org/2000/svg">
<path d="M18.2266 0.926758H1.42053V14.6758H18.2266V0.926758Z" stroke="#0E0E0E" stroke-width="1.46146" stroke-miterlimit="10"/>
<path d="M9.06334 10.8584H7.53478C7.12938 10.8584 6.74059 10.6973 6.45393 10.4107C6.16727 10.124 6.00623 9.7352 6.00623 9.32981V6.2727C6.00623 5.8673 6.16727 5.4785 6.45393 5.19184C6.74059 4.90518 7.12938 4.74414 7.53478 4.74414H9.06334" stroke="#0E0E0E" stroke-width="1.46146" stroke-miterlimit="10"/>
<path d="M14.4094 10.8584H12.8809C12.4755 10.8584 12.0867 10.6973 11.8 10.4107C11.5133 10.124 11.3523 9.7352 11.3523 9.32981V6.2727C11.3523 5.8673 11.5133 5.4785 11.8 5.19184C12.0867 4.90518 12.4755 4.74414 12.8809 4.74414H14.4094" stroke="#0E0E0E" stroke-width="1.46146" stroke-miterlimit="10"/>
</svg>
