<?xml version="1.0" encoding="utf-8"?>
<!-- Generator: Adobe Illustrator 28.3.0, SVG Export Plug-In . SVG Version: 6.00 Build 0)  -->
<svg version="1.1" xmlns="http://www.w3.org/2000/svg" xmlns:xlink="http://www.w3.org/1999/xlink" x="0px" y="0px"
	 viewBox="0 0 622.1 225.4" style="enable-background:new 0 0 622.1 225.4;" xml:space="preserve">
<style type="text/css">
	.st0{display:none;}
	.st1{display:inline;fill:#FFFFFF;stroke:#1D1D1B;stroke-miterlimit:10;}
	.st2{fill:#FFFFFF;stroke:#1D1D1B;stroke-miterlimit:10;}
	.st3{display:inline;fill:none;stroke:#1D1D1B;stroke-miterlimit:10;}
	.st4{display:none;fill:#FFFFFF;stroke:#1D1D1B;stroke-miterlimit:10;}
	.st5{display:none;fill:none;stroke:#1D1D1B;stroke-miterlimit:10;}
	.st6{fill:#0E0E0E;}
	.st7{display:inline;filter:url(#Adobe_OpacityMaskFilter);}
	.st8{display:inline;mask:url(#SVGID_1_);}
	.st9{fill:#322BF0;}
	.st10{fill:#2B63F0;}
	.st11{fill:#2BA1F0;}
	.st12{fill:#2AE3F0;}
	.st13{fill:#B72AF0;}
	.st14{fill:#722BF0;}
	.st15{fill:#EAEAEA;}
	.st16{display:inline;fill:#1D1D1B;}
	.st17{display:inline;}
</style>
<g id="Camada_1" class="st0">
	<circle class="st1" cx="143.1" cy="122.4" r="142.6"/>
</g>
<g id="Camada_2" class="st0">
	<path class="st2" d="M177.2-16.1c62.3,15.3,108.5,71.5,108.5,138.5c0,78.7-63.8,142.6-142.6,142.6S0.6,201.2,0.6,122.4
		c0-33.7,11.7-64.7,31.3-89.1"/>
	<path class="st3" d="M180.7,57.2L136-20.2L180.7,57.2z"/>
	<path class="st3" d="M136-20.2"/>
	<path class="st3" d="M16.3,57.2"/>
	<path class="st3" d="M136.1-20C83.8-17.5,39,13.2,16.3,57.2l0,0h164.3L136.1-20z"/>
	<path class="st3" d="M16.3,57.3c-24,46.6-19.9,100.7,6.9,142.3l0,0l82.2-142.3L16.3,57.3z"/>
	<path class="st3" d="M23.3,199.7c28.3,44,77.3,67.6,126.7,65.2l0,0L67.9,122.6L23.3,199.7z"/>
	<path class="st3" d="M150.2,264.8c52.3-2.5,97.2-33.2,119.8-77.2l0,0H105.6L150.2,264.8z"/>
	<path class="st3" d="M270,187.5c24-46.6,19.9-100.7-6.9-142.3l0,0l-82.2,142.3L270,187.5z"/>
	<path class="st3" d="M263,45.1c-28.3-44-77.3-67.6-126.7-65.2l0,0l82.2,142.3L263,45.1z"/>
	<path class="st3" d="M136.1-20C83.8-17.5,39,13.2,16.3,57.2l0,0h164.3L136.1-20z"/>
</g>
<g id="Camada_4">
	<path class="st4" d="M177.2-16.1c62.3,15.3,108.5,71.5,108.5,138.5c0,78.7-63.8,142.6-142.6,142.6S0.6,201.2,0.6,122.4
		c0-33.7,11.7-64.7,31.3-89.1"/>
	<path class="st5" d="M180.7,57.2L136-20.2L180.7,57.2z"/>
	<path class="st5" d="M136-20.2"/>
	<path class="st5" d="M16.3,57.2"/>
	<path class="st5" d="M136.1-20C83.8-17.5,39,13.2,16.3,57.2l0,0h164.3L136.1-20z"/>
	<polygon class="st6" points="147.4,50.2 75.9,50.2 40.1,112.2 75.9,174.1 147.4,174.1 183.1,112.2 	"/>
	<g>
		<g>
			<g class="st0">
				<defs>
					<filter id="Adobe_OpacityMaskFilter" filterUnits="userSpaceOnUse" x="6.2" y="14.1" width="141.8" height="207.9">
						<feFlood  style="flood-color:white;flood-opacity:1" result="back"/>
						<feBlend  in="SourceGraphic" in2="back" mode="normal"/>
					</filter>
				</defs>
				<mask maskUnits="userSpaceOnUse" x="6.2" y="14.1" width="141.8" height="207.9" id="SVGID_1_" class="st17">
					<g style="filter:url(#Adobe_OpacityMaskFilter);">
						
							<image style="overflow:visible;" width="609" height="884" xlink:href="8E2A1B18.jpg"  transform="matrix(0.24 0 0 0.24 4.0185 12)">
						</image>
					</g>
				</mask>
				<g class="st8">
					<g>
						<g>
							<g>
								<path d="M112.9,14.1c-41.1,1.8-76.5,24.1-94.2,56.2l0,0h129.2L112.9,14.1z"/>
								<path d="M18.6,70.5c-18.9,34-15.7,73.5,5.4,103.7l0,0L88.7,70.5H18.6z"/>
								<path d="M24.2,174.3c22.3,32.1,60.8,49.2,99.7,47.5l0,0L59.2,118.1L24.2,174.3z"/>
							</g>
						</g>
					</g>
				</g>
			</g>
			<g>
				
					<image style="overflow:visible;opacity:0.43;" width="589" height="304" xlink:href="8E2A1B19.png"  transform="matrix(0.24 0 0 0.24 13.3785 0)">
				</image>
				<g>
					<path class="st9" d="M106.7,1.2c-41.1,2-76.4,26.1-94.2,60.7l0,0h129.3L106.7,1.2z"/>
				</g>
			</g>
			<path class="st10" d="M12.4,62c-18.8,36.6-15.6,79.2,5.4,112l0,0L82.5,62L12.4,62z"/>
			<path class="st11" d="M17.9,174c22.3,34.6,60.8,53.1,99.7,51.3l0,0L53,113.4L17.9,174z"/>
		</g>
		<path class="st12" d="M117.7,225.3c41.1-2,76.4-26.1,94.2-60.7h0H82.7L117.7,225.3z"/>
		<path class="st13" d="M212,164.5c18.8-36.6,15.6-79.2-5.4-112l0,0l-64.6,111.9L212,164.5z"/>
		<path class="st14" d="M206.4,52.4c-22.3-34.6-60.8-53.1-99.7-51.3l0,0l64.6,111.9L206.4,52.4z"/>
	</g>
	<path class="st15" d="M206.4,52.4L112,112l57-95.5C183.6,24.8,197.4,37.6,206.4,52.4"/>
</g>
<g id="Camada_3">
	<g class="st0">
		<path class="st16" d="M145.2-15.5c16.8,0,33.5,3.1,49.6,9.2c15.8,6,31.1,14.9,45.4,26.4c28.8,23.2,53.4,56.7,71.3,96.9
			c0.1,0.2,0.1,0.8,0,1c-17.4,43-42.3,78.9-72,103.8c-29.8,25.1-63.9,38.4-98.3,38.4c-16.8,0-33.5-3.1-49.6-9.2
			c-15.8-6-31.1-14.9-45.4-26.5c-28.8-23.2-53.4-56.7-71.3-97c-0.1-0.2-0.1-0.8,0-1c17.4-42.9,42.4-78.8,72-103.8
			C76.7-2.2,110.7-15.5,145.2-15.5 M145.2-28.5C67.3-28.5-0.7,31.9-37.2,121.8c-1.4,3.5-1.4,7.7,0.2,11.1
			C0.3,217.3,66.1,273.3,141.1,273.3c77.9,0,145.9-60.4,182.4-150.3c1.4-3.5,1.4-7.7-0.2-11.1C286,27.5,220.1-28.5,145.2-28.5
			L145.2-28.5z"/>
	</g>
	<g class="st0">
		<g class="st17">
			<path class="st15" d="M358.9,106v2.1c8.9,0,15.6,2.6,20.6,7.9c4.8,5.3,7.3,13.4,7.3,24.3c0,12.4-3.1,21.1-9.3,26.3
				c-6.3,5.2-16.4,7.7-30.6,7.7c-13.1,0-24.8-1.3-35.3-3.9c-2.7-0.6-4.4-2.9-4-5.8l2.4-26.8c0.3-2.9,2.7-5.2,5.6-5.2h17.2v-2.1
				c-8.1,0-14.7-2.6-19.8-7.6c-5.2-5-7.7-12.6-7.7-23c0-12.4,3.2-21.1,9.8-26.3c6.6-5,17.6-7.6,33.2-7.6c10.6,0,21,1.1,30.9,3.4
				c2.9,0.6,4.5,3.1,4.2,5.8l-2.3,25.5c-0.3,2.9-2.7,5.2-5.6,5.2H358.9z"/>
		</g>
		<g class="st17">
			<path class="st15" d="M398.3,93.9c6.1-6.6,16.8-10,32.1-10c8.5,0,15.5,1.3,21,4c5.3,2.7,9.2,6.4,11.3,11.4
				c2.1,5,3.1,10.5,3.1,16.4c-0.2,5-0.8,10.6-2.3,16.6c-0.6,2.4-2.9,4-5.3,4h-28.9v2.1h27.9c2.9,0,5.3,2.3,5.6,5.2l1.8,21.4
				c0.2,2.7-1.3,5.2-4,5.8c-10,2.3-21.1,3.4-33.5,3.4c-13.4,0-22.9-3.4-28.9-10s-9-18.2-9-34.8C389.1,112.6,392.1,100.7,398.3,93.9z
				 M428.2,121.8h2.3v-11.6h-2.3V121.8z"/>
		</g>
		<g class="st17">
			<path class="st15" d="M476.1,93.9c6.1-6.6,16.8-10,32.1-10c8.5,0,15.5,1.3,21,4c5.3,2.7,9.2,6.4,11.3,11.4
				c2.1,5,3.1,10.5,3.1,16.4c-0.2,5-0.8,10.6-2.3,16.6c-0.6,2.4-2.9,4-5.3,4H507v2.1h27.9c2.9,0,5.3,2.3,5.6,5.2l1.8,21.4
				c0.2,2.7-1.3,5.2-4,5.8c-10,2.3-21.1,3.4-33.5,3.4c-13.4,0-22.9-3.4-28.9-10s-9-18.2-9-34.8C466.9,112.6,470,100.7,476.1,93.9z
				 M506.1,121.8h2.3v-11.6h-2.3V121.8z"/>
		</g>
		<g class="st17">
			<path class="st15" d="M545.7,73.7c0-3.1,2.3-5.5,5.3-5.6l35.3-2.3c3.5-0.2,6.3,2.3,6.3,5.8v13.7c0,0.6,0,1.3-0.3,1.8l-12.1,26.1
				h2.4l11-23.9c0.8-1.8,2.6-3.1,4.5-3.1h19.5c3.2,0,5.8,2.6,5.8,5.8v25.1c0,1.1-0.5,2.3-1.3,3.2l-7.9,8.1l7.9,8.5
				c0.8,0.8,1.3,1.9,1.3,3.1v25.9c0,3.2-2.6,5.8-5.8,5.8h-21.4c-2.3,0-4.2-1.1-5-3.4l-8.4-23.5h-2.4l6.6,18.2
				c1.6,4.7-1.3,8.7-6.1,8.7h-29.3c-3.2,0-5.8-2.6-5.8-5.8V73.7z"/>
		</g>
	</g>
	<g class="st0">
		<path class="st16" d="M348.3,69.2c10.4,0,20.6,1.1,30.3,3.3c1.3,0.3,2,1.2,1.9,2.5l0,0l0,0l-2.3,25.4c-0.2,1.4-1.3,2.5-2.7,2.5
			h-16.6h-3v3v2.1v3h3c8,0,14,2.3,18.4,6.9c4.3,4.7,6.5,12.2,6.5,22.3c0,11.6-2.7,19.4-8.3,24c-5.7,4.7-15.4,7.1-28.7,7.1
			c-12.8,0-24.4-1.3-34.6-3.8c-1.3-0.3-1.9-1.2-1.7-2.6l0,0l0,0l2.4-26.7c0.2-1.4,1.3-2.5,2.7-2.5h17.2h3v-3v-2.1v-3h-3
			c-7.2,0-13.1-2.3-17.7-6.7c-4.6-4.4-6.8-11.3-6.8-20.9c0-11.5,2.8-19.3,8.6-23.9C323,71.5,333.6,69.2,348.3,69.2 M348.3,66.2
			c-15.6,0-26.6,2.6-33.2,7.6c-6.6,5.2-9.8,13.9-9.8,26.3c0,10.5,2.6,18.1,7.7,23c5.2,5,11.8,7.6,19.8,7.6v2.1h-17.2
			c-2.9,0-5.3,2.3-5.6,5.2l-2.4,26.8c-0.3,2.9,1.3,5.2,4,5.8c10.5,2.6,22.2,3.9,35.3,3.9c14.2,0,24.3-2.6,30.6-7.7
			c6.3-5.2,9.3-13.9,9.3-26.3c0-11-2.4-19-7.3-24.3c-5-5.3-11.8-7.9-20.6-7.9V106h16.6c2.9,0,5.3-2.3,5.6-5.2l2.3-25.5
			c0.3-2.7-1.3-5.2-4.2-5.8C369.2,67.3,358.9,66.2,348.3,66.2L348.3,66.2z"/>
		<path class="st16" d="M430.3,86.9c8.2,0,14.6,1.2,19.6,3.7c4.9,2.5,8.1,5.8,9.9,9.9c1.9,4.5,2.8,9.5,2.8,15.2
			c-0.2,5.4-0.9,10.7-2.2,15.9c-0.3,1-1.3,1.8-2.4,1.8h-28.9h-3v3v2.1v3h3h27.9c1.3,0,2.5,1.1,2.7,2.5l1.8,21.3
			c0,0.7-0.1,2.3-1.7,2.7c-9.7,2.2-20.8,3.3-32.9,3.3c-12.3,0-21.2-3-26.6-9c-5.5-6.1-8.3-17.1-8.3-32.8c0-16.1,2.8-27.4,8.4-33.6
			C406,89.9,416.1,86.9,430.3,86.9 M425.2,124.8h3h2.3h3v-3v-11.6v-3h-3h-2.3h-3v3v11.6V124.8 M430.3,83.9c-15.3,0-25.9,3.4-32.1,10
			c-6.1,6.8-9.2,18.7-9.2,35.6c0,16.6,3.1,28.2,9,34.8s15.5,10,28.9,10c12.4,0,23.5-1.1,33.5-3.4c2.7-0.6,4.2-3.1,4-5.8l-1.8-21.4
			c-0.3-2.9-2.7-5.2-5.6-5.2h-27.9v-2.1H458c2.4,0,4.7-1.6,5.3-4c1.5-6,2.1-11.6,2.3-16.6c0-6-1-11.4-3.1-16.4
			c-2.1-5-6-8.7-11.3-11.4C445.8,85.2,438.9,83.9,430.3,83.9L430.3,83.9z M428.2,121.8v-11.6h2.3v11.6H428.2L428.2,121.8z"/>
		<path class="st16" d="M508.2,86.9c8.2,0,14.6,1.2,19.6,3.7c4.9,2.5,8.1,5.8,9.9,9.9c1.9,4.5,2.8,9.5,2.8,15.2
			c-0.2,5.4-0.9,10.7-2.2,15.9c-0.3,1-1.3,1.8-2.4,1.8H507h-3v3v2.1v3h3h27.9c1.3,0,2.5,1.1,2.7,2.5l1.8,21.3c0,0.7-0.1,2.3-1.7,2.7
			c-9.7,2.2-20.8,3.3-32.9,3.3c-12.3,0-21.2-3-26.6-9c-5.5-6.1-8.3-17.1-8.3-32.8c0-16.1,2.8-27.4,8.4-33.6
			C483.9,89.9,493.9,86.9,508.2,86.9 M503.1,124.8h3h2.3h3v-3v-11.6v-3h-3h-2.3h-3v3v11.6V124.8 M508.2,83.9
			c-15.3,0-25.9,3.4-32.1,10c-6.1,6.8-9.2,18.7-9.2,35.6c0,16.6,3.1,28.2,9,34.8s15.5,10,28.9,10c12.4,0,23.5-1.1,33.5-3.4
			c2.7-0.6,4.2-3.1,4-5.8l-1.8-21.4c-0.3-2.9-2.7-5.2-5.6-5.2H507v-2.1h28.9c2.4,0,4.7-1.6,5.3-4c1.5-6,2.1-11.6,2.3-16.6
			c0-6-1-11.4-3.1-16.4c-2.1-5-6-8.7-11.3-11.4C523.7,85.2,516.7,83.9,508.2,83.9L508.2,83.9z M506.1,121.8v-11.6h2.3v11.6H506.1
			L506.1,121.8z"/>
		<path class="st16" d="M586.7,68.8c1.8,0,3,1.1,3,2.8v13.7c0,0.1,0,0.3,0,0.4l0,0.1L577.5,112l-2,4.3h4.7h2.4h1.9l0.8-1.7l11-23.9
			c0.3-0.8,1.1-1.3,1.8-1.3h19.5c1.6,0,2.8,1.2,2.8,2.8v25.1c0,0.4-0.2,0.8-0.5,1.2l-7.8,8l-2,2l1.9,2.1l7.9,8.5l0,0l0,0
			c0.2,0.2,0.4,0.6,0.4,0.9v25.9c0,1.6-1.2,2.8-2.8,2.8h-21.4c-1.7,0-2-1-2.2-1.4l-8.4-23.5l-0.7-2h-2.1h-2.4h-4.3l1.5,4l6.6,18.2
			c0.5,1.3,0.4,2.5-0.3,3.4c-0.6,0.9-1.7,1.3-3,1.3h-29.3c-1.6,0-2.8-1.2-2.8-2.8V73.7c0-1.5,1-2.6,2.5-2.6l35.3-2.3
			C586.6,68.8,586.6,68.8,586.7,68.8 M586.7,65.8c-0.1,0-0.2,0-0.3,0l-35.3,2.3c-3.1,0.2-5.3,2.6-5.3,5.6v92.4
			c0,3.2,2.6,5.8,5.8,5.8h29.3c4.8,0,7.7-4,6.1-8.7l-6.6-18.2h2.4l8.4,23.5c0.8,2.3,2.7,3.4,5,3.4h21.4c3.2,0,5.8-2.6,5.8-5.8v-25.9
			c0-1.1-0.5-2.3-1.3-3.1l-7.9-8.5l7.9-8.1c0.8-1,1.3-2.1,1.3-3.2V92.1c0-3.2-2.6-5.8-5.8-5.8h-19.5c-1.9,0-3.7,1.3-4.5,3.1
			l-11,23.9h-2.4l12.1-26.1c0.3-0.5,0.3-1.1,0.3-1.8V71.6C592.6,68.2,590.1,65.8,586.7,65.8L586.7,65.8z"/>
	</g>
	<g>
		<g>
			<path class="st15" d="M355.1,115.7c-4.8-5.1-11.4-7.6-20.2-7.6h-3.3v-8.9h21.5c1.4,0,2.7-1.2,2.9-2.7l2.5-27.9v-0.1
				c0.2-1.4-0.6-2.5-2-2.8c-10.7-2.4-21.9-3.6-33.3-3.6c-16.2,0-27.8,2.6-34.5,7.7c-6.4,5-9.5,13.6-9.5,26.2
				c0,10.6,2.4,18.1,7.5,22.9c5.1,4.9,11.6,7.4,19.5,7.4h3.3v8.9h-22.2c-1.5,0-2.7,1.2-2.9,2.7l-2.6,29.3l0,0v0
				c-0.2,1.5,0.5,2.5,1.9,2.8c11.2,2.8,24,4.2,38,4.2c14.7,0,25.3-2.6,31.5-7.8c6.1-5,9.1-13.6,9.1-26.3
				C362.2,129.1,359.8,120.9,355.1,115.7z"/>
		</g>
		<g>
			<path class="st15" d="M445.6,144.3c-0.2-1.5-1.5-2.7-2.9-2.7h-33.9v-8.9h35c1.2,0,2.3-0.8,2.6-1.9c1.4-5.7,2.2-11.6,2.4-17.5
				c0-6.3-1-11.8-3.1-16.7c-1.9-4.6-5.5-8.1-10.9-10.9c-5.5-2.7-12.5-4.1-21.5-4.1c-15.7,0-26.7,3.3-32.8,9.9
				c-6.1,6.7-9.2,19.2-9.2,36.9c0,17.2,3,29.4,9.1,36c5.9,6.6,15.8,9.9,29.2,9.9c13.3,0,25.4-1.2,36.1-3.6c1.8-0.4,1.9-2.2,1.9-2.9
				L445.6,144.3z M407.7,103.8h9.1v19.3h-9.1V103.8z"/>
		</g>
		<g>
			<path class="st15" d="M531.1,144.3c-0.2-1.5-1.5-2.7-2.9-2.7h-33.9v-8.9h35c1.2,0,2.3-0.8,2.6-1.9c1.4-5.7,2.2-11.6,2.4-17.5
				c0-6.3-1-11.8-3.1-16.7c-1.9-4.6-5.5-8.1-10.9-10.9c-5.5-2.7-12.5-4.1-21.5-4.1c-15.7,0-26.7,3.3-32.8,9.9
				c-6.1,6.7-9.2,19.2-9.2,36.9c0,17.2,3,29.4,9.1,36c5.9,6.6,15.8,9.9,29.2,9.9c13.3,0,25.4-1.2,36.1-3.6c1.8-0.4,1.9-2.2,1.9-2.9
				L531.1,144.3z M493.2,103.8h9.1v19.3h-9.1V103.8z"/>
		</g>
		<g>
			<path class="st15" d="M621.5,116.3c0.4-0.5,0.6-1,0.6-1.4V87.3c0-1.7-1.4-3.1-3.1-3.1h-21.4c-0.8,0-1.6,0.6-2,1.4l-12,26.2
				l-0.9,1.9h-9.9l2.2-4.7l13.3-28.7l0-0.1c0-0.1,0-0.3,0-0.5v-15c0-1.9-1.3-3.1-3.3-3.1h-0.2l-38.7,2.5c-1.6,0.1-2.8,1.3-2.8,2.9
				v101.4c0,1.7,1.4,3.1,3.1,3.1h32.2c1.5,0,2.7-0.5,3.3-1.5c0.7-1,0.8-2.3,0.3-3.7l-7.2-20l-1.6-4.4h9.7l0.8,2.2l9.2,25.8
				c0.1,0.4,0.5,1.5,2.4,1.5H619c1.7,0,3.1-1.4,3.1-3.1V140c0-0.4-0.2-0.8-0.5-1l0,0l0-0.1l-8.7-9.4l-2.1-2.3l2.2-2.2L621.5,116.3z"
				/>
		</g>
	</g>
</g>
</svg>
