<svg width="124" height="124" viewBox="0 0 124 124" fill="none" xmlns="http://www.w3.org/2000/svg">
<path d="M62 10.3333C90.489 10.3333 113.667 33.511 113.667 62C113.667 90.489 90.489 113.667 62 113.667C33.511 113.667 10.3333 90.489 10.3333 62C10.3333 33.511 33.511 10.3333 62 10.3333ZM62 0C27.7605 0 0 27.7605 0 62C0 96.2395 27.7605 124 62 124C96.2395 124 124 96.2395 124 62C124 27.7605 96.2395 0 62 0Z" fill="black"/>
<path d="M45.7856 50.0127C48.1202 50.0127 50.0127 48.1202 50.0127 45.7856C50.0127 43.4511 48.1202 41.5586 45.7856 41.5586C43.4511 41.5586 41.5586 43.4511 41.5586 45.7856C41.5586 48.1202 43.4511 50.0127 45.7856 50.0127Z" fill="black"/>
<path d="M41.5586 55.651C41.5586 54.0947 42.8203 52.833 44.3766 52.833H47.1947C48.751 52.833 50.0127 54.0947 50.0127 55.651V78.1953C50.0127 79.7517 48.751 81.0134 47.1947 81.0134H44.3766C42.8203 81.0134 41.5586 79.7517 41.5586 78.1953V55.651Z" fill="black"/>
<path d="M58.4655 81.0134H61.2835C62.8399 81.0134 64.1016 79.7517 64.1016 78.1953V65.5142C64.1016 61.2871 72.5557 58.4691 72.5557 64.1052V78.1965C72.5557 79.7529 73.8173 81.0134 75.3737 81.0134H78.1917C79.7482 81.0134 81.0098 79.7517 81.0098 78.1953V61.2871C81.0098 55.651 76.7827 52.833 71.1467 52.833C65.5106 52.833 64.1016 57.0601 64.1016 57.0601V55.651C64.1016 54.0947 62.8399 52.833 61.2835 52.833H58.4655C56.9091 52.833 55.6475 54.0947 55.6475 55.651V78.1953C55.6475 79.7517 56.9091 81.0134 58.4655 81.0134Z" fill="black"/>
<path fill-rule="evenodd" clip-rule="evenodd" d="M83.8283 30.2871C88.4975 30.2871 92.2824 34.0722 92.2824 38.7412V83.8298C92.2824 88.499 88.4975 92.2839 83.8283 92.2839H38.7398C34.0707 92.2839 30.2856 88.499 30.2856 83.8298V38.7412C30.2856 34.0722 34.0707 30.2871 38.7398 30.2871H83.8283ZM83.8283 35.9232C85.3847 35.9232 86.6464 37.1849 86.6464 38.7412V83.8298C86.6464 85.3862 85.3847 86.6478 83.8283 86.6478H38.7398C37.1834 86.6478 35.9217 85.3862 35.9217 83.8298V38.7412C35.9217 37.1849 37.1834 35.9232 38.7398 35.9232H83.8283Z" fill="black"/>
</svg>
