<svg width="55" height="38" viewBox="0 0 55 38" fill="none" xmlns="http://www.w3.org/2000/svg">
<path d="M2.125 37.5C1.02043 37.5 0.125 36.6046 0.125 35.5V33.3333C0.125 32.2288 1.02043 31.3333 2.125 31.3333H52.875C53.9796 31.3333 54.875 32.2288 54.875 33.3333V35.5C54.875 36.6046 53.9796 37.5 52.875 37.5H2.125ZM2.125 22.0833C1.02043 22.0833 0.125 21.1879 0.125 20.0833V17.9167C0.125 16.8121 1.02043 15.9167 2.125 15.9167H52.875C53.9796 15.9167 54.875 16.8121 54.875 17.9167V20.0833C54.875 21.1879 53.9796 22.0833 52.875 22.0833H2.125ZM2.125 6.66667C1.02043 6.66667 0.125 5.77124 0.125 4.66667V2.5C0.125 1.39543 1.02043 0.5 2.125 0.5H52.875C53.9796 0.5 54.875 1.39543 54.875 2.5V4.66667C54.875 5.77124 53.9796 6.66667 52.875 6.66667H2.125Z" fill="#131313"/>
</svg>
