<svg width="64" height="62" viewBox="0 0 64 62" fill="none" xmlns="http://www.w3.org/2000/svg">
<circle cx="31.9047" cy="31.4184" r="31.393" fill="#D9D9D9"/>
<path d="M31.1497 29.1497C28.2027 29.1497 25.6799 28.1004 23.5812 26.0018C21.4826 23.9031 20.4333 21.3803 20.4333 18.4333C20.4333 15.4862 21.4826 12.9634 23.5812 10.8648C25.6799 8.76612 28.2027 7.7168 31.1497 7.7168C34.0968 7.7168 36.6196 8.76612 38.7183 10.8648C40.8169 12.9634 41.8662 15.4862 41.8662 18.4333C41.8662 21.3803 40.8169 23.9031 38.7183 26.0018C36.6196 28.1004 34.0968 29.1497 31.1497 29.1497ZM9.7168 50.5827V43.0812C9.7168 41.563 10.1075 40.1676 10.8889 38.895C11.6703 37.6225 12.7085 36.6513 14.0034 35.9815C16.7718 34.5973 19.5849 33.5591 22.4426 32.867C25.3003 32.1749 28.2027 31.8289 31.1497 31.8289C34.0968 31.8289 36.9992 32.1749 39.8569 32.867C42.7146 33.5591 45.5277 34.5973 48.2961 35.9815C49.591 36.6513 50.6292 37.6225 51.4106 38.895C52.192 40.1676 52.5827 41.563 52.5827 43.0812V50.5827H9.7168ZM15.075 45.2245H47.2245V43.0812C47.2245 42.59 47.1017 42.1435 46.8561 41.7416C46.6105 41.3397 46.2868 41.0272 45.8849 40.8039C43.4737 39.5983 41.0402 38.6941 38.5843 38.0913C36.1284 37.4885 33.6503 37.1871 31.1497 37.1871C28.6492 37.1871 26.1711 37.4885 23.7152 38.0913C21.2593 38.6941 18.8258 39.5983 16.4146 40.8039C16.0127 41.0272 15.689 41.3397 15.4434 41.7416C15.1978 42.1435 15.075 42.59 15.075 43.0812V45.2245ZM31.1497 23.7915C32.6233 23.7915 33.8847 23.2668 34.934 22.2175C35.9833 21.1682 36.508 19.9068 36.508 18.4333C36.508 16.9598 35.9833 15.6983 34.934 14.649C33.8847 13.5997 32.6233 13.075 31.1497 13.075C29.6762 13.075 28.4148 13.5997 27.3655 14.649C26.3162 15.6983 25.7915 16.9598 25.7915 18.4333C25.7915 19.9068 26.3162 21.1682 27.3655 22.2175C28.4148 23.2668 29.6762 23.7915 31.1497 23.7915Z" fill="black"/>
</svg>
