<?xml version="1.0" encoding="utf-8"?>
<!-- Generator: Adobe Illustrator 24.1.2, SVG Export Plug-In . SVG Version: 6.00 Build 0)  -->
<svg version="1.1" id="Camada_1" xmlns="http://www.w3.org/2000/svg" xmlns:xlink="http://www.w3.org/1999/xlink" x="0px" y="0px"
	 viewBox="0 0 127.3 42" style="enable-background:new 0 0 127.3 42;" xml:space="preserve">
<style type="text/css">
	.st0{fill:#2B63F0;stroke:#FEFEFE;stroke-width:2;}
	.st1{fill:none;stroke:#FEFEFE;stroke-width:2;}
	.st2{fill:#FFFFFF;}
</style>
<path class="st0" d="M15.8,2.7l-13.5,15c-1.7,1.9-1.7,4.8,0,6.7l13.5,15c0.9,1.1,2.3,1.7,3.7,1.7h101.8c2.8,0,5-2.2,5-5V6
	c0-2.8-2.2-5-5-5H19.5C18.1,1,16.7,1.6,15.8,2.7z"/>
<circle class="st1" cx="19.8" cy="21.5" r="4"/>
<path class="st2" d="M61,11.7h-5.8v15.4h-2.3V11.7h-5.8V10H61V11.7z M75.4,27.1c-0.6,0.2-1.2,0.3-1.8,0.4c-0.7,0-1.2-0.1-1.7-0.4
	c-0.4-0.3-0.7-0.7-0.8-1.4c-1.6,1.2-3.1,1.8-4.4,1.8c-1.1,0-1.9-0.3-2.6-0.9c-0.7-0.6-1-1.4-1-2.3c0-0.9,0.2-1.6,0.7-2.1
	c0.5-0.6,1.1-1,2-1.4c0.9-0.4,2-0.8,3.5-1.2l1.9-0.5v-1c0-2-0.8-3-2.3-3c-0.8,0-1.6,0.2-2.3,0.5c-0.7,0.3-1.5,1-2.4,1.9L63.1,16
	c1.9-1.9,3.9-2.8,6.1-2.8c1.4,0,2.5,0.4,3.1,1.1c0.7,0.8,1,2,1,3.8v6.6c0,0.4,0.1,0.6,0.2,0.8c0.1,0.2,0.3,0.2,0.6,0.2
	c0.3,0,0.6-0.1,1.1-0.3L75.4,27.1z M65.3,24.1c0,0.6,0.2,1,0.5,1.3c0.3,0.3,0.8,0.4,1.3,0.4c0.6,0,1.2-0.1,1.8-0.4
	c0.6-0.3,1.3-0.7,2.1-1.3v-3.5l-1.4,0.4c-1.6,0.5-2.7,1-3.4,1.4C65.7,22.8,65.3,23.4,65.3,24.1z M89.8,15.4l-3-0.3
	c0.5,0.8,0.8,1.6,0.8,2.6c0,0.8-0.2,1.6-0.6,2.2c-0.4,0.7-0.9,1.2-1.7,1.6c-0.7,0.4-1.6,0.6-2.7,0.6c-0.5,0-1.1-0.1-1.6-0.2
	c-0.5,0.4-0.8,0.7-1.1,1c-0.2,0.3-0.3,0.6-0.3,0.9c0,0.4,0.1,0.6,0.4,0.8c0.3,0.2,0.7,0.2,1.3,0.2h4.3c1.2,0,2.2,0.3,2.9,0.9
	c0.7,0.6,1,1.4,1,2.4c0,1-0.3,1.8-1,2.6c-0.7,0.8-1.6,1.4-2.7,1.9c-1.1,0.5-2.4,0.7-3.8,0.7c-1.9,0-3.2-0.3-4-1
	c-0.8-0.7-1.2-1.5-1.2-2.5c0-0.7,0.2-1.3,0.5-1.8c0.4-0.5,0.9-1.1,1.6-1.6c-1-0.4-1.5-1.1-1.5-2.1c0-0.5,0.2-1,0.5-1.4
	c0.3-0.5,0.9-1,1.6-1.6c-0.6-0.4-1.1-0.9-1.4-1.5c-0.3-0.6-0.5-1.3-0.5-2.1c0-0.8,0.2-1.5,0.6-2.2c0.4-0.7,0.9-1.2,1.7-1.6
	c0.8-0.4,1.7-0.6,2.8-0.6c0.9,0,1.7,0.2,2.4,0.5h4.7V15.4z M82.6,20.5c0.8,0,1.5-0.3,2-0.8c0.5-0.5,0.8-1.2,0.8-2
	c0-0.8-0.2-1.5-0.7-2c-0.5-0.5-1.2-0.8-2-0.8c-0.8,0-1.5,0.3-2,0.8c-0.5,0.5-0.7,1.2-0.7,2c0,0.8,0.2,1.5,0.7,2
	C81.1,20.2,81.8,20.5,82.6,20.5z M87.4,28.5c0-1.2-0.7-1.7-2.1-1.7h-4.2h-0.3c-0.6,0.5-1.1,1-1.4,1.5s-0.5,1-0.5,1.5
	c0,0.7,0.3,1.2,0.8,1.5c0.5,0.3,1.3,0.5,2.3,0.5c1,0,1.9-0.2,2.8-0.5c0.8-0.3,1.5-0.7,1.9-1.2C87.2,29.5,87.4,29,87.4,28.5z
	 M96,27.6c-1,0-1.9-0.1-2.7-0.3c-0.8-0.2-1.5-0.5-2.1-1l0.7-1.6c1.1,0.8,2.5,1.2,4.1,1.2c0.9,0,1.6-0.2,2.1-0.6
	c0.6-0.4,0.8-1,0.8-1.7c0-0.4-0.1-0.8-0.4-1.1c-0.3-0.3-0.6-0.5-1-0.7c-0.4-0.2-0.9-0.4-1.7-0.7c-0.9-0.3-1.6-0.6-2.2-0.9
	c-0.6-0.3-1-0.7-1.4-1.2c-0.4-0.5-0.6-1.1-0.6-1.9c0-1.2,0.4-2.2,1.3-2.9c0.9-0.7,2-1,3.4-1c1.6,0,3,0.4,4.3,1.2l-0.7,1.6
	C99,15.3,97.8,15,96.5,15c-0.8,0-1.4,0.2-1.9,0.5c-0.5,0.3-0.7,0.8-0.7,1.5c0,0.6,0.3,1.1,0.8,1.4c0.5,0.3,1.3,0.7,2.3,1
	c0.9,0.3,1.6,0.6,2.2,0.9c0.6,0.3,1,0.7,1.4,1.2c0.4,0.5,0.6,1.2,0.6,2c0,1.3-0.5,2.3-1.4,3C98.8,27.2,97.5,27.6,96,27.6z"/>
</svg>
