<svg width="254" height="254" viewBox="0 0 254 254" fill="none" xmlns="http://www.w3.org/2000/svg">
<path d="M42.3327 222.25C36.5118 222.25 31.5289 220.178 27.3837 216.033C23.2386 211.887 21.166 206.904 21.166 201.084V84.667C21.166 78.8462 23.2386 73.8632 27.3837 69.718C31.5289 65.5729 36.5118 63.5003 42.3327 63.5003H84.666V42.3337C84.666 36.5128 86.7386 31.5298 90.8837 27.3847C95.0289 23.2396 100.012 21.167 105.833 21.167H148.166C153.987 21.167 158.97 23.2396 163.115 27.3847C167.26 31.5298 169.333 36.5128 169.333 42.3337V63.5003H211.666C217.487 63.5003 222.47 65.5729 226.615 69.718C230.76 73.8632 232.833 78.8462 232.833 84.667V201.084C232.833 206.904 230.76 211.887 226.615 216.033C222.47 220.178 217.487 222.25 211.666 222.25H42.3327ZM42.3327 201.084H211.666V84.667H42.3327V201.084ZM105.833 63.5003H148.166V42.3337H105.833V63.5003Z" fill="black"/>
</svg>
