<svg width="254" height="254" viewBox="0 0 254 254" fill="none" xmlns="http://www.w3.org/2000/svg">
<path d="M42.3327 232.834C36.5118 232.834 31.5289 230.761 27.3837 226.616C23.2386 222.471 21.166 217.488 21.166 211.667V95.2503C21.166 89.4295 23.2386 84.4465 27.3837 80.3014C31.5289 76.1562 36.5118 74.0837 42.3327 74.0837H95.2493V42.3337C95.2493 36.5128 97.3219 31.5298 101.467 27.3847C105.612 23.2396 110.595 21.167 116.416 21.167H137.583C143.404 21.167 148.386 23.2396 152.532 27.3847C156.677 31.5298 158.749 36.5128 158.749 42.3337V74.0837H211.666C217.487 74.0837 222.47 76.1562 226.615 80.3014C230.76 84.4465 232.833 89.4295 232.833 95.2503V211.667C232.833 217.488 230.76 222.471 226.615 226.616C222.47 230.761 217.487 232.834 211.666 232.834H42.3327ZM42.3327 211.667H211.666V95.2503H158.749C158.749 101.071 156.677 106.054 152.532 110.199C148.386 114.344 143.404 116.417 137.583 116.417H116.416C110.595 116.417 105.612 114.344 101.467 110.199C97.3219 106.054 95.2493 101.071 95.2493 95.2503H42.3327V211.667ZM63.4993 190.5H126.999V185.738C126.999 182.739 126.161 179.961 124.486 177.403C122.81 174.846 120.473 172.861 117.474 171.45C113.947 169.863 110.375 168.672 106.759 167.878C103.143 167.085 99.3063 166.688 95.2493 166.688C91.1924 166.688 87.3559 167.085 83.74 167.878C80.124 168.672 76.5521 169.863 73.0243 171.45C70.0257 172.861 67.6886 174.846 66.0129 177.403C64.3372 179.961 63.4993 182.739 63.4993 185.738V190.5ZM148.166 174.625H190.499V158.75H148.166V174.625ZM95.2493 158.75C99.6591 158.75 103.407 157.207 106.494 154.12C109.581 151.033 111.124 147.285 111.124 142.875C111.124 138.466 109.581 134.717 106.494 131.631C103.407 128.544 99.6591 127 95.2493 127C90.8396 127 87.0914 128.544 84.0046 131.631C80.9177 134.717 79.3743 138.466 79.3743 142.875C79.3743 147.285 80.9177 151.033 84.0046 154.12C87.0914 157.207 90.8396 158.75 95.2493 158.75ZM148.166 142.875H190.499V127H148.166V142.875ZM116.416 95.2503H137.583V42.3337H116.416V95.2503Z" fill="black"/>
</svg>
